<?xml version="1.0" encoding="utf-8"?>
<svg id="master-artboard" viewBox="0 0 1400 933.4198608398438" xmlns="http://www.w3.org/2000/svg" width="1400px" height="933.4198608398438px" version="1.1" style="shape-rendering:geometricPrecision; text-rendering:geometricPrecision; image-rendering:optimizeQuality; fill-rule:evenodd; clip-rule:evenodd"><defs><pattern y="0" x="0" height="6" width="6" patternUnits="userSpaceOnUse" id="EMFhbasepattern"/></defs><rect id="ee-background" x="0" y="0" width="1400" height="933.4198608398438" style="fill: white; fill-opacity: 0; pointer-events: none;"/>
 
 <metadata id="CorelCorpID_0Corel-Layer"/>
<g transform="matrix(1.3977986574172974, 0, 0, 1.3977986574172974, -0.000030902487196726725, -1.8498363494873047)"><metadata id="metadata141">
    
  </metadata><path id="path5" d="  M 0,666.63506   L 999.99259,666.63506   L 999.99259,0   L 0,0   z " style="fill:#fef4ed;fill-rule:nonzero;fill-opacity:1;stroke:none;"/><path id="path7" d="  M 999.99259,633.75531   C 935.91307,631.75532 909.83326,466.71654 768.63431,490.87636   C 560.71585,526.3961 458.9566,476.31647 376.71721,329.83756   C 295.11781,184.31863 249.59815,280.15792 249.59815,280.15792   C 249.59815,280.15792 200.47851,234.15827 255.35811,177.51869   C 288.95786,142.87894 279.03793,86.639358 202.6385,71.919467   C 137.11898,59.199561 92.079318,32.719758 64.159525,0   L 999.99259,0   L 999.99259,633.75531   z " style="fill:#afd1d8;fill-rule:nonzero;fill-opacity:1;stroke:none;"/><path id="path43" d="  M 759.43437,325.19759   C 761.99436,326.07758 763.91434,328.79756 761.27436,331.51754   C 758.95438,333.83753 753.99441,332.63754 754.07441,328.87756   C 754.23441,325.11759 757.11439,324.3976 759.43437,325.19759   z " style="fill:#ee2622;fill-rule:nonzero;fill-opacity:1;stroke:none;" transform="matrix(-2.1593616008758545, 0, 0, -2.1593616008758545, 2430.203254177845, 1006.208774210062)"/><path id="path45" d="  M 597.27558,307.35772   C 601.91554,309.03771 605.35552,313.91767 600.55555,318.79764   C 596.31558,322.95761 587.43565,320.79762 587.59565,314.07767   C 587.83565,307.19772 593.03561,305.91773 597.27558,307.35772   z " style="fill:#ee2622;fill-rule:nonzero;fill-opacity:1;stroke:none;"/><path id="path47" d="  M 722.87465,60.959548   C 726.71462,62.319538 729.6746,66.399508 725.59463,70.479478   C 722.07465,73.999452 714.55471,72.239465 714.79471,66.559507   C 714.9547,60.79955 719.35467,59.679558 722.87465,60.959548   z " style="fill:#be731d;fill-rule:nonzero;fill-opacity:1;stroke:none;"/><path id="path49" d="  M 958.3929,436.63677   C 953.27294,442.87672 946.39299,450.47666 937.43306,447.59668   C 935.43307,447.03669 933.43309,445.9967 931.3531,446.55669   C 928.87312,447.19669 927.91313,451.91665 927.11313,453.91664   C 925.59314,457.67661 922.47317,460.15659 918.5532,460.87659   C 915.43322,461.43658 912.39324,460.95659 909.35326,461.03658   C 904.4733,461.27658 903.59331,465.51655 903.8333,469.59652   C 903.9933,473.0365 903.9133,477.19647 900.87333,479.51645   C 897.11335,482.47643 893.03338,481.91643 888.63342,482.47643   C 885.75344,482.79642 885.35344,478.39646 888.23342,478.07646   C 892.15339,477.59646 898.23335,478.71645 899.35334,473.67649   C 900.07333,470.31652 898.23335,466.15655 899.91333,463.03657   C 903.43331,456.39662 908.55327,456.79662 915.19322,456.71662   C 916.79321,456.71662 918.3132,456.39662 919.83319,455.83662   C 922.47317,454.79663 923.27316,451.51666 924.23315,449.03667   C 925.67314,445.2767 927.99313,442.31672 932.1531,441.91673   C 933.67308,441.75673 935.27307,442.23672 936.71306,442.71672   C 939.43304,443.67671 941.51303,444.07671 944.31301,443.19672   C 948.95297,441.75673 952.07295,437.27676 954.95293,433.75679   C 956.79291,431.5168 960.15289,434.39678 958.3929,436.63677   z " style="fill:#ee2622;fill-rule:nonzero;fill-opacity:1;stroke:none;"/><path id="path51" d="  M 309.75771,66.559507   C 320.71762,73.519455 334.23752,83.199384 331.35755,98.159273   C 330.71755,101.43925 329.43756,104.79922 330.71755,108.0792   C 332.23754,111.91917 339.99748,112.55917 343.43746,113.51916   C 349.75741,115.27915 354.23738,119.75911 356.15736,125.99907   C 357.59735,130.79903 357.43735,135.75899 358.15735,140.63896   C 359.43734,148.4789 366.39729,149.1189 372.95724,147.9989   C 378.3972,147.03891 385.19715,146.39892 389.51711,150.79888   C 394.87707,156.31884 394.79708,162.87879 396.47706,169.99874   C 397.59705,174.47871 390.55711,175.9187 389.51711,171.43873   C 387.99713,165.27878 388.63712,155.27885 380.31718,154.39886   C 374.79722,153.83886 368.55727,157.59883 363.11731,155.51885   C 351.75739,151.03888 351.5174,142.79894 350.15741,132.07902   C 349.83741,129.51904 349.11741,127.19906 347.83742,124.87907   C 345.59744,120.71911 340.23748,120.07911 336.15751,119.03912   C 329.83756,117.43913 324.6376,114.31915 323.19761,107.5992   C 322.63761,105.19922 323.11761,102.55924 323.6776,100.15926   C 324.6376,95.599292 324.87759,92.319316 322.87761,87.839349   C 319.75763,80.719402 311.99769,76.479433 305.83773,72.559463   C 301.91776,70.079481 305.83773,64.079525 309.75771,66.559507   z " style="fill:#ee2622;fill-rule:nonzero;fill-opacity:1;stroke:none;"/><path id="path53" d="  M 946.55299,116.39914   C 939.67304,126.39906 925.99314,139.03897 915.99321,144.95893   C 912.23324,137.27898 908.95327,133.35901 909.91326,132.79902   C 916.95321,129.03904 931.1931,114.95915 937.35306,108.3192   L 946.55299,116.39914   z " style="fill:#ffffff;fill-rule:nonzero;fill-opacity:1;stroke:none;" transform="matrix(1, 0, 0, 1, -5.795470203375203, 55.05696693206397)"/><path id="path55" d="  M 259.19808,33.439752   C 253.51812,32.959756 249.19815,35.839735 248.71816,41.679691   C 248.55816,44.479671 249.75815,50.959623 253.83812,48.479641   C 255.59811,47.439649 256.3981,45.439663 254.55811,44.079673   C 252.63813,42.639684 249.91815,42.799683 247.75816,43.759676   C 241.59821,46.639655 242.4782,55.999585 247.75816,59.43956   C 249.35815,60.479552 247.83816,63.119532 246.23818,62.07954   C 238.87823,57.279576 238.15824,45.359664 246.31818,41.119695   C 249.27815,39.519707 253.19812,39.599707 256.0781,41.439693   C 258.71808,43.19968 259.51808,46.479656 257.59809,49.039637   C 255.8381,51.519618 252.79813,52.879608 249.91815,51.599618   C 247.19817,50.479626 246.07818,46.799653 245.75818,44.159673   C 244.87819,35.839735 250.79814,29.67978 259.19808,30.399775   C 261.11807,30.559774 261.11807,33.599751 259.19808,33.439752   z " style="fill:#2f50aa;fill-rule:nonzero;fill-opacity:1;stroke:none;"/><path id="path57" d="  M 694.23486,395.19707   C 696.55484,389.99711 695.19485,384.95715 689.83489,382.63717   C 687.35491,381.51717 680.79496,380.55718 681.75495,385.11715   C 682.15495,387.11713 683.75494,388.63712 685.67492,387.27713   C 687.67491,385.99714 688.4749,383.35716 688.2349,381.03718   C 687.59491,374.23723 678.47497,371.91725 673.51501,375.75722   C 671.91502,376.95721 669.91504,374.63722 671.51503,373.51723   C 678.47497,368.15727 689.83489,371.43725 691.27488,380.47718   C 691.75488,383.83716 690.39489,387.51713 687.67491,389.59711   C 685.11493,391.5171 681.75495,391.1971 679.99496,388.55712   C 678.31498,385.99714 677.99498,382.71717 680.07496,380.39718   C 682.07495,378.2372 685.91492,378.3972 688.4749,378.95719   C 696.63484,380.87718 700.47481,388.55712 697.11484,396.23706   C 696.31484,397.99705 693.43486,396.95706 694.23486,395.19707   z " style="fill:#2f50aa;fill-rule:nonzero;fill-opacity:1;stroke:none;"/><path id="path59" d="  M 470.39652,121.7591   C 470.39652,121.0391 473.35649,120.39911 477.43646,120.23911   C 475.75648,118.31912 474.79648,116.79913 475.11648,116.47914   C 475.51648,116.07914 477.03647,117.03913 478.95645,118.71912   C 479.11645,114.63915 479.75645,111.67917 480.47644,111.67917   C 481.19644,111.67917 481.75643,114.63915 481.99643,118.71912   C 483.91642,117.03913 485.4364,116.07914 485.7564,116.47914   C 486.0764,116.79913 485.11641,118.31912 483.51642,120.23911   C 487.59639,120.39911 490.55637,121.0391 490.55637,121.7591   C 490.55637,122.47909 487.59639,123.03909 483.51642,123.27909   C 485.11641,125.19907 486.0764,126.71906 485.7564,127.03906   C 485.4364,127.35906 483.91642,126.39906 481.99643,124.79908   C 481.75643,128.87905 481.19644,131.83902 480.47644,131.83902   C 479.75645,131.83902 479.11645,128.87905 478.95645,124.79908   C 477.03647,126.39906 475.51648,127.35906 475.11648,127.03906   C 474.79648,126.71906 475.75648,125.19907 477.43646,123.27909   C 473.35649,123.03909 470.39652,122.47909 470.39652,121.7591   z " style="fill:#be731d;fill-rule:nonzero;fill-opacity:1;stroke:none;"/><path id="path61" d="  M 507.43624,395.83707   L 508.07624,395.83707   C 508.07624,395.75707 508.07624,395.67707 508.31623,395.51707   C 508.63623,395.11707 509.43623,394.71708 510.63622,394.31708   C 514.23619,393.11709 521.11614,392.1571 529.43608,391.7571   L 530.79607,391.7571   L 529.91607,390.71711   C 527.67609,388.07713 525.8361,385.75714 524.55611,383.83716   C 523.91612,382.87716 523.43612,382.07717 523.11613,381.35718   C 522.79613,380.63718 522.71613,380.15718 522.71613,379.91719   L 522.71613,379.75719   L 522.71613,379.75719   L 522.63613,379.67719   L 522.71613,379.75719   L 522.71613,379.75719   L 522.63613,379.67719   L 522.71613,379.75719   L 522.71613,379.75719   L 522.63613,379.75719   L 522.71613,379.75719   L 522.71613,379.75719   L 522.63613,379.75719   L 522.71613,379.75719   L 522.71613,379.75719   L 522.79613,379.75719   C 523.11613,379.75719 523.59612,379.91719 524.31612,380.23718   C 526.3161,381.11718 529.75608,383.59716 533.59605,386.95713   L 534.63604,387.83713   L 534.71604,386.47714   C 535.03604,380.07718 535.67603,374.63722 536.47603,370.79725   C 536.87602,368.87727 537.35602,367.35728 537.75602,366.39729   C 537.99601,365.91729 538.23601,365.51729 538.39601,365.35729   C 538.63601,365.1173 538.71601,365.1173 538.71601,365.1173   C 538.79601,365.1173 538.87601,365.1173 539.03601,365.35729   C 539.436,365.67729 539.836,366.47729 540.236,367.67728   C 541.43599,371.27725 542.39598,378.1572 542.79598,386.47714   L 542.87598,387.83713   L 543.91597,386.95713   C 546.47595,384.71715 548.79593,382.87716 550.71592,381.59717   C 551.67591,381.03718 552.47591,380.55718 553.1959,380.23718   C 553.8359,379.91719 554.39589,379.75719 554.63589,379.75719   L 554.79589,379.75719   L 554.79589,379.75719   L 554.79589,379.75719   L 554.79589,379.75719   L 554.79589,379.75719   L 554.79589,379.75719   L 554.79589,379.75719   L 554.79589,379.75719   L 554.79589,379.75719   L 554.79589,379.75719   L 554.79589,379.75719   L 554.79589,379.75719   L 554.79589,379.75719   L 554.79589,379.75719   L 554.79589,379.91719   C 554.79589,380.15718 554.63589,380.71718 554.31589,381.35718   C 553.3559,383.43716 550.95592,386.79713 547.59594,390.71711   L 546.71595,391.7571   L 548.07594,391.7571   C 554.47589,392.0771 559.91585,392.71709 563.75582,393.51709   C 565.67581,393.91708 567.1958,394.39708 568.15579,394.79708   C 568.63579,395.03707 568.95579,395.27707 569.19578,395.51707   C 569.35578,395.67707 569.43578,395.75707 569.43578,395.83707   C 569.43578,395.83707 569.35578,395.91707 569.19578,396.15707   C 568.87579,396.47706 567.99579,396.87706 566.7958,397.27706   C 563.19583,398.47705 556.39588,399.43704 548.07594,399.83704   L 546.71595,399.91704   L 547.59594,400.95703   C 549.83593,403.51701 551.67591,405.91699 552.9559,407.75698   C 553.5159,408.71697 553.9959,409.59697 554.31589,410.23696   C 554.63589,410.95696 554.79589,411.43695 554.79589,411.75695   L 554.79589,411.83695   L 554.79589,411.91695   L 554.79589,411.91695   L 554.79589,411.83695   L 554.79589,411.91695   L 554.79589,411.91695   L 554.79589,411.83695   L 555.27589,412.31695   L 554.79589,411.83695   L 554.87589,411.91695   L 554.79589,411.83695   L 554.79589,411.83695   L 554.87589,411.91695   L 554.79589,411.83695   L 554.79589,411.83695   L 554.63589,411.83695   C 554.39589,411.91695 553.9159,411.75695 553.1959,411.43695   C 551.11592,410.47696 547.75594,407.99698 543.91597,404.717   L 542.87598,403.75701   L 542.79598,405.117   C 542.47598,411.51695 541.83599,416.95691 541.03599,420.79688   C 540.636,422.71687 540.156,424.23686 539.756,425.19685   C 539.516,425.67685 539.27601,426.07684 539.03601,426.23684   C 538.87601,426.47684 538.79601,426.47684 538.71601,426.47684   C 538.71601,426.47684 538.63601,426.47684 538.39601,426.23684   C 538.07601,425.91685 537.67602,425.11685 537.27602,423.91686   C 536.07603,420.31689 535.11604,413.43694 534.71604,405.117   L 534.63604,403.75701   L 533.59605,404.717   C 531.03607,406.87699 528.63608,408.71697 526.7161,409.99696   C 525.75611,410.63696 524.95611,411.11695 524.23612,411.43695   C 523.59612,411.75695 523.03613,411.91695 522.79613,411.83695   L 522.71613,411.83695   L 522.63613,411.83695   L 522.63613,411.91695   L 522.71613,411.83695   L 522.63613,411.83695   L 522.63613,411.91695   L 522.71613,411.83695   L 522.23613,412.31695   L 522.71613,411.83695   L 522.63613,411.91695   L 522.71613,411.91695   L 522.71613,411.83695   L 522.63613,411.91695   L 522.71613,411.91695   L 522.71613,411.83695   L 522.71613,411.75695   C 522.71613,411.51695 522.79613,410.95696 523.11613,410.23696   C 524.07612,408.23698 526.5561,404.797 529.91607,400.95703   L 530.79607,399.91704   L 529.43608,399.83704   C 523.03613,399.51704 517.59617,398.87705 513.75619,398.07705   C 511.83621,397.67705 510.31622,397.27706 509.35623,396.79706   C 508.79623,396.55706 508.47623,396.31706 508.31623,396.15707   C 508.07624,395.91707 508.07624,395.83707 508.07624,395.83707   L 507.43624,395.83707   L 506.71625,395.83707   C 506.71625,396.31706 507.03624,396.79706 507.35624,397.11706   C 507.99624,397.67705 508.95623,398.15705 510.23622,398.55705   C 514.07619,399.83704 520.95614,400.79703 529.35608,401.19703   L 529.35608,400.47703   L 528.87608,400.07704   C 526.6361,402.71702 524.79611,405.117 523.43612,407.03698   C 522.79613,408.07698 522.31613,408.95697 521.91613,409.67697   C 521.59614,410.47696 521.35614,411.11695 521.35614,411.75695   C 521.35614,412.07695 521.43614,412.47694 521.75614,412.79694   L 521.75614,412.79694   L 521.75614,412.79694   C 522.07613,413.11694 522.47613,413.19694 522.79613,413.19694   C 523.43612,413.19694 524.07612,412.95694 524.87611,412.63694   C 527.1161,411.51695 530.55607,409.11697 534.47604,405.67699   L 533.99604,405.197   L 533.35605,405.197   C 533.67605,411.59695 534.31604,417.11691 535.11604,421.03688   C 535.59603,423.03687 536.07603,424.63685 536.55603,425.75685   C 536.87602,426.31684 537.11602,426.79684 537.43602,427.19684   C 537.75602,427.51683 538.23601,427.83683 538.71601,427.83683   C 539.27601,427.83683 539.676,427.51683 540.076,427.19684   C 540.636,426.55684 541.03599,425.59685 541.51599,424.31686   C 542.71598,420.47689 543.67597,413.59694 544.07597,405.197   L 543.43597,405.197   L 543.03598,405.67699   C 545.59596,407.91698 547.99594,409.83696 549.99593,411.11695   C 550.95592,411.75695 551.83591,412.23695 552.63591,412.63694   C 553.4359,412.95694 554.0759,413.19694 554.63589,413.19694   C 555.03589,413.19694 555.43589,413.11694 555.75588,412.79694   L 555.75588,412.79694   C 555.99588,412.47694 556.15588,412.07695 556.15588,411.75695   C 556.15588,411.11695 555.91588,410.47696 555.51589,409.67697   C 554.47589,407.35698 551.99591,403.99701 548.63594,400.07704   L 548.15594,400.47703   L 548.15594,401.19703   C 554.55589,400.87703 560.07585,400.23704 563.99582,399.43704   C 565.99581,398.95704 567.5958,398.55705 568.71579,397.99705   C 569.27578,397.75705 569.75578,397.43706 570.07578,397.11706   C 570.47577,396.79706 570.71577,396.31706 570.71577,395.83707   C 570.71577,395.27707 570.47577,394.87707 570.07578,394.55708   C 569.51578,393.91708 568.55579,393.51709 567.2758,393.03709   C 563.43583,391.7571 556.55588,390.8771 548.15594,390.47711   L 548.15594,391.1171   L 548.63594,391.5171   C 550.87592,388.95712 552.71591,386.55714 553.9959,384.55715   C 554.71589,383.59716 555.19589,382.71717 555.51589,381.91717   C 555.91588,381.11718 556.15588,380.47718 556.15588,379.91719   C 556.15588,379.51719 555.99588,379.11719 555.75588,378.79719   L 555.75588,378.79719   C 555.43589,378.4772 555.03589,378.3972 554.63589,378.3972   C 553.9959,378.3972 553.3559,378.6372 552.63591,378.95719   C 550.31592,380.07718 546.95595,382.55717 543.03598,385.91714   L 543.43597,386.39714   L 544.07597,386.39714   C 543.75597,379.99719 543.19598,374.47723 542.31598,370.55726   C 541.91599,368.55727 541.43599,366.95728 540.95599,365.83729   C 540.636,365.27729 540.396,364.7973 540.076,364.3973   C 539.676,364.0773 539.27601,363.75731 538.71601,363.75731   C 538.23601,363.75731 537.75602,364.0773 537.43602,364.3973   C 536.87602,365.0373 536.39603,365.99729 535.99603,367.27728   C 534.71604,371.11725 533.83605,377.9972 533.35605,386.39714   L 533.99604,386.39714   L 534.47604,385.91714   C 531.83606,383.67716 529.43608,381.83717 527.51609,380.47718   C 526.4761,379.83719 525.59611,379.35719 524.87611,378.95719   C 524.07612,378.6372 523.43612,378.3972 522.79613,378.3972   C 522.47613,378.3972 522.07613,378.4772 521.75614,378.79719   L 521.75614,378.79719   C 521.43614,379.11719 521.35614,379.51719 521.35614,379.91719   C 521.35614,380.47718 521.59614,381.11718 521.91613,381.91717   C 523.03613,384.23715 525.51611,387.59713 528.87608,391.5171   L 529.35608,391.1171   L 529.35608,390.47711   C 522.95613,390.71711 517.43617,391.3571 513.5162,392.23709   C 511.51621,392.63709 509.91622,393.11709 508.79623,393.59708   C 508.15624,393.91708 507.75624,394.15708 507.35624,394.55708   C 507.03624,394.87707 506.71625,395.27707 506.71625,395.83707   L 507.43624,395.83707   z " style="fill:#ffffff;fill-rule:nonzero;fill-opacity:1;stroke:none;"/><path id="path63" d="  M 935.51307,319.99763   C 935.51307,318.87764 940.15304,317.91765 946.63299,317.59765   C 944.07301,314.55767 942.47302,312.15769 943.03301,311.59769   C 943.59301,311.0377 945.99299,312.55768 949.03297,315.19767   C 949.35297,308.71771 950.31296,304.07775 951.43295,304.07775   C 952.55294,304.07775 953.51294,308.71771 953.83293,315.19767   C 956.87291,312.55768 959.27289,311.0377 959.83289,311.59769   C 960.39289,312.15769 958.8729,314.55767 956.23292,317.59765   C 962.71287,317.91765 967.35283,318.87764 967.35283,319.99763   C 967.35283,321.11762 962.71287,322.07761 956.23292,322.39761   C 958.8729,325.43759 960.39289,327.91757 959.83289,328.39757   C 959.35289,328.95756 956.87291,327.43757 953.83293,324.79759   C 953.51294,331.27755 952.55294,335.99751 951.43295,335.99751   C 950.31296,335.99751 949.35297,331.27755 949.03297,324.79759   C 945.99299,327.43757 943.59301,328.95756 943.03301,328.39757   C 942.47302,327.91757 944.07301,325.43759 946.63299,322.39761   C 940.15304,322.07761 935.51307,321.11762 935.51307,319.99763   z " style="fill:#ffffff;fill-rule:nonzero;fill-opacity:1;stroke:none;"/><path id="path65" d="  M 290.79785,230.95829   C 283.4379,221.83836 278.15794,209.99844 275.19796,198.87853   C 278.63794,197.35854 282.79791,197.03854 285.75788,195.27855   C 291.83784,203.43849 292.79783,215.9184 299.43778,223.83834   L 290.79785,230.95829   z " style="fill:#be731d;fill-rule:nonzero;fill-opacity:1;stroke:none;"/><path id="path67" d="  M 623.59538,69.519485   C 614.95544,66.319509 602.79553,62.319538 592.71561,59.199561   C 593.9956,55.35959 596.23558,51.919615 597.11558,47.759646   C 606.47551,49.119636 615.91544,55.039592 624.63537,58.799564   L 623.59538,69.519485   z " style="fill:#ee2622;fill-rule:nonzero;fill-opacity:1;stroke:none;"/><path id="path69" d="  M 639.27526,458.9566   C 647.9152,455.83662 660.07511,451.75665 670.15504,448.71668   C 668.87505,444.8767 666.63506,441.35673 665.67507,437.19676   C 656.39514,438.63675 646.95521,444.47671 638.23527,448.31668   L 639.27526,458.9566   z " style="fill:#ee2622;fill-rule:nonzero;fill-opacity:1;stroke:none;"/><path id="path71" d="  M 459.1166,331.59754   C 462.39657,330.79755 466.23655,334.31752 463.91656,337.9175   C 460.39659,343.35746 453.75664,336.07751 457.11661,332.71754   C 457.75661,332.15754 458.3966,331.75754 459.1166,331.59754   z " style="fill:#3bac95;fill-rule:nonzero;fill-opacity:1;stroke:none;"/><path id="path73" d="  M 878.71349,95.759291   C 880.95347,97.279279 882.47346,99.83926 881.35347,102.55924   C 880.07348,105.67922 876.07351,104.39923 874.07353,102.79924   C 871.75354,100.95925 870.55355,98.079273 870.15355,95.199295   C 870.07356,94.719298 870.07356,94.159303 870.07356,93.679306   C 872.95353,93.679306 876.23351,94.159303 878.71349,95.759291   z  M 855.19367,118.55912   C 856.07366,120.47911 856.07366,123.11909 854.55367,124.79908   C 852.47369,127.03906 849.03371,125.35907 847.51372,123.19909   C 845.91373,120.8791 845.75374,117.75913 846.07373,114.87915   C 846.79373,114.79915 847.51372,114.79915 848.31372,114.79915   C 850.9537,114.95915 853.99367,115.99914 855.19367,118.55912   z  M 901.91332,61.359545   C 899.75334,61.919541 897.59335,62.399538 895.51337,63.199532   C 893.51338,63.999526 891.5134,64.879519 889.59341,65.919512   C 885.67344,68.079496 881.99347,70.719476 878.55349,73.599455   C 873.35353,78.159421 868.31357,83.999378 867.35358,90.959326   C 856.79365,92.159317 847.11373,100.15926 844.07375,110.31918   C 843.91375,110.95918 843.75375,111.67917 843.59375,112.39917   C 840.31378,113.19916 837.1138,114.87915 834.71382,116.87913   C 829.27386,121.5191 825.75388,128.71905 826.07388,135.91899   C 826.07388,136.55899 826.23388,137.35898 826.39388,138.15898   C 826.63388,139.35897 827.51387,140.31896 828.71386,140.55896   C 828.95386,140.55896 829.19386,140.55896 829.11386,140.31896   C 827.99387,134.31901 829.43386,127.99905 832.95383,123.03909   C 835.43381,119.59911 839.03378,116.79913 843.11375,115.51914   C 842.95376,117.51913 843.11375,119.59911 843.67375,121.5191   C 844.79374,125.43907 847.99372,128.87905 852.31369,128.71905   C 855.75366,128.55905 858.15364,125.83907 858.63364,122.55909   C 859.11364,119.27912 857.75365,116.07914 855.11367,114.07915   C 852.63368,112.31917 849.67371,111.67917 846.71373,111.91917   C 849.03371,102.63924 857.75365,95.199295 867.19358,93.919304   C 867.27358,97.439278 868.39357,101.03925 870.79355,103.67923   C 873.35353,106.55921 877.7535,108.6392 881.43347,106.63921   C 884.55345,104.87922 885.27344,100.79925 883.99345,97.679276   C 882.63346,93.999304 878.71349,92.159317 875.11352,91.359323   C 873.51353,90.959326 871.91354,90.799327 870.31355,90.799327   C 871.19355,85.759365 874.63352,81.279398 878.31349,77.839423   C 883.75345,72.639462 890.23341,68.319494 897.03336,65.039518   C 898.79334,64.239524 900.47333,63.199532 902.23332,62.479537   C 902.87331,62.239539 902.55331,61.119547 901.91332,61.359545  " style="fill:#6b83cb;fill-rule:nonzero;fill-opacity:1;stroke:none;"/><path id="path75" d="  M 878.71349,95.759291   L 878.23349,96.559285   C 878.95349,97.039281 879.67348,97.679276 880.15348,98.399271   C 880.55348,99.119266 880.87348,99.91926 880.87348,100.71925   C 880.87348,101.19925 880.79348,101.67925 880.55348,102.15924   C 880.31348,102.71924 879.99348,103.03924 879.67348,103.27923   C 879.35349,103.51923 878.87349,103.59923 878.39349,103.59923   C 877.1935,103.59923 875.59351,102.95924 874.63352,102.15924   C 872.55354,100.47926 871.35355,97.839275 871.03355,95.119295   L 871.03355,95.119295   C 870.95355,94.639299 870.95355,94.159303 870.95355,93.679306   L 870.07356,93.679306   L 870.07356,94.5593   L 870.07356,94.5593   C 872.95353,94.5593 875.99351,95.039296 878.23349,96.559285   L 878.71349,95.759291   L 879.19349,95.039296   C 876.47351,93.359308 873.11353,92.799313 870.07356,92.799313   L 870.07356,92.799313   L 869.19356,92.799313   L 869.19356,93.679306   C 869.19356,94.239302 869.27356,94.719298 869.27356,95.279294   L 869.27356,95.279294   C 869.67356,98.319272 871.03355,101.43925 873.51353,103.51923   C 874.79352,104.47923 876.55351,105.27922 878.39349,105.35922   C 879.11349,105.35922 879.91348,105.19922 880.55348,104.79922   C 881.27347,104.39923 881.83347,103.67923 882.15347,102.87924   C 882.47346,102.15924 882.55346,101.43925 882.55346,100.71925   C 882.55346,99.519263 882.15347,98.399271 881.59347,97.439278   C 880.95347,96.479285 880.07348,95.679291 879.19349,95.039296   z  M 855.19367,118.55912   L 854.39367,118.87912   C 854.71367,119.59911 854.95367,120.47911 854.95367,121.2791   C 854.95367,122.39909 854.63367,123.43909 853.91367,124.15908   C 853.35368,124.71908 852.79368,124.95907 852.07369,124.95907   C 851.43369,124.95907 850.6337,124.71908 849.9937,124.31908   C 849.27371,123.91908 848.63371,123.35909 848.23372,122.71909   C 847.19372,121.2791 846.79373,119.27912 846.79373,117.27913   C 846.79373,116.47914 846.87373,115.75914 846.95373,114.95915   L 846.07373,114.87915   L 846.15373,115.75914   C 846.63373,115.67914 847.11373,115.67914 847.51372,115.67914   C 847.75372,115.67914 847.99372,115.67914 848.23372,115.67914   C 849.43371,115.75914 850.7937,115.99914 851.91369,116.55914   C 853.03368,117.11913 853.91367,117.83913 854.39367,118.87912   L 855.19367,118.55912   L 855.99366,118.15912   C 855.27366,116.63914 853.99367,115.67914 852.63368,114.95915   C 851.27369,114.31915 849.75371,113.99916 848.31372,113.91916   C 848.07372,113.91916 847.83372,113.91916 847.51372,113.91916   C 847.03373,113.91916 846.55373,113.99916 845.99373,113.99916   L 845.35374,114.07915   L 845.27374,114.79915   C 845.11374,115.59914 845.11374,116.39914 845.11374,117.27913   C 845.11374,119.51911 845.51374,121.8391 846.79373,123.75908   C 847.43372,124.55908 848.15372,125.27907 849.11371,125.83907   C 849.9937,126.31906 851.0337,126.71906 852.07369,126.71906   C 853.19368,126.71906 854.31367,126.31906 855.19367,125.35907   C 856.23366,124.23908 856.63365,122.71909 856.63365,121.2791   C 856.63365,120.23911 856.39366,119.11912 855.99366,118.15912   z  M 901.91332,61.359545   L 901.67332,60.479552   C 899.51334,61.119547 897.35335,61.599544 895.19337,62.399538   C 893.11338,63.199532 891.1134,64.079525 889.19341,65.119518   C 885.19344,67.359501 881.43347,69.999481 877.9935,72.95946   C 875.35352,75.279442 872.79353,77.919423 870.63355,80.879401   C 868.55357,83.839379 866.95358,87.199354 866.47358,90.799327   L 867.35358,90.959326   L 867.19358,90.079333   C 856.39366,91.359323 846.39373,99.599262 843.27375,110.07918   L 843.27375,110.07918   C 843.03376,110.79918 842.87376,111.51917 842.71376,112.23917   L 843.59375,112.39917   L 843.35375,111.51917   C 839.91378,112.39917 836.7138,114.15915 834.15382,116.23914   C 828.71386,120.8791 825.19389,127.83905 825.19389,135.039   C 825.19389,135.359 825.19389,135.67899 825.19389,135.91899   L 825.19389,135.91899   C 825.19389,136.71899 825.35389,137.51898 825.51389,138.31898   L 825.51389,138.31898   C 825.67388,139.03897 825.99388,139.75896 826.55388,140.31896   C 827.03387,140.87896 827.75387,141.27895 828.55386,141.35895   C 828.63386,141.43895 828.79386,141.43895 828.87386,141.43895   C 829.03386,141.43895 829.27386,141.43895 829.51386,141.27895   C 829.67385,141.19895 829.75385,141.03896 829.83385,140.87896   C 829.99385,140.71896 829.99385,140.55896 829.99385,140.39896   L 829.99385,140.23896   L 829.99385,140.23896   L 829.99385,140.15896   C 829.75385,138.87897 829.59385,137.59898 829.59385,136.23899   C 829.59385,131.75902 831.03384,127.19906 833.67382,123.51909   C 836.07381,120.23911 839.51378,117.51913 843.35375,116.31914   L 843.11375,115.51914   L 842.23376,115.43914   C 842.23376,115.99914 842.15376,116.55914 842.15376,117.03913   C 842.15376,118.63912 842.39376,120.23911 842.79376,121.7591   C 843.43375,123.83908 844.55374,125.75907 846.07373,127.19906   C 847.67372,128.63905 849.67371,129.59904 851.99369,129.59904   L 852.31369,129.59904   C 854.31367,129.51904 855.99366,128.63905 857.19365,127.43906   C 858.39364,126.15907 859.19364,124.47908 859.43363,122.71909   C 859.51363,122.1591 859.59363,121.6791 859.59363,121.1991   C 859.59363,118.15912 858.15364,115.27915 855.59366,113.43916   C 853.27368,111.67917 850.5537,110.95918 847.75372,110.95918   C 847.35372,110.95918 847.03373,111.03918 846.63373,111.03918   L 846.71373,111.91917   L 847.51372,112.07917   C 848.63371,107.6792 851.35369,103.67923 854.87367,100.55926   C 858.39364,97.519278 862.79361,95.359294 867.27358,94.799298   L 867.19358,93.919304   L 866.31358,93.919304   C 866.39358,97.599277 867.59357,101.43925 870.15355,104.31923   C 872.15354,106.47921 875.11352,108.2392 878.31349,108.3192   C 879.51349,108.3192 880.71348,107.9992 881.83347,107.3592   C 883.11346,106.63921 883.99345,105.67922 884.63345,104.47923   C 885.19344,103.27923 885.43344,101.99924 885.43344,100.71925   C 885.43344,99.599262 885.27344,98.399271 884.87345,97.359279   L 884.87345,97.359279   C 884.07345,95.279294 882.55346,93.759305 880.87348,92.719313   C 879.11349,91.599321 877.1935,90.879327 875.27352,90.47933   C 873.67353,90.079333 871.99354,89.919334 870.31355,89.919334   L 870.31355,90.799327   L 871.19355,90.959326   C 871.99354,86.239361 875.27352,81.839394 878.87349,78.479419   C 884.23345,73.359457 890.7134,69.119488 897.43335,65.839512   C 899.19334,64.959519 900.87333,63.999526 902.55331,63.279531   C 902.87331,63.199532 903.11331,62.959534 903.27331,62.719535   C 903.43331,62.479537 903.51331,62.239539 903.51331,61.999541   C 903.43331,61.599544 903.35331,61.279546 903.11331,60.959548   C 902.95331,60.71955 902.55331,60.399553 902.07332,60.399553   C 901.91332,60.399553 901.75332,60.479552 901.67332,60.479552   L 901.67332,60.479552   L 901.91332,61.359545   L 902.15332,62.15954   L 902.07332,61.839542   L 902.07332,62.15954   L 902.15332,62.15954   L 902.07332,61.839542   L 902.07332,62.15954   L 902.07332,61.839542   L 901.75332,61.999541   C 901.83332,62.07954 901.91332,62.15954 902.07332,62.15954   L 902.07332,61.839542   L 901.75332,61.999541   L 901.83332,61.999541   L 901.75332,61.999541   L 901.75332,61.999541   L 901.83332,61.999541   L 901.75332,61.999541   L 901.99332,61.999541   L 901.75332,61.839542   L 901.75332,61.999541   L 901.99332,61.999541   L 901.75332,61.839542   L 902.07332,61.999541   L 901.91332,61.679543   L 901.75332,61.839542   L 902.07332,61.999541   L 901.91332,61.679543   C 900.07333,62.479537 898.39335,63.43953 896.63336,64.319524   C 889.83341,67.599499 883.19346,71.919467 877.6735,77.199428   C 873.99353,80.719402 870.47355,85.279368 869.43356,90.639329   L 869.27356,91.599321   L 870.31355,91.679321   C 871.83354,91.679321 873.35353,91.83932 874.87352,92.159317   C 876.63351,92.559314 878.39349,93.19931 879.91348,94.159303   C 881.43347,95.119295 882.63346,96.319287 883.19346,97.999274   L 883.27346,98.079273   L 883.19346,97.999274   C 883.59345,98.799268 883.75345,99.759261 883.75345,100.71925   C 883.75345,101.75925 883.51346,102.79924 883.03346,103.67923   C 882.63346,104.55923 881.91347,105.35922 881.03347,105.83922   C 880.15348,106.31921 879.19349,106.55921 878.31349,106.55921   C 875.83351,106.55921 873.11353,105.03922 871.43354,103.11924   C 869.19356,100.63925 868.15357,97.279279 867.99357,93.919304   L 867.99357,92.959311   L 867.03358,93.039311   C 862.15361,93.759305 857.51365,95.999289 853.75368,99.279265   C 849.9137,102.55924 847.11373,106.87921 845.83373,111.67917   L 845.51374,112.79916   L 846.71373,112.71917   C 847.11373,112.71917 847.43372,112.71917 847.75372,112.71917   C 850.2337,112.71917 852.55368,113.35916 854.63367,114.79915   C 856.63365,116.31914 857.83365,118.71912 857.83365,121.1991   C 857.83365,121.5991 857.83365,121.9991 857.75365,122.39909   C 857.51365,123.91908 856.87365,125.27907 855.91366,126.23906   C 855.03367,127.19906 853.75368,127.75905 852.23369,127.83905   L 851.99369,127.83905   C 850.1537,127.83905 848.55371,127.11906 847.27372,125.91907   C 845.91373,124.71908 844.95374,123.03909 844.47374,121.2791   C 844.07375,119.91911 843.91375,118.55912 843.91375,117.03913   C 843.91375,116.55914 843.91375,116.07914 843.99375,115.59914   L 844.07375,114.31915   L 842.87376,114.63915   C 838.55379,115.99914 834.87382,118.95912 832.31383,122.55909   C 829.43386,126.55906 827.91387,131.35903 827.91387,136.23899   C 827.91387,137.67898 827.99387,139.11897 828.31386,140.47896   L 829.11386,140.31896   L 828.31386,140.47896   L 828.87386,140.39896   L 828.23386,140.39896   L 828.31386,140.47896   L 828.87386,140.39896   L 828.23386,140.39896   L 828.95386,140.39896   L 828.39386,140.07896   C 828.31386,140.15896 828.23386,140.31896 828.23386,140.39896   L 828.95386,140.39896   L 828.39386,140.07896   L 828.95386,140.39896   L 828.71386,139.75896   C 828.63386,139.75896 828.47386,139.83896 828.39386,140.07896   L 828.95386,140.39896   L 828.71386,139.75896   L 828.87386,140.15896   L 828.87386,139.67897   L 828.71386,139.75896   L 828.87386,140.15896   L 828.87386,139.67897   L 828.87386,139.67897   C 828.47386,139.59897 828.07387,139.43897 827.83387,139.11897   C 827.51387,138.79897 827.27387,138.39897 827.19387,137.99898   L 827.19387,137.99898   C 827.03387,137.19898 826.95387,136.47899 826.95387,135.83899   L 826.95387,135.83899   C 826.95387,135.599 826.87388,135.359 826.87388,135.039   C 826.87388,128.47905 830.23385,121.8391 835.27381,117.59913   C 837.5938,115.59914 840.63377,113.99916 843.75375,113.19916   L 844.31375,113.11916   L 844.39375,112.55917   C 844.55374,111.83917 844.71374,111.19918 844.95374,110.55918   L 844.95374,110.55918   C 847.83372,100.79925 857.27365,92.959311 867.43357,91.83932   L 868.07357,91.75932   L 868.15357,91.039326   C 868.63357,87.75935 870.07356,84.639373 872.07354,81.839394   C 874.07353,79.039415 876.55351,76.479433 879.11349,74.23945   C 882.47346,71.359471 886.15344,68.79949 889.99341,66.639506   C 891.83339,65.679513 893.83338,64.79952 895.83336,64.079525   C 897.83335,63.279531 899.91333,62.799535 902.15332,62.15954   L 902.15332,62.15954   L 901.91332,61.359545  " style="fill:#6b83cb;fill-rule:nonzero;fill-opacity:1;stroke:none;"/><path id="path77" d="  M 456.95662,62.399538   C 457.43661,62.719535 457.99661,63.199532 458.07661,63.839527   C 458.23661,64.639521 457.59661,65.279516 456.95662,65.679513   C 455.43663,66.799505 453.19664,67.4395 451.35666,67.919497   C 451.03666,67.999496 450.71666,67.999496 450.39666,68.079496   C 451.35666,64.879519 453.43664,60.399553 456.95662,62.399538   z  M 490.55637,88.799342   C 490.31637,84.319375 486.3164,81.279398 482.31643,80.079407   C 477.51646,78.719417 472.7165,79.67941 467.91653,80.559403   C 463.59657,81.359397 459.0366,81.919393 454.87663,80.079407   C 453.19664,79.359412 451.59665,78.159421 450.79666,76.479433   C 449.91667,74.799446 449.75667,72.95946 449.91667,71.119473   C 450.07667,71.119473 450.23666,71.039474 450.39666,71.039474   C 452.63665,70.559477 454.87663,69.919482 456.95662,68.959489   C 459.0366,67.999496 461.11658,66.239509 460.95659,63.759528   C 460.79659,61.519544 458.9566,59.919556 456.95662,59.35956   C 454.55663,58.639566 452.23665,59.599559 450.55666,61.439545   C 448.79668,63.279531 447.99668,65.839512 447.43669,68.239495   L 447.35669,68.559492   C 440.63674,69.439486 433.75679,68.159495 427.67683,65.039518   C 418.8769,60.479552 412.23695,51.679617 412.15695,41.519692   C 412.15695,41.199695 411.51695,41.119695 411.43695,41.439693   C 408.71697,51.199621 416.15692,61.039548 423.99686,66.079511   C 430.71681,70.399479 438.95675,72.399464 446.95669,71.59947   C 446.87669,73.119458 447.03669,74.719447 447.51669,76.239435   C 449.03667,80.879401 453.67664,83.359383 458.23661,83.999378   C 467.67654,85.439367 479.59645,77.919423 487.27639,86.39936   C 487.99639,87.199354 488.47638,88.239346 488.79638,89.279339   C 489.11638,90.319331 490.63637,89.759335 490.55637,88.799342  " style="fill:#f3ba4a;fill-rule:nonzero;fill-opacity:1;stroke:none;"/><path id="path79" d="  M 826.95387,389.75711   C 827.35387,389.19712 827.91387,388.63712 828.55386,388.55712   C 829.51386,388.39712 830.23385,389.19712 830.63385,389.91711   C 831.83384,391.7571 832.39383,394.23708 832.79383,396.31706   C 832.87383,396.71706 832.87383,397.03706 832.95383,397.43706   C 829.43386,396.23706 824.47389,393.59708 826.95387,389.75711   z  M 858.71364,353.51738   C 853.67368,353.59738 849.9937,357.83735 848.39372,362.31732   C 846.55373,367.59728 847.35372,373.11724 848.07372,378.5572   C 848.63371,383.43716 849.03371,388.55712 846.71373,393.11709   C 845.75374,394.95707 844.31375,396.71706 842.39376,397.59705   C 840.47377,398.47705 838.39379,398.55705 836.31381,398.23705   C 836.31381,398.07705 836.31381,397.83705 836.23381,397.67705   C 835.91381,395.11707 835.27381,392.55709 834.31382,390.15711   C 833.35383,387.67713 831.51384,385.27715 828.71386,385.27715   C 826.23388,385.35715 824.23389,387.35713 823.5139,389.51711   C 822.55391,392.23709 823.5139,394.87707 825.43389,396.87706   C 827.43387,398.95704 830.23385,400.07704 832.95383,400.79703   C 833.11383,400.87703 833.19383,400.87703 833.35383,400.95703   C 833.83382,408.55697 831.99384,416.23692 828.15387,422.79687   C 822.47391,432.4768 812.07398,439.35675 800.71407,438.87675   C 800.31407,438.87675 800.15407,439.51674 800.55407,439.67674   C 811.35399,443.35672 822.9539,435.51677 829.03386,427.03684   C 834.31382,419.75689 837.0338,410.55696 836.6338,401.51703   C 838.39379,401.67702 840.23378,401.59703 841.91376,401.19703   C 847.27372,399.75704 850.3137,394.63708 851.35369,389.59711   C 853.51368,379.03719 845.83373,365.19729 855.75366,357.11735   C 856.79365,356.31736 857.99364,355.83736 859.19364,355.51737   C 860.39363,355.19737 859.83363,353.51738 858.71364,353.51738  " style="fill:#f57c14;fill-rule:nonzero;fill-opacity:1;stroke:none;"/><path id="path81" d="  M 60.159554,641.59525   C 48.63964,641.59525 35.919734,640.31526 29.279783,631.11533   C 35.839735,621.1154 49.759631,619.59541 61.759543,619.51541   C 63.919527,619.43541 66.079511,619.43541 68.239495,619.43541   C 95.039296,619.43541 121.9191,621.1154 148.7989,622.71539   C 175.5987,624.31538 202.3985,625.99536 229.1983,625.99536   C 246.95817,625.99536 264.71804,625.27537 282.39791,623.35538   C 286.15788,623.91538 287.35787,630.23533 284.55789,633.27531   C 281.51791,636.47529 276.55795,636.87528 272.15798,637.03528   C 202.2385,639.19527 132.39902,640.71525 62.479537,641.59525   C 61.679543,641.59525 60.959548,641.59525 60.159554,641.59525   z  M 282.39791,623.35538   C 282.15791,623.27538 281.99791,623.27538 281.75791,623.27538   C 281.67791,623.27538 281.67791,623.27538 281.59791,623.27538   L 291.83784,622.15539   C 288.71786,622.63539 285.51789,622.95539 282.39791,623.35538   z " style="fill:#f7ecd9;fill-rule:nonzero;fill-opacity:1;stroke:none;"/><path id="path83" d="  M 279.11793,605.91551   L 267.19802,572.23576   L 284.79789,553.8359   L 297.1178,590.63562   L 279.11793,605.91551  z " style="fill:#d86743;fill-rule:nonzero;fill-opacity:1;stroke:none;"/><path id="path85" d="  M 338.1575,586.55566   C 333.59753,583.99567 325.35759,585.83566 318.87764,587.99564   C 311.91769,590.31563 304.55774,591.27562 297.2778,590.63562   L 297.1178,590.63562   L 278.39794,604.63552   L 287.35787,628.79534   L 287.99787,629.35534   L 341.11747,589.35563   L 338.1575,586.55566   z " style="fill:#357faa;fill-rule:nonzero;fill-opacity:1;stroke:none;"/><path id="path87" d="  M 238.39823,414.23693   L 185.75862,344.55745   L 129.99904,398.07705   L 201.11851,467.19654   L 187.51861,475.43648   L 245.03818,593.6756   L 300.23778,565.35581   L 259.83808,453.67664   C 254.71811,439.51674 247.51817,426.23684 238.39823,414.23693   z " style="fill:#f0421e;fill-rule:nonzero;fill-opacity:1;stroke:none;"/><path id="path89" d="  M 99.999259,613.19546   L 116.07914,581.27569   L 141.51895,581.27569   L 123.35909,613.19546   L 99.999259,613.19546  z " style="fill:#d86743;fill-rule:nonzero;fill-opacity:1;stroke:none;"/><path id="path91" d="  M 211.43843,444.71671   L 199.03853,363.67731   C 193.19857,364.6373 187.43861,365.51729 181.75865,366.55728   C 180.15867,366.79728 178.55868,367.11728 176.95869,367.43728   C 165.75877,371.43725 154.63885,375.43722 143.35894,379.19719   C 141.75895,379.91719 140.15896,380.63718 138.55897,381.35718   C 136.55899,382.23717 125.59907,386.31714 123.51909,387.19713   C 128.87905,410.79696 141.19895,445.8367 137.19898,460.55659   C 125.67907,503.59627 85.279368,593.6756 85.279368,593.6756   L 147.59891,595.59559   L 207.59846,466.47654   C 208.87845,464.39656 209.91845,462.15658 210.71844,459.75659   L 210.71844,459.67659   L 210.71844,459.67659   C 212.15843,454.95663 212.55843,449.91667 211.43843,444.71671   z " style="fill:#f0421e;fill-rule:nonzero;fill-opacity:1;stroke:none;"/><path id="path93" d="  M 158.63882,634.6353   C 156.47884,629.91533 148.7989,626.39536 142.31895,624.23538   C 135.359,621.91539 128.87905,618.23542 123.43909,613.35546   L 123.35909,613.19546   L 99.999259,613.19546   L 87.519352,638.71527   L 159.27882,638.71527   L 158.63882,634.6353   z " style="fill:#357faa;fill-rule:nonzero;fill-opacity:1;stroke:none;"/><path id="path95" d="  M 198.39853,489.35638   L 208.79845,467.03654   L 207.59846,466.47654   L 208.71845,467.19654   C 210.07844,465.03656 211.19844,462.63657 211.99843,460.15659   L 210.71844,459.75659   L 211.91843,460.31659   L 211.91843,460.23659   L 212.71842,458.4766   L 210.87844,458.31661   L 210.71844,459.67659   L 211.99843,460.07659   C 212.95842,457.11661 213.43842,453.99664 213.43842,450.79666   C 213.43842,448.71668 213.19842,446.55669 212.79842,444.47671   L 211.43843,444.71671   L 212.79842,444.47671   L 205.03848,400.31703   L 202.3985,400.79703   L 210.15844,444.9567   L 210.15844,444.9567   C 210.55844,446.95669 210.79844,448.87667 210.79844,450.79666   C 210.79844,453.67664 210.31844,456.55662 209.43845,459.2766   L 208.95845,460.87659   L 210.63844,460.95659   L 210.71844,459.67659   L 209.51845,459.1166   L 209.51845,459.1966   L 209.43845,459.2766   L 209.43845,459.3566   C 208.71845,461.59658 207.67846,463.75656 206.39847,465.75655   L 206.39847,465.83655   L 195.99855,488.23638   L 198.39853,489.35638   z " style="fill:#f4a00f;fill-rule:nonzero;fill-opacity:1;stroke:none;"/><path id="path97" d="  M 96.559285,152.39887   C 94.959297,153.43886 93.439308,154.79885 92.159317,156.47884   C 80.399404,171.19873 92.239317,195.27855 105.83922,205.03848   C 113.27916,210.39844 123.43909,212.07843 131.59903,207.67846   C 143.43894,201.35851 145.43892,186.71862 141.27895,174.47871   C 138.15898,165.35878 131.75902,157.19884 123.35909,152.71887   C 114.95915,148.2389 104.31923,147.27891 96.559285,152.39887   z " style="fill:#d86743;fill-rule:nonzero;fill-opacity:1;stroke:none;"/><path id="path99" d="  M 95.83929,190.23859   L 104.15923,234.39826   C 105.59922,242.5582 113.11916,248.23816 121.3591,247.27817   C 130.87903,246.23818 137.19898,236.95824 134.799,227.67831   L 124.31908,187.03861   L 95.83929,190.23859   z " style="fill:#d86743;fill-rule:nonzero;fill-opacity:1;stroke:none;"/><path id="path101" d="  M 131.35903,214.47841   L 129.91904,208.47846   C 129.91904,208.47846 118.23912,213.83842 105.83922,205.03848   C 105.83922,205.03848 113.67916,215.7584 131.35903,214.47841   z " style="fill:#1b1c3e;fill-rule:nonzero;fill-opacity:1;stroke:none;"/><path id="path103" d="  M 94.5593,166.71877   C 98.639269,164.23878 114.39915,158.07883 131.99902,159.27882   L 127.27906,143.19894   C 127.27906,143.19894 97.359279,139.43897 78.23942,157.51883   L 88.639343,187.43861   C 88.639343,187.43861 89.839335,186.71862 92.319316,185.35863   C 93.519307,186.15862 102.39924,186.15862 94.5593,166.71877   z " style="fill:#14110f;fill-rule:nonzero;fill-opacity:1;stroke:none;"/><path id="path105" d="  M 100.31926,197.99853   C 98.319272,200.63851 94.319301,202.1585 90.959326,201.43851   C 87.679351,200.79851 84.719372,198.15853 83.439382,194.79856   C 82.31939,191.75858 82.639388,188.15861 84.639373,185.99862   C 86.719358,183.75864 90.799327,183.35864 93.039311,185.59863   L 100.31926,197.99853   z " style="fill:#d86743;fill-rule:nonzero;fill-opacity:1;stroke:none;"/><path id="path107" d="  M 93.039311,193.51857   C 92.719313,193.59857 92.399316,193.67857 92.159317,193.67857   C 91.599321,193.67857 91.039326,193.51857 90.639329,193.27857   C 90.239332,192.95857 89.999333,192.63857 89.919334,192.23858   L 89.839335,191.91858   C 89.839335,191.35858 90.319331,190.63859 91.039326,190.15859   C 91.359323,189.99859 91.439323,189.5986 91.279324,189.2786   C 91.119325,188.9586 90.719328,188.8786 90.39933,189.0386   C 89.359338,189.75859 88.559344,190.79859 88.559344,191.91858   C 88.559344,192.15858 88.639343,192.39857 88.639343,192.55857   C 88.879342,193.27857 89.359338,193.91856 89.919334,194.31856   C 90.559329,194.71856 91.359323,194.95856 92.159317,194.95856   C 92.559314,194.95856 92.959311,194.87856 93.279309,194.79856   C 93.679306,194.71856 93.839305,194.39856 93.759305,193.99856   C 93.679306,193.67857 93.359308,193.43857 93.039311,193.51857   z " style="fill:#0d1015;fill-rule:nonzero;fill-opacity:1;stroke:none;"/><path id="path109" d="  M 131.75902,186.07862   L 134.23901,181.83865   L 133.67901,181.51866   C 132.87902,181.11866 131.75902,180.07867 130.87903,179.19867   C 130.47903,178.79868 130.07904,178.39868 129.83904,178.07868   C 129.51904,177.75868 129.43904,177.59868 129.35904,177.59868   C 129.19904,177.27869 128.79905,177.27869 128.47905,177.51869   C 128.23905,177.75868 128.15905,178.15868 128.39905,178.39868   C 128.39905,178.39868 129.11904,179.19867 129.99904,180.15867   C 130.87903,181.03866 131.99902,182.07865 133.03901,182.63865   L 133.35901,182.07865   L 132.79902,181.75865   L 130.63903,185.43863   C 130.47903,185.75862 130.55903,186.15862 130.87903,186.31862   C 131.11903,186.47862 131.51903,186.39862 131.75902,186.07862   z " style="fill:#0d1015;fill-rule:nonzero;fill-opacity:1;stroke:none;"/><path id="path111" d="  M 120.15911,174.79871   C 120.79911,176.1587 121.1991,177.59868 121.3591,179.11867   C 121.3591,179.91867 121.2791,180.79866 120.79911,181.59865   C 120.31911,182.39865 119.43912,182.87865 118.55912,182.95864   C 117.67913,183.03864 116.79913,182.79865 116.07914,182.31865   C 115.35915,181.83865 114.79915,181.27866 114.39915,180.63866   C 113.43916,179.43867 112.79916,178.07868 112.39917,176.55869   C 112.31917,176.39869 112.39917,176.1587 112.63917,176.0787   C 112.79916,175.9987 113.03916,176.1587 113.11916,176.31869   L 113.11916,176.31869   C 113.67916,177.59868 114.39915,178.87867 115.27915,179.91867   C 116.15914,180.95866 117.27913,181.83865 118.39912,181.67865   C 118.95912,181.59865 119.51911,181.35866 119.83911,180.95866   C 120.07911,180.47866 120.15911,179.83867 120.23911,179.11867   C 120.23911,177.83868 119.91911,176.39869 119.51911,175.0387   L 119.51911,175.0387   C 119.43912,174.79871 119.51911,174.63871 119.67911,174.55871   C 119.83911,174.55871 120.07911,174.63871 120.15911,174.79871   z " style="fill:#0d1015;fill-rule:nonzero;fill-opacity:1;stroke:none;"/><path id="path113" d="  M 137.51898,169.67874   C 138.07898,170.79873 138.47897,171.99873 138.63897,173.27872   C 138.63897,173.91871 138.63897,174.63871 138.31898,175.3587   C 137.99898,176.1587 137.19898,176.63869 136.39899,176.71869   C 135.599,176.79869 134.799,176.47869 134.23901,176.0787   C 133.75901,175.5987 133.27901,175.1187 132.87902,174.55871   C 132.23902,173.51871 131.67902,172.31872 131.35903,171.11873   C 131.27903,170.87873 131.43903,170.63874 131.67902,170.63874   C 131.83902,170.55874 132.07902,170.63874 132.15902,170.79873   L 132.15902,170.87873   C 132.63902,171.91873 133.19901,172.95872 133.91901,173.91871   C 134.559,174.79871 135.439,175.5987 136.31899,175.4387   C 136.71899,175.4387 137.03898,175.2787 137.19898,174.8787   C 137.43898,174.47871 137.51898,173.91871 137.51898,173.35872   C 137.43898,172.23872 137.19898,171.03873 136.87899,169.91874   L 136.87899,169.83874   C 136.87899,169.67874 136.95899,169.51874 137.11898,169.43874   C 137.27898,169.43874 137.43898,169.51874 137.51898,169.67874   z " style="fill:#0d1015;fill-rule:nonzero;fill-opacity:1;stroke:none;"/><path id="path115" d="  M 126.95906,187.67861   L 126.95906,187.03861   C 125.83907,187.03861 124.87907,187.59861 124.23908,188.31861   C 123.59908,189.0386 123.27909,189.99859 123.27909,190.95859   C 123.27909,191.59858 123.51909,192.31858 123.91908,192.95857   C 124.31908,193.59857 124.95907,194.07856 125.75907,194.31856   C 126.15907,194.39856 126.47906,194.47856 126.87906,194.47856   C 127.59905,194.47856 128.39905,194.31856 129.03904,193.83856   C 129.75904,193.35857 130.31903,192.55857 130.63903,191.51858   C 130.71903,191.27858 130.71903,190.95859 130.71903,190.71859   C 130.71903,189.91859 130.47903,189.0386 129.91904,188.31861   C 129.35904,187.59861 128.39905,187.03861 127.11906,187.03861   L 126.95906,187.03861   L 126.95906,187.03861   L 126.95906,187.03861   L 126.95906,187.67861   L 126.95906,188.31861   L 127.11906,188.31861   C 127.99905,188.31861 128.55905,188.6386 128.95904,189.1186   C 129.27904,189.5986 129.43904,190.23859 129.43904,190.71859   C 129.43904,190.87859 129.43904,191.03858 129.43904,191.19858   C 129.19904,191.99858 128.79905,192.47857 128.31905,192.79857   C 127.91905,193.03857 127.35906,193.19857 126.87906,193.19857   C 126.63906,193.19857 126.39906,193.19857 126.15907,193.11857   C 125.59907,192.95857 125.19907,192.63857 124.95907,192.23858   C 124.71908,191.83858 124.55908,191.43858 124.55908,190.95859   C 124.55908,190.31859 124.79908,189.5986 125.19907,189.1186   C 125.59907,188.6386 126.23906,188.31861 126.95906,188.31861   L 126.95906,188.31861   L 126.95906,188.31861   L 126.95906,187.67861   z " style="fill:#0d1015;fill-rule:nonzero;fill-opacity:1;stroke:none;"/><path id="path117" d="  M 198.71853,181.99865   L 169.03875,112.95916   L 181.43866,106.87921   L 229.4383,177.03869   C 232.15828,183.03864 230.31829,189.5186 226.71832,195.27855   L 226.63832,195.51855   C 219.75837,208.15846 158.79882,247.99816 158.79882,247.99816   L 151.99887,214.23841   L 198.71853,181.99865   z " style="fill:#d86743;fill-rule:nonzero;fill-opacity:1;stroke:none;"/><path id="path119" d="  M 174.8787,121.1191   C 171.51873,119.03912 156.15884,105.99921 151.83888,106.79921   C 151.51888,105.99921 151.75888,104.47923 152.71887,103.83923   C 156.71884,101.51925 161.4388,103.19924 161.4388,103.19924   C 161.4388,103.19924 152.55887,82.719387 154.55886,82.31939   C 156.55884,81.919393 160.39881,91.919319 160.39881,91.919319   C 160.39881,91.919319 155.43885,77.759424 157.51883,77.999422   C 158.31883,78.079422 157.75883,80.319405 162.95879,88.079348   C 162.95879,88.079348 159.43882,75.119444 161.5988,76.479433   C 164.31878,78.159421 166.87876,85.759365 166.87876,85.759365   C 166.87876,85.759365 165.91877,76.879431 167.59876,78.079422   C 168.79875,78.959415 182.55865,108.2392 186.55862,115.11915   C 184.87863,116.79913 175.1987,121.7591 174.8787,121.1191   z " style="fill:#d86743;fill-rule:nonzero;fill-opacity:1;stroke:none;"/><path id="path121" d="  M 162.0788,103.91923   L 162.0788,103.75923   L 162.0788,103.91923   L 162.0788,103.91923   L 162.0788,103.75923   L 162.0788,103.91923   C 162.1588,103.91923 162.87879,103.67923 163.99879,103.67923   C 165.91877,103.67923 168.87875,104.23923 171.83873,107.4392   L 173.03872,106.23921   C 169.83874,102.71924 166.23877,101.99924 163.99879,101.99924   C 162.5588,101.99924 161.6788,102.23924 161.5988,102.23924   L 162.0788,103.91923   z " style="fill:#ae4b1e;fill-rule:nonzero;fill-opacity:1;stroke:none;"/><path id="path123" d="  M 223.59834,268.47801   L 226.63832,272.47798   C 228.79831,275.27796 230.0783,278.71794 230.39829,282.23791   L 234.39826,330.95755   C 234.55826,333.75753 232.55828,336.15751 229.7583,336.39751   C 227.19832,336.55751 224.95833,334.63752 224.39834,332.15754   C 223.91834,329.91756 223.27835,326.95758 222.55835,323.5176   C 223.11835,322.47761 223.19835,320.95762 222.79835,319.27763   C 222.47835,317.75765 221.75836,316.55766 220.95836,315.75766   C 220.47837,313.75768 220.07837,311.59769 219.59837,309.35771   C 220.31837,308.39772 220.55837,306.55773 220.07837,304.63774   C 219.67837,302.95776 218.79838,301.51777 217.83839,300.87777   C 217.43839,298.95779 217.03839,297.0378 216.5584,295.11781   C 217.51839,294.23782 217.83839,292.23784 217.35839,290.07785   C 216.87839,288.07787 215.8384,286.55788 214.71841,285.99788   C 214.23841,283.9179 213.75842,281.75791 213.35842,279.59793   L 213.35842,279.59793   C 214.87841,279.27793 215.5184,276.79795 214.95841,274.15797   C 214.31841,271.59799 212.71842,269.758 211.27843,269.918   C 210.87844,267.83802 210.39844,265.75803 209.99844,263.67805   L 210.15844,263.67805   C 211.59843,263.35805 212.31843,260.87807 211.67843,258.23809   C 211.03844,255.59811 209.35845,253.75812 207.91846,253.99812   C 207.35846,251.27814 206.79847,248.55816 206.23847,245.83818   C 207.19847,245.03818 207.59846,242.9582 207.11847,240.71822   C 206.55847,238.63823 205.43848,237.03824 204.23849,236.55825   C 203.83849,234.71826 203.43849,232.79828 203.1185,230.95829   L 203.19849,230.95829   C 204.39849,230.63829 204.79848,228.55831 204.15849,226.39832   C 203.59849,224.55834 202.4785,223.27835 201.43851,223.03835   C 200.79851,220.31837 200.31852,217.75839 199.75852,215.27841   C 200.55851,214.79841 200.79851,213.27842 200.31852,211.67843   C 199.91852,210.39844 199.19852,209.43845 198.47853,209.03845   C 196.87854,201.75851 195.83855,196.71854 195.51855,195.27855   C 193.67857,186.55862 186.15862,185.35863 186.15862,185.35863   L 145.75892,185.51863   L 152.79887,190.95859   L 178.39868,191.43858   C 181.83865,191.51858 184.63863,193.91856 185.35863,197.19854   L 212.95842,338.79749   C 212.95842,338.79749 214.63841,365.19729 227.67831,370.95725   C 240.71822,376.71721 250.95814,368.55727 252.87813,360.15733   C 254.31812,353.75738 256.6381,312.95768 257.67809,293.75782   C 257.99809,287.59787 261.43806,281.91791 266.79802,278.71794   C 268.79801,277.59794 268.31801,274.55797 266.07803,273.99797   L 225.91833,264.79804   C 223.83834,264.31804 222.31835,266.71802 223.59834,268.47801   z " style="fill:#f4a00f;fill-rule:nonzero;fill-opacity:1;stroke:none;"/><path id="path125" d="  M 154.55886,185.19863   L 156.71884,190.95859   C 156.71884,190.95859 150.07889,191.91858 147.9189,191.43858   C 145.75892,190.95859 143.11894,186.71862 141.11895,186.23862   C 139.19897,185.75862 137.75898,185.19863 137.75898,185.19863   L 154.55886,185.19863   z " style="fill:#060707;fill-rule:nonzero;fill-opacity:1;stroke:none;"/><path id="path127" d="  M 223.67834,380.55718   C 223.11835,349.43741 194.39856,316.87765 185.43863,293.99782   C 179.51867,279.03793 174.63871,266.39803 169.83874,255.9181   L 183.19864,245.35818   C 183.19864,245.35818 187.19861,223.67834 170.23874,196.63854   C 170.23874,196.63854 119.99911,220.31837 115.67914,222.87835   C 109.35919,226.15832 87.199354,232.15828 95.519292,275.99796   C 95.519292,275.99796 97.999274,418.0769 134.799,419.59689   C 144.55893,419.99689 159.35882,398.87705 186.23862,399.59704   C 226.31832,400.55703 223.83834,390.39711 223.67834,380.55718   z " style="fill:#f796a6;fill-rule:nonzero;fill-opacity:1;stroke:none;"/><path id="path129" d="  M 214.71841,273.19798   C 213.99841,271.59799 215.6784,268.07801 210.79844,267.59802   C 203.75849,266.87802 193.19857,262.79805 178.31868,270.318   C 177.51869,270.638 176.79869,271.03799 176.1587,271.51799   C 175.9987,271.51799 175.9187,271.59799 175.7587,271.67799   L 175.8387,271.67799   C 175.1187,272.15798 174.47871,272.63798 173.83871,273.19798   C 165.99877,280.47792 152.47887,292.07784 137.67898,305.67774   L 137.35898,271.43799   L 95.199295,278.79793   C 95.199295,278.79793 100.23926,363.51731 106.31921,370.07726   C 112.23917,376.55721 126.15907,369.83726 133.83901,359.27734   L 189.91859,279.67793   C 189.91859,279.67793 211.59843,285.03789 214.79841,278.63794   C 217.99839,272.23798 215.3584,274.63797 214.71841,273.19798   z " style="fill:#d86743;fill-rule:nonzero;fill-opacity:1;stroke:none;"/><path id="path131" d="  M 137.35898,304.87774   L 120.63911,320.71762   L 121.8391,321.99761   L 138.55897,306.07773   z " style="fill:#ae4b1e;fill-rule:nonzero;fill-opacity:1;stroke:none;"/><path id="path133" d="  M 135.99899,241.27821   L 138.63897,241.67821   L 138.87897,288.87786   C 138.87897,288.87786 127.75905,307.03773 96.319287,312.15769   L 93.839305,255.67811   C 104.71922,244.31819 120.39911,238.95823 135.99899,241.27821   z " style="fill:#f796a6;fill-rule:nonzero;fill-opacity:1;stroke:none;"/><path id="path135" d="  M 131.83902,250.71814   C 134.15901,257.27809 135.439,267.03802 136.15899,275.11796   C 136.55899,279.19793 136.71899,282.79791 136.87899,285.35789   C 136.95899,286.71788 136.95899,287.75787 136.95899,288.47786   C 137.03898,289.19786 137.03898,289.59785 137.03898,289.59785   C 137.03898,290.31785 137.59898,290.87785 138.39897,290.87785   C 139.11897,290.87785 139.67897,290.23785 139.67897,289.51786   C 139.67897,289.51786 139.51897,283.0379 138.79897,274.87796   C 138.07898,266.71802 136.79899,256.8781 134.399,249.83815   C 134.15901,249.11815 133.35901,248.79816 132.71902,249.03816   C 131.99902,249.27815 131.59903,249.99815 131.83902,250.71814   z " style="fill:#3bac95;fill-rule:nonzero;fill-opacity:1;stroke:none;"/></g><path id="path-1" d="  M 878.71349,95.759291   L 878.23349,96.559285   C 878.95349,97.039281 879.67348,97.679276 880.15348,98.399271   C 880.55348,99.119266 880.87348,99.91926 880.87348,100.71925   C 880.87348,101.19925 880.79348,101.67925 880.55348,102.15924   C 880.31348,102.71924 879.99348,103.03924 879.67348,103.27923   C 879.35349,103.51923 878.87349,103.59923 878.39349,103.59923   C 877.1935,103.59923 875.59351,102.95924 874.63352,102.15924   C 872.55354,100.47926 871.35355,97.839275 871.03355,95.119295   L 871.03355,95.119295   C 870.95355,94.639299 870.95355,94.159303 870.95355,93.679306   L 870.07356,93.679306   L 870.07356,94.5593   L 870.07356,94.5593   C 872.95353,94.5593 875.99351,95.039296 878.23349,96.559285   L 878.71349,95.759291   L 879.19349,95.039296   C 876.47351,93.359308 873.11353,92.799313 870.07356,92.799313   L 870.07356,92.799313   L 869.19356,92.799313   L 869.19356,93.679306   C 869.19356,94.239302 869.27356,94.719298 869.27356,95.279294   L 869.27356,95.279294   C 869.67356,98.319272 871.03355,101.43925 873.51353,103.51923   C 874.79352,104.47923 876.55351,105.27922 878.39349,105.35922   C 879.11349,105.35922 879.91348,105.19922 880.55348,104.79922   C 881.27347,104.39923 881.83347,103.67923 882.15347,102.87924   C 882.47346,102.15924 882.55346,101.43925 882.55346,100.71925   C 882.55346,99.519263 882.15347,98.399271 881.59347,97.439278   C 880.95347,96.479285 880.07348,95.679291 879.19349,95.039296   z  M 855.19367,118.55912   L 854.39367,118.87912   C 854.71367,119.59911 854.95367,120.47911 854.95367,121.2791   C 854.95367,122.39909 854.63367,123.43909 853.91367,124.15908   C 853.35368,124.71908 852.79368,124.95907 852.07369,124.95907   C 851.43369,124.95907 850.6337,124.71908 849.9937,124.31908   C 849.27371,123.91908 848.63371,123.35909 848.23372,122.71909   C 847.19372,121.2791 846.79373,119.27912 846.79373,117.27913   C 846.79373,116.47914 846.87373,115.75914 846.95373,114.95915   L 846.07373,114.87915   L 846.15373,115.75914   C 846.63373,115.67914 847.11373,115.67914 847.51372,115.67914   C 847.75372,115.67914 847.99372,115.67914 848.23372,115.67914   C 849.43371,115.75914 850.7937,115.99914 851.91369,116.55914   C 853.03368,117.11913 853.91367,117.83913 854.39367,118.87912   L 855.19367,118.55912   L 855.99366,118.15912   C 855.27366,116.63914 853.99367,115.67914 852.63368,114.95915   C 851.27369,114.31915 849.75371,113.99916 848.31372,113.91916   C 848.07372,113.91916 847.83372,113.91916 847.51372,113.91916   C 847.03373,113.91916 846.55373,113.99916 845.99373,113.99916   L 845.35374,114.07915   L 845.27374,114.79915   C 845.11374,115.59914 845.11374,116.39914 845.11374,117.27913   C 845.11374,119.51911 845.51374,121.8391 846.79373,123.75908   C 847.43372,124.55908 848.15372,125.27907 849.11371,125.83907   C 849.9937,126.31906 851.0337,126.71906 852.07369,126.71906   C 853.19368,126.71906 854.31367,126.31906 855.19367,125.35907   C 856.23366,124.23908 856.63365,122.71909 856.63365,121.2791   C 856.63365,120.23911 856.39366,119.11912 855.99366,118.15912   z  M 901.91332,61.359545   L 901.67332,60.479552   C 899.51334,61.119547 897.35335,61.599544 895.19337,62.399538   C 893.11338,63.199532 891.1134,64.079525 889.19341,65.119518   C 885.19344,67.359501 881.43347,69.999481 877.9935,72.95946   C 875.35352,75.279442 872.79353,77.919423 870.63355,80.879401   C 868.55357,83.839379 866.95358,87.199354 866.47358,90.799327   L 867.35358,90.959326   L 867.19358,90.079333   C 856.39366,91.359323 846.39373,99.599262 843.27375,110.07918   L 843.27375,110.07918   C 843.03376,110.79918 842.87376,111.51917 842.71376,112.23917   L 843.59375,112.39917   L 843.35375,111.51917   C 839.91378,112.39917 836.7138,114.15915 834.15382,116.23914   C 828.71386,120.8791 825.19389,127.83905 825.19389,135.039   C 825.19389,135.359 825.19389,135.67899 825.19389,135.91899   L 825.19389,135.91899   C 825.19389,136.71899 825.35389,137.51898 825.51389,138.31898   L 825.51389,138.31898   C 825.67388,139.03897 825.99388,139.75896 826.55388,140.31896   C 827.03387,140.87896 827.75387,141.27895 828.55386,141.35895   C 828.63386,141.43895 828.79386,141.43895 828.87386,141.43895   C 829.03386,141.43895 829.27386,141.43895 829.51386,141.27895   C 829.67385,141.19895 829.75385,141.03896 829.83385,140.87896   C 829.99385,140.71896 829.99385,140.55896 829.99385,140.39896   L 829.99385,140.23896   L 829.99385,140.23896   L 829.99385,140.15896   C 829.75385,138.87897 829.59385,137.59898 829.59385,136.23899   C 829.59385,131.75902 831.03384,127.19906 833.67382,123.51909   C 836.07381,120.23911 839.51378,117.51913 843.35375,116.31914   L 843.11375,115.51914   L 842.23376,115.43914   C 842.23376,115.99914 842.15376,116.55914 842.15376,117.03913   C 842.15376,118.63912 842.39376,120.23911 842.79376,121.7591   C 843.43375,123.83908 844.55374,125.75907 846.07373,127.19906   C 847.67372,128.63905 849.67371,129.59904 851.99369,129.59904   L 852.31369,129.59904   C 854.31367,129.51904 855.99366,128.63905 857.19365,127.43906   C 858.39364,126.15907 859.19364,124.47908 859.43363,122.71909   C 859.51363,122.1591 859.59363,121.6791 859.59363,121.1991   C 859.59363,118.15912 858.15364,115.27915 855.59366,113.43916   C 853.27368,111.67917 850.5537,110.95918 847.75372,110.95918   C 847.35372,110.95918 847.03373,111.03918 846.63373,111.03918   L 846.71373,111.91917   L 847.51372,112.07917   C 848.63371,107.6792 851.35369,103.67923 854.87367,100.55926   C 858.39364,97.519278 862.79361,95.359294 867.27358,94.799298   L 867.19358,93.919304   L 866.31358,93.919304   C 866.39358,97.599277 867.59357,101.43925 870.15355,104.31923   C 872.15354,106.47921 875.11352,108.2392 878.31349,108.3192   C 879.51349,108.3192 880.71348,107.9992 881.83347,107.3592   C 883.11346,106.63921 883.99345,105.67922 884.63345,104.47923   C 885.19344,103.27923 885.43344,101.99924 885.43344,100.71925   C 885.43344,99.599262 885.27344,98.399271 884.87345,97.359279   L 884.87345,97.359279   C 884.07345,95.279294 882.55346,93.759305 880.87348,92.719313   C 879.11349,91.599321 877.1935,90.879327 875.27352,90.47933   C 873.67353,90.079333 871.99354,89.919334 870.31355,89.919334   L 870.31355,90.799327   L 871.19355,90.959326   C 871.99354,86.239361 875.27352,81.839394 878.87349,78.479419   C 884.23345,73.359457 890.7134,69.119488 897.43335,65.839512   C 899.19334,64.959519 900.87333,63.999526 902.55331,63.279531   C 902.87331,63.199532 903.11331,62.959534 903.27331,62.719535   C 903.43331,62.479537 903.51331,62.239539 903.51331,61.999541   C 903.43331,61.599544 903.35331,61.279546 903.11331,60.959548   C 902.95331,60.71955 902.55331,60.399553 902.07332,60.399553   C 901.91332,60.399553 901.75332,60.479552 901.67332,60.479552   L 901.67332,60.479552   L 901.91332,61.359545   L 902.15332,62.15954   L 902.07332,61.839542   L 902.07332,62.15954   L 902.15332,62.15954   L 902.07332,61.839542   L 902.07332,62.15954   L 902.07332,61.839542   L 901.75332,61.999541   C 901.83332,62.07954 901.91332,62.15954 902.07332,62.15954   L 902.07332,61.839542   L 901.75332,61.999541   L 901.83332,61.999541   L 901.75332,61.999541   L 901.75332,61.999541   L 901.83332,61.999541   L 901.75332,61.999541   L 901.99332,61.999541   L 901.75332,61.839542   L 901.75332,61.999541   L 901.99332,61.999541   L 901.75332,61.839542   L 902.07332,61.999541   L 901.91332,61.679543   L 901.75332,61.839542   L 902.07332,61.999541   L 901.91332,61.679543   C 900.07333,62.479537 898.39335,63.43953 896.63336,64.319524   C 889.83341,67.599499 883.19346,71.919467 877.6735,77.199428   C 873.99353,80.719402 870.47355,85.279368 869.43356,90.639329   L 869.27356,91.599321   L 870.31355,91.679321   C 871.83354,91.679321 873.35353,91.83932 874.87352,92.159317   C 876.63351,92.559314 878.39349,93.19931 879.91348,94.159303   C 881.43347,95.119295 882.63346,96.319287 883.19346,97.999274   L 883.27346,98.079273   L 883.19346,97.999274   C 883.59345,98.799268 883.75345,99.759261 883.75345,100.71925   C 883.75345,101.75925 883.51346,102.79924 883.03346,103.67923   C 882.63346,104.55923 881.91347,105.35922 881.03347,105.83922   C 880.15348,106.31921 879.19349,106.55921 878.31349,106.55921   C 875.83351,106.55921 873.11353,105.03922 871.43354,103.11924   C 869.19356,100.63925 868.15357,97.279279 867.99357,93.919304   L 867.99357,92.959311   L 867.03358,93.039311   C 862.15361,93.759305 857.51365,95.999289 853.75368,99.279265   C 849.9137,102.55924 847.11373,106.87921 845.83373,111.67917   L 845.51374,112.79916   L 846.71373,112.71917   C 847.11373,112.71917 847.43372,112.71917 847.75372,112.71917   C 850.2337,112.71917 852.55368,113.35916 854.63367,114.79915   C 856.63365,116.31914 857.83365,118.71912 857.83365,121.1991   C 857.83365,121.5991 857.83365,121.9991 857.75365,122.39909   C 857.51365,123.91908 856.87365,125.27907 855.91366,126.23906   C 855.03367,127.19906 853.75368,127.75905 852.23369,127.83905   L 851.99369,127.83905   C 850.1537,127.83905 848.55371,127.11906 847.27372,125.91907   C 845.91373,124.71908 844.95374,123.03909 844.47374,121.2791   C 844.07375,119.91911 843.91375,118.55912 843.91375,117.03913   C 843.91375,116.55914 843.91375,116.07914 843.99375,115.59914   L 844.07375,114.31915   L 842.87376,114.63915   C 838.55379,115.99914 834.87382,118.95912 832.31383,122.55909   C 829.43386,126.55906 827.91387,131.35903 827.91387,136.23899   C 827.91387,137.67898 827.99387,139.11897 828.31386,140.47896   L 829.11386,140.31896   L 828.31386,140.47896   L 828.87386,140.39896   L 828.23386,140.39896   L 828.31386,140.47896   L 828.87386,140.39896   L 828.23386,140.39896   L 828.95386,140.39896   L 828.39386,140.07896   C 828.31386,140.15896 828.23386,140.31896 828.23386,140.39896   L 828.95386,140.39896   L 828.39386,140.07896   L 828.95386,140.39896   L 828.71386,139.75896   C 828.63386,139.75896 828.47386,139.83896 828.39386,140.07896   L 828.95386,140.39896   L 828.71386,139.75896   L 828.87386,140.15896   L 828.87386,139.67897   L 828.71386,139.75896   L 828.87386,140.15896   L 828.87386,139.67897   L 828.87386,139.67897   C 828.47386,139.59897 828.07387,139.43897 827.83387,139.11897   C 827.51387,138.79897 827.27387,138.39897 827.19387,137.99898   L 827.19387,137.99898   C 827.03387,137.19898 826.95387,136.47899 826.95387,135.83899   L 826.95387,135.83899   C 826.95387,135.599 826.87388,135.359 826.87388,135.039   C 826.87388,128.47905 830.23385,121.8391 835.27381,117.59913   C 837.5938,115.59914 840.63377,113.99916 843.75375,113.19916   L 844.31375,113.11916   L 844.39375,112.55917   C 844.55374,111.83917 844.71374,111.19918 844.95374,110.55918   L 844.95374,110.55918   C 847.83372,100.79925 857.27365,92.959311 867.43357,91.83932   L 868.07357,91.75932   L 868.15357,91.039326   C 868.63357,87.75935 870.07356,84.639373 872.07354,81.839394   C 874.07353,79.039415 876.55351,76.479433 879.11349,74.23945   C 882.47346,71.359471 886.15344,68.79949 889.99341,66.639506   C 891.83339,65.679513 893.83338,64.79952 895.83336,64.079525   C 897.83335,63.279531 899.91333,62.799535 902.15332,62.15954   L 902.15332,62.15954   L 901.91332,61.359545  " style="fill:#6b83cb;fill-rule:nonzero;fill-opacity:1;stroke:none;" transform="matrix(1.3977986574172974, 0, 0, 1.3977986574172974, -391.80743408203125, 173.0532569885254)"/><path id="path-2" d="  M 623.59538,69.519485   C 614.95544,66.319509 602.79553,62.319538 592.71561,59.199561   C 593.9956,55.35959 596.23558,51.919615 597.11558,47.759646   C 606.47551,49.119636 615.91544,55.039592 624.63537,58.799564   L 623.59538,69.519485   z " style="fill:#ee2622;fill-rule:nonzero;fill-opacity:1;stroke:none;" transform="matrix(1.3977986574172974, 0, 0, 1.3977986574172974, -192.38844299316406, 236.2021827697754)"/><path id="path-3" d="  M 259.19808,33.439752   C 253.51812,32.959756 249.19815,35.839735 248.71816,41.679691   C 248.55816,44.479671 249.75815,50.959623 253.83812,48.479641   C 255.59811,47.439649 256.3981,45.439663 254.55811,44.079673   C 252.63813,42.639684 249.91815,42.799683 247.75816,43.759676   C 241.59821,46.639655 242.4782,55.999585 247.75816,59.43956   C 249.35815,60.479552 247.83816,63.119532 246.23818,62.07954   C 238.87823,57.279576 238.15824,45.359664 246.31818,41.119695   C 249.27815,39.519707 253.19812,39.599707 256.0781,41.439693   C 258.71808,43.19968 259.51808,46.479656 257.59809,49.039637   C 255.8381,51.519618 252.79813,52.879608 249.91815,51.599618   C 247.19817,50.479626 246.07818,46.799653 245.75818,44.159673   C 244.87819,35.839735 250.79814,29.67978 259.19808,30.399775   C 261.11807,30.559774 261.11807,33.599751 259.19808,33.439752   z " style="fill:#2f50aa;fill-rule:nonzero;fill-opacity:1;stroke:none;" transform="matrix(1.3977986574172974, 0, 0, 1.3977986574172974, 664.6427612304688, 223.0298957824707)"/></svg>