<?xml version="1.0" encoding="utf-8"?>
<svg id="master-artboard" viewBox="0 0 1400 934.9539184570312" version="1.1" xmlns="http://www.w3.org/2000/svg" x="0px" y="0px" style="enable-background:new 0 0 1400 980;" width="1400px" height="934.9539184570312px"><defs><style id="ee-google-fonts">@import url(https://fonts.googleapis.com/css?family=Rubik:300,300italic,400,400italic,500,500italic,700,700italic,900,900italic);</style><path id="text-path-0" d="M 778.8464965820312 213.4612274169922 A 100 18 0 0 1 988.3533935546875 213.4612274169922 A 100 18 0 0 1 778.8464965820312 213.4612274169922 Z" style="fill: none; stroke: red; stroke-width: 2;"/><path id="text-path-1" d="M 664.5464477539062 37.96122741699219 A 100 19 0 0 1 876.5812377929688 37.96122741699219 A 100 19 0 0 1 664.5464477539062 37.96122741699219" style="fill: none; stroke: red; stroke-width: 2;"/><path id="text-path-2" d="M 765.3650512695312 211.70851135253906 A 100 17 0 0 1 991.5017700195312 211.70851135253906 A 100 17 0 0 1 765.3650512695312 211.70851135253906" style="fill: none; stroke: red; stroke-width: 2;"/><path id="path-1" d="M 765.3650512695312 211.70851135253906 A 100 17 0 0 1 991.5017700195312 211.70851135253906 A 100 17 0 0 1 765.3650512695312 211.70851135253906" style="fill: none; stroke: red; stroke-width: 2;"/><pattern y="0" x="0" height="6" width="6" patternUnits="userSpaceOnUse" id="EMFhbasepattern"/><style id="style-1">@import url(https://fonts.googleapis.com/css?family=Allerta:400);</style></defs><rect id="ee-background" x="0" y="0" width="1400" height="934.9539184570312" style="fill: white; fill-opacity: 0; pointer-events: none;"/>








































<g transform="matrix(1.0017517805099487, 0, 0, 1.0017517805099487, -0.000014942365851311479, 6.533283233642578)"><rect id="rect-2" x="0" y="0" width="1397.5517578125" height="926.1405639648438" style="fill: white; fill-opacity: 0; pointer-events: none;"/><g transform="matrix(1.0000001192092896, 0, 0, 1.0000001192092896, -0.00003735591599252075, -3.6014041900634766)"><path d="M 0 0 H 1400 V 928.446899 H 0 V 0 Z" id="rect-1" style="fill: white; fill-opacity: 0; pointer-events: none;"/><path d="M 880.3870239257812 239.90606689453125" style="fill: rgb(63, 61, 61); fill-opacity: 1; stroke: rgb(0, 0, 0); stroke-opacity: 1; stroke-width: 0; paint-order: fill;" transform="matrix(1, 0, 0, 1, 0, -29.458940505981445)"/><path d="M 864.144775390625 229.48651123046875" style="fill: rgb(63, 61, 61); fill-opacity: 1; stroke: rgb(0, 0, 0); stroke-opacity: 1; stroke-width: 0; paint-order: fill;" transform="matrix(1, 0, 0, 1, 0, -29.458940505981445)"/><g transform="matrix(0.873624324798584, 0, 0, 0.873624324798584, -0.00003735591599252075, -6.67601203918457)"><metadata id="metadata321">
    
  </metadata><path id="path5" d="  M 1600.1481,1066.6321   L 0,1066.6321   L 0,0   L 1600.1481,0   L 1600.1481,1066.6321  z " style="fill:#1f2228;fill-rule:nonzero;fill-opacity:1;stroke:none;" transform="matrix(1, 0, 0, 1, 0, 4.578627223853335)"/><path id="path7" d="  M 216.4784,257.27809   C 216.4784,153.35886 300.71777,69.119488 404.637,69.119488   C 508.55623,69.119488 592.79561,153.35886 592.79561,257.27809   C 592.79561,361.19732 508.55623,445.5167 404.637,445.5167   C 300.71777,445.5167 216.4784,361.19732 216.4784,257.27809   z " style="fill:#ff0b53;fill-rule:nonzero;fill-opacity:1;stroke:none;"/><path id="path9" d="  M 123.75908,23.119829   C 123.75908,25.199813 121.9991,26.9598 119.83911,26.9598   C 117.75913,26.9598 115.99914,25.199813 115.99914,23.119829   C 115.99914,20.959845 117.75913,19.199858 119.83911,19.199858   C 121.9991,19.199858 123.75908,20.959845 123.75908,23.119829   z " style="fill:#ffffff;fill-rule:nonzero;fill-opacity:1;stroke:none;"/><path id="path11" d="  M 293.83782,23.119829   C 293.83782,25.199813 292.07784,26.9598 289.91785,26.9598   C 287.83787,26.9598 286.07788,25.199813 286.07788,23.119829   C 286.07788,20.959845 287.83787,19.199858 289.91785,19.199858   C 292.07784,19.199858 293.83782,20.959845 293.83782,23.119829   z " style="fill:#ffffff;fill-rule:nonzero;fill-opacity:1;stroke:none;"/><path id="path13" d="  M 463.91656,23.119829   C 463.91656,25.199813 462.15658,26.9598 459.99659,26.9598   C 457.91661,26.9598 456.15662,25.199813 456.15662,23.119829   C 456.15662,20.959845 457.91661,19.199858 459.99659,19.199858   C 462.15658,19.199858 463.91656,20.959845 463.91656,23.119829   z " style="fill:#ffffff;fill-rule:nonzero;fill-opacity:1;stroke:none;"/><path id="path15" d="  M 633.9953,23.119829   C 633.9953,25.199813 632.23532,26.9598 630.07533,26.9598   C 627.99535,26.9598 626.23536,25.199813 626.23536,23.119829   C 626.23536,20.959845 627.99535,19.199858 630.07533,19.199858   C 632.23532,19.199858 633.9953,20.959845 633.9953,23.119829   z " style="fill:#ffffff;fill-rule:nonzero;fill-opacity:1;stroke:none;"/><path id="path17" d="  M 804.07404,23.119829   C 804.07404,25.199813 802.31406,26.9598 800.15407,26.9598   C 798.07409,26.9598 796.3141,25.199813 796.3141,23.119829   C 796.3141,20.959845 798.07409,19.199858 800.15407,19.199858   C 802.31406,19.199858 804.07404,20.959845 804.07404,23.119829   z " style="fill:#ffffff;fill-rule:nonzero;fill-opacity:1;stroke:none;"/><path id="path19" d="  M 974.15278,23.119829   C 974.15278,25.199813 972.3928,26.9598 970.23281,26.9598   C 968.15283,26.9598 966.39284,25.199813 966.39284,23.119829   C 966.39284,20.959845 968.15283,19.199858 970.23281,19.199858   C 972.3928,19.199858 974.15278,20.959845 974.15278,23.119829   z " style="fill:#ffffff;fill-rule:nonzero;fill-opacity:1;stroke:none;"/><path id="path21" d="  M 1144.2315,23.119829   C 1144.2315,25.199813 1142.4715,26.9598 1140.3916,26.9598   C 1138.2316,26.9598 1136.4716,25.199813 1136.4716,23.119829   C 1136.4716,20.959845 1138.2316,19.199858 1140.3916,19.199858   C 1142.4715,19.199858 1144.2315,20.959845 1144.2315,23.119829   z " style="fill:#ffffff;fill-rule:nonzero;fill-opacity:1;stroke:none;"/><path id="path23" d="  M 1314.3103,23.119829   C 1314.3103,25.199813 1312.5503,26.9598 1310.4703,26.9598   C 1308.3103,26.9598 1306.5503,25.199813 1306.5503,23.119829   C 1306.5503,20.959845 1308.3103,19.199858 1310.4703,19.199858   C 1312.5503,19.199858 1314.3103,20.959845 1314.3103,23.119829   z " style="fill:#ffffff;fill-rule:nonzero;fill-opacity:1;stroke:none;"/><path id="path25" d="  M 1484.389,23.119829   C 1484.389,25.199813 1482.629,26.9598 1480.549,26.9598   C 1478.389,26.9598 1476.6291,25.199813 1476.6291,23.119829   C 1476.6291,20.959845 1478.389,19.199858 1480.549,19.199858   C 1482.629,19.199858 1484.389,20.959845 1484.389,23.119829   z " style="fill:#ffffff;fill-rule:nonzero;fill-opacity:1;stroke:none;"/><path id="path27" d="  M 123.75908,193.19857   C 123.75908,195.27855 121.9991,197.03854 119.83911,197.03854   C 117.75913,197.03854 115.99914,195.27855 115.99914,193.19857   C 115.99914,191.03858 117.75913,189.2786 119.83911,189.2786   C 121.9991,189.2786 123.75908,191.03858 123.75908,193.19857   z " style="fill:#ffffff;fill-rule:nonzero;fill-opacity:1;stroke:none;"/><path id="path29" d="  M 293.83782,193.19857   C 293.83782,195.27855 292.07784,197.03854 289.91785,197.03854   C 287.83787,197.03854 286.07788,195.27855 286.07788,193.19857   C 286.07788,191.03858 287.83787,189.2786 289.91785,189.2786   C 292.07784,189.2786 293.83782,191.03858 293.83782,193.19857   z " style="fill:#ffffff;fill-rule:nonzero;fill-opacity:1;stroke:none;"/><path id="path31" d="  M 463.91656,193.19857   C 463.91656,195.27855 462.15658,197.03854 459.99659,197.03854   C 457.91661,197.03854 456.15662,195.27855 456.15662,193.19857   C 456.15662,191.03858 457.91661,189.2786 459.99659,189.2786   C 462.15658,189.2786 463.91656,191.03858 463.91656,193.19857   z " style="fill:#ffffff;fill-rule:nonzero;fill-opacity:1;stroke:none;"/><path id="path33" d="  M 633.9953,193.19857   C 633.9953,195.27855 632.23532,197.03854 630.07533,197.03854   C 627.99535,197.03854 626.23536,195.27855 626.23536,193.19857   C 626.23536,191.03858 627.99535,189.2786 630.07533,189.2786   C 632.23532,189.2786 633.9953,191.03858 633.9953,193.19857   z " style="fill:#ffffff;fill-rule:nonzero;fill-opacity:1;stroke:none;"/><path id="path35" d="  M 804.07404,193.19857   C 804.07404,195.27855 802.31406,197.03854 800.15407,197.03854   C 798.07409,197.03854 796.3141,195.27855 796.3141,193.19857   C 796.3141,191.03858 798.07409,189.2786 800.15407,189.2786   C 802.31406,189.2786 804.07404,191.03858 804.07404,193.19857   z " style="fill:#ffffff;fill-rule:nonzero;fill-opacity:1;stroke:none;"/><path id="path37" d="  M 974.15278,193.19857   C 974.15278,195.27855 972.3928,197.03854 970.23281,197.03854   C 968.15283,197.03854 966.39284,195.27855 966.39284,193.19857   C 966.39284,191.03858 968.15283,189.2786 970.23281,189.2786   C 972.3928,189.2786 974.15278,191.03858 974.15278,193.19857   z " style="fill:#ffffff;fill-rule:nonzero;fill-opacity:1;stroke:none;"/><path id="path39" d="  M 1144.2315,193.19857   C 1144.2315,195.27855 1142.4715,197.03854 1140.3916,197.03854   C 1138.2316,197.03854 1136.4716,195.27855 1136.4716,193.19857   C 1136.4716,191.03858 1138.2316,189.2786 1140.3916,189.2786   C 1142.4715,189.2786 1144.2315,191.03858 1144.2315,193.19857   z " style="fill:#ffffff;fill-rule:nonzero;fill-opacity:1;stroke:none;"/><path id="path41" d="  M 1314.3103,193.19857   C 1314.3103,195.27855 1312.5503,197.03854 1310.4703,197.03854   C 1308.3103,197.03854 1306.5503,195.27855 1306.5503,193.19857   C 1306.5503,191.03858 1308.3103,189.2786 1310.4703,189.2786   C 1312.5503,189.2786 1314.3103,191.03858 1314.3103,193.19857   z " style="fill:#ffffff;fill-rule:nonzero;fill-opacity:1;stroke:none;"/><path id="path43" d="  M 1484.389,193.19857   C 1484.389,195.27855 1482.629,197.03854 1480.549,197.03854   C 1478.389,197.03854 1476.6291,195.27855 1476.6291,193.19857   C 1476.6291,191.03858 1478.389,189.2786 1480.549,189.2786   C 1482.629,189.2786 1484.389,191.03858 1484.389,193.19857   z " style="fill:#ffffff;fill-rule:nonzero;fill-opacity:1;stroke:none;"/><path id="path45" d="  M 123.75908,363.27731   C 123.75908,365.35729 121.9991,367.11728 119.83911,367.11728   C 117.75913,367.11728 115.99914,365.35729 115.99914,363.27731   C 115.99914,361.11733 117.75913,359.35734 119.83911,359.35734   C 121.9991,359.35734 123.75908,361.11733 123.75908,363.27731   z " style="fill:#ffffff;fill-rule:nonzero;fill-opacity:1;stroke:none;"/><path id="path47" d="  M 293.83782,363.27731   C 293.83782,365.35729 292.07784,367.11728 289.91785,367.11728   C 287.83787,367.11728 286.07788,365.35729 286.07788,363.27731   C 286.07788,361.11733 287.83787,359.35734 289.91785,359.35734   C 292.07784,359.35734 293.83782,361.11733 293.83782,363.27731   z " style="fill:#ffffff;fill-rule:nonzero;fill-opacity:1;stroke:none;"/><path id="path49" d="  M 463.91656,363.27731   C 463.91656,365.35729 462.15658,367.11728 459.99659,367.11728   C 457.91661,367.11728 456.15662,365.35729 456.15662,363.27731   C 456.15662,361.11733 457.91661,359.35734 459.99659,359.35734   C 462.15658,359.35734 463.91656,361.11733 463.91656,363.27731   z " style="fill:#ffffff;fill-rule:nonzero;fill-opacity:1;stroke:none;"/><path id="path51" d="  M 633.9953,363.27731   C 633.9953,365.35729 632.23532,367.11728 630.07533,367.11728   C 627.99535,367.11728 626.23536,365.35729 626.23536,363.27731   C 626.23536,361.11733 627.99535,359.35734 630.07533,359.35734   C 632.23532,359.35734 633.9953,361.11733 633.9953,363.27731   z " style="fill:#ffffff;fill-rule:nonzero;fill-opacity:1;stroke:none;"/><path id="path53" d="  M 804.07404,363.27731   C 804.07404,365.35729 802.31406,367.11728 800.15407,367.11728   C 798.07409,367.11728 796.3141,365.35729 796.3141,363.27731   C 796.3141,361.11733 798.07409,359.35734 800.15407,359.35734   C 802.31406,359.35734 804.07404,361.11733 804.07404,363.27731   z " style="fill:#ffffff;fill-rule:nonzero;fill-opacity:1;stroke:none;"/><path id="path55" d="  M 974.15278,363.27731   C 974.15278,365.35729 972.3928,367.11728 970.23281,367.11728   C 968.15283,367.11728 966.39284,365.35729 966.39284,363.27731   C 966.39284,361.11733 968.15283,359.35734 970.23281,359.35734   C 972.3928,359.35734 974.15278,361.11733 974.15278,363.27731   z " style="fill:#ffffff;fill-rule:nonzero;fill-opacity:1;stroke:none;"/><path id="path57" d="  M 1144.2315,363.27731   C 1144.2315,365.35729 1142.4715,367.11728 1140.3916,367.11728   C 1138.2316,367.11728 1136.4716,365.35729 1136.4716,363.27731   C 1136.4716,361.11733 1138.2316,359.35734 1140.3916,359.35734   C 1142.4715,359.35734 1144.2315,361.11733 1144.2315,363.27731   z " style="fill:#ffffff;fill-rule:nonzero;fill-opacity:1;stroke:none;"/><path id="path59" d="  M 1314.3103,363.27731   C 1314.3103,365.35729 1312.5503,367.11728 1310.4703,367.11728   C 1308.3103,367.11728 1306.5503,365.35729 1306.5503,363.27731   C 1306.5503,361.11733 1308.3103,359.35734 1310.4703,359.35734   C 1312.5503,359.35734 1314.3103,361.11733 1314.3103,363.27731   z " style="fill:#ffffff;fill-rule:nonzero;fill-opacity:1;stroke:none;"/><path id="path61" d="  M 1484.389,363.27731   C 1484.389,365.35729 1482.629,367.11728 1480.549,367.11728   C 1478.389,367.11728 1476.6291,365.35729 1476.6291,363.27731   C 1476.6291,361.11733 1478.389,359.35734 1480.549,359.35734   C 1482.629,359.35734 1484.389,361.11733 1484.389,363.27731   z " style="fill:#ffffff;fill-rule:nonzero;fill-opacity:1;stroke:none;"/><path id="path63" d="  M 123.75908,533.35605   C 123.75908,535.43603 121.9991,537.19602 119.83911,537.19602   C 117.75913,537.19602 115.99914,535.43603 115.99914,533.35605   C 115.99914,531.19607 117.75913,529.43608 119.83911,529.43608   C 121.9991,529.43608 123.75908,531.19607 123.75908,533.35605   z " style="fill:#ffffff;fill-rule:nonzero;fill-opacity:1;stroke:none;"/><path id="path65" d="  M 293.83782,533.35605   C 293.83782,535.43603 292.07784,537.19602 289.91785,537.19602   C 287.83787,537.19602 286.07788,535.43603 286.07788,533.35605   C 286.07788,531.19607 287.83787,529.43608 289.91785,529.43608   C 292.07784,529.43608 293.83782,531.19607 293.83782,533.35605   z " style="fill:#ffffff;fill-rule:nonzero;fill-opacity:1;stroke:none;"/><path id="path67" d="  M 463.91656,533.35605   C 463.91656,535.43603 462.15658,537.19602 459.99659,537.19602   C 457.91661,537.19602 456.15662,535.43603 456.15662,533.35605   C 456.15662,531.19607 457.91661,529.43608 459.99659,529.43608   C 462.15658,529.43608 463.91656,531.19607 463.91656,533.35605   z " style="fill:#ffffff;fill-rule:nonzero;fill-opacity:1;stroke:none;"/><path id="path69" d="  M 633.9953,533.35605   C 633.9953,535.43603 632.23532,537.19602 630.07533,537.19602   C 627.99535,537.19602 626.23536,535.43603 626.23536,533.35605   C 626.23536,531.19607 627.99535,529.43608 630.07533,529.43608   C 632.23532,529.43608 633.9953,531.19607 633.9953,533.35605   z " style="fill:#ffffff;fill-rule:nonzero;fill-opacity:1;stroke:none;"/><path id="path71" d="  M 804.07404,533.35605   C 804.07404,535.43603 802.31406,537.19602 800.15407,537.19602   C 798.07409,537.19602 796.3141,535.43603 796.3141,533.35605   C 796.3141,531.19607 798.07409,529.43608 800.15407,529.43608   C 802.31406,529.43608 804.07404,531.19607 804.07404,533.35605   z " style="fill:#ffffff;fill-rule:nonzero;fill-opacity:1;stroke:none;"/><path id="path73" d="  M 974.15278,533.35605   C 974.15278,535.43603 972.3928,537.19602 970.23281,537.19602   C 968.15283,537.19602 966.39284,535.43603 966.39284,533.35605   C 966.39284,531.19607 968.15283,529.43608 970.23281,529.43608   C 972.3928,529.43608 974.15278,531.19607 974.15278,533.35605   z " style="fill:#ffffff;fill-rule:nonzero;fill-opacity:1;stroke:none;"/><path id="path75" d="  M 1144.2315,533.35605   C 1144.2315,535.43603 1142.4715,537.19602 1140.3916,537.19602   C 1138.2316,537.19602 1136.4716,535.43603 1136.4716,533.35605   C 1136.4716,531.19607 1138.2316,529.43608 1140.3916,529.43608   C 1142.4715,529.43608 1144.2315,531.19607 1144.2315,533.35605   z " style="fill:#ffffff;fill-rule:nonzero;fill-opacity:1;stroke:none;"/><path id="path77" d="  M 1314.3103,533.35605   C 1314.3103,535.43603 1312.5503,537.19602 1310.4703,537.19602   C 1308.3103,537.19602 1306.5503,535.43603 1306.5503,533.35605   C 1306.5503,531.19607 1308.3103,529.43608 1310.4703,529.43608   C 1312.5503,529.43608 1314.3103,531.19607 1314.3103,533.35605   z " style="fill:#ffffff;fill-rule:nonzero;fill-opacity:1;stroke:none;"/><path id="path79" d="  M 1484.389,533.35605   C 1484.389,535.43603 1482.629,537.19602 1480.549,537.19602   C 1478.389,537.19602 1476.6291,535.43603 1476.6291,533.35605   C 1476.6291,531.19607 1478.389,529.43608 1480.549,529.43608   C 1482.629,529.43608 1484.389,531.19607 1484.389,533.35605   z " style="fill:#ffffff;fill-rule:nonzero;fill-opacity:1;stroke:none;"/><path id="path81" d="  M 123.75908,703.43479   C 123.75908,705.51477 121.9991,707.27476 119.83911,707.27476   C 117.75913,707.27476 115.99914,705.51477 115.99914,703.43479   C 115.99914,701.27481 117.75913,699.51482 119.83911,699.51482   C 121.9991,699.51482 123.75908,701.27481 123.75908,703.43479   z " style="fill:#ffffff;fill-rule:nonzero;fill-opacity:1;stroke:none;"/><path id="path83" d="  M 293.83782,703.43479   C 293.83782,705.51477 292.07784,707.27476 289.91785,707.27476   C 287.83787,707.27476 286.07788,705.51477 286.07788,703.43479   C 286.07788,701.27481 287.83787,699.51482 289.91785,699.51482   C 292.07784,699.51482 293.83782,701.27481 293.83782,703.43479   z " style="fill:#ffffff;fill-rule:nonzero;fill-opacity:1;stroke:none;"/><path id="path85" d="  M 463.91656,703.43479   C 463.91656,705.51477 462.15658,707.27476 459.99659,707.27476   C 457.91661,707.27476 456.15662,705.51477 456.15662,703.43479   C 456.15662,701.27481 457.91661,699.51482 459.99659,699.51482   C 462.15658,699.51482 463.91656,701.27481 463.91656,703.43479   z " style="fill:#ffffff;fill-rule:nonzero;fill-opacity:1;stroke:none;"/><path id="path87" d="  M 633.9953,703.43479   C 633.9953,705.51477 632.23532,707.27476 630.07533,707.27476   C 627.99535,707.27476 626.23536,705.51477 626.23536,703.43479   C 626.23536,701.27481 627.99535,699.51482 630.07533,699.51482   C 632.23532,699.51482 633.9953,701.27481 633.9953,703.43479   z " style="fill:#ffffff;fill-rule:nonzero;fill-opacity:1;stroke:none;"/><path id="path89" d="  M 804.07404,703.43479   C 804.07404,705.51477 802.31406,707.27476 800.15407,707.27476   C 798.07409,707.27476 796.3141,705.51477 796.3141,703.43479   C 796.3141,701.27481 798.07409,699.51482 800.15407,699.51482   C 802.31406,699.51482 804.07404,701.27481 804.07404,703.43479   z " style="fill:#ffffff;fill-rule:nonzero;fill-opacity:1;stroke:none;"/><path id="path91" d="  M 974.15278,703.43479   C 974.15278,705.51477 972.3928,707.27476 970.23281,707.27476   C 968.15283,707.27476 966.39284,705.51477 966.39284,703.43479   C 966.39284,701.27481 968.15283,699.51482 970.23281,699.51482   C 972.3928,699.51482 974.15278,701.27481 974.15278,703.43479   z " style="fill:#ffffff;fill-rule:nonzero;fill-opacity:1;stroke:none;"/><path id="path93" d="  M 1144.2315,703.43479   C 1144.2315,705.51477 1142.4715,707.27476 1140.3916,707.27476   C 1138.2316,707.27476 1136.4716,705.51477 1136.4716,703.43479   C 1136.4716,701.27481 1138.2316,699.51482 1140.3916,699.51482   C 1142.4715,699.51482 1144.2315,701.27481 1144.2315,703.43479   z " style="fill:#ffffff;fill-rule:nonzero;fill-opacity:1;stroke:none;"/><path id="path95" d="  M 1314.3103,703.43479   C 1314.3103,705.51477 1312.5503,707.27476 1310.4703,707.27476   C 1308.3103,707.27476 1306.5503,705.51477 1306.5503,703.43479   C 1306.5503,701.27481 1308.3103,699.51482 1310.4703,699.51482   C 1312.5503,699.51482 1314.3103,701.27481 1314.3103,703.43479   z " style="fill:#ffffff;fill-rule:nonzero;fill-opacity:1;stroke:none;"/><path id="path97" d="  M 1484.389,703.43479   C 1484.389,705.51477 1482.629,707.27476 1480.549,707.27476   C 1478.389,707.27476 1476.6291,705.51477 1476.6291,703.43479   C 1476.6291,701.27481 1478.389,699.51482 1480.549,699.51482   C 1482.629,699.51482 1484.389,701.27481 1484.389,703.43479   z " style="fill:#ffffff;fill-rule:nonzero;fill-opacity:1;stroke:none;"/><path id="path99" d="  M 123.75908,873.51353   C 123.75908,875.67351 121.9991,877.3535 119.83911,877.3535   C 117.75913,877.3535 115.99914,875.67351 115.99914,873.51353   C 115.99914,871.35355 117.75913,869.59356 119.83911,869.59356   C 121.9991,869.59356 123.75908,871.35355 123.75908,873.51353   z " style="fill:#ffffff;fill-rule:nonzero;fill-opacity:1;stroke:none;"/><path id="path101" d="  M 293.83782,873.51353   C 293.83782,875.67351 292.07784,877.3535 289.91785,877.3535   C 287.83787,877.3535 286.07788,875.67351 286.07788,873.51353   C 286.07788,871.35355 287.83787,869.59356 289.91785,869.59356   C 292.07784,869.59356 293.83782,871.35355 293.83782,873.51353   z " style="fill:#ffffff;fill-rule:nonzero;fill-opacity:1;stroke:none;"/><path id="path103" d="  M 463.91656,873.51353   C 463.91656,875.67351 462.15658,877.3535 459.99659,877.3535   C 457.91661,877.3535 456.15662,875.67351 456.15662,873.51353   C 456.15662,871.35355 457.91661,869.59356 459.99659,869.59356   C 462.15658,869.59356 463.91656,871.35355 463.91656,873.51353   z " style="fill:#ffffff;fill-rule:nonzero;fill-opacity:1;stroke:none;"/><path id="path105" d="  M 633.9953,873.51353   C 633.9953,875.67351 632.23532,877.3535 630.07533,877.3535   C 627.99535,877.3535 626.23536,875.67351 626.23536,873.51353   C 626.23536,871.35355 627.99535,869.59356 630.07533,869.59356   C 632.23532,869.59356 633.9953,871.35355 633.9953,873.51353   z " style="fill:#ffffff;fill-rule:nonzero;fill-opacity:1;stroke:none;"/><path id="path107" d="  M 804.07404,873.51353   C 804.07404,875.67351 802.31406,877.3535 800.15407,877.3535   C 798.07409,877.3535 796.3141,875.67351 796.3141,873.51353   C 796.3141,871.35355 798.07409,869.59356 800.15407,869.59356   C 802.31406,869.59356 804.07404,871.35355 804.07404,873.51353   z " style="fill:#ffffff;fill-rule:nonzero;fill-opacity:1;stroke:none;"/><path id="path109" d="  M 974.15278,873.51353   C 974.15278,875.67351 972.3928,877.3535 970.23281,877.3535   C 968.15283,877.3535 966.39284,875.67351 966.39284,873.51353   C 966.39284,871.35355 968.15283,869.59356 970.23281,869.59356   C 972.3928,869.59356 974.15278,871.35355 974.15278,873.51353   z " style="fill:#ffffff;fill-rule:nonzero;fill-opacity:1;stroke:none;"/><path id="path111" d="  M 1144.2315,873.51353   C 1144.2315,875.67351 1142.4715,877.3535 1140.3916,877.3535   C 1138.2316,877.3535 1136.4716,875.67351 1136.4716,873.51353   C 1136.4716,871.35355 1138.2316,869.59356 1140.3916,869.59356   C 1142.4715,869.59356 1144.2315,871.35355 1144.2315,873.51353   z " style="fill:#ffffff;fill-rule:nonzero;fill-opacity:1;stroke:none;"/><path id="path113" d="  M 1314.3103,873.51353   C 1314.3103,875.67351 1312.5503,877.3535 1310.4703,877.3535   C 1308.3103,877.3535 1306.5503,875.67351 1306.5503,873.51353   C 1306.5503,871.35355 1308.3103,869.59356 1310.4703,869.59356   C 1312.5503,869.59356 1314.3103,871.35355 1314.3103,873.51353   z " style="fill:#ffffff;fill-rule:nonzero;fill-opacity:1;stroke:none;"/><path id="path115" d="  M 1484.389,873.51353   C 1484.389,875.67351 1482.629,877.3535 1480.549,877.3535   C 1478.389,877.3535 1476.6291,875.67351 1476.6291,873.51353   C 1476.6291,871.35355 1478.389,869.59356 1480.549,869.59356   C 1482.629,869.59356 1484.389,871.35355 1484.389,873.51353   z " style="fill:#ffffff;fill-rule:nonzero;fill-opacity:1;stroke:none;"/><path id="path117" d="  M 123.75908,1043.5923   C 123.75908,1045.7523 121.9991,1047.4322 119.83911,1047.4322   C 117.75913,1047.4322 115.99914,1045.7523 115.99914,1043.5923   C 115.99914,1041.4323 117.75913,1039.6723 119.83911,1039.6723   C 121.9991,1039.6723 123.75908,1041.4323 123.75908,1043.5923   z " style="fill:#ffffff;fill-rule:nonzero;fill-opacity:1;stroke:none;"/><path id="path119" d="  M 293.83782,1043.5923   C 293.83782,1045.7523 292.07784,1047.4322 289.91785,1047.4322   C 287.83787,1047.4322 286.07788,1045.7523 286.07788,1043.5923   C 286.07788,1041.4323 287.83787,1039.6723 289.91785,1039.6723   C 292.07784,1039.6723 293.83782,1041.4323 293.83782,1043.5923   z " style="fill:#ffffff;fill-rule:nonzero;fill-opacity:1;stroke:none;"/><path id="path121" d="  M 463.91656,1043.5923   C 463.91656,1045.7523 462.15658,1047.4322 459.99659,1047.4322   C 457.91661,1047.4322 456.15662,1045.7523 456.15662,1043.5923   C 456.15662,1041.4323 457.91661,1039.6723 459.99659,1039.6723   C 462.15658,1039.6723 463.91656,1041.4323 463.91656,1043.5923   z " style="fill:#ffffff;fill-rule:nonzero;fill-opacity:1;stroke:none;"/><path id="path137" d="  M 829.99385,1591.7482   C 597.27558,1591.7482 408.55697,1403.1096 408.55697,1170.3113   C 408.55697,937.59305 597.27558,748.95445 829.99385,748.95445   C 1062.7121,748.95445 1251.4307,937.59305 1251.4307,1170.3113   C 1251.4307,1403.1096 1062.7121,1591.7482 829.99385,1591.7482   z  M 829.99385,554.87589   C 490.07637,554.87589 214.55841,830.39385 214.55841,1170.3113   C 214.55841,1510.2288 490.07637,1785.7468 829.99385,1785.7468   C 1169.9113,1785.7468 1445.4293,1510.2288 1445.4293,1170.3113   C 1445.4293,830.39385 1169.9113,554.87589 829.99385,554.87589  " style="fill:#ff0b53;fill-rule:nonzero;fill-opacity:1;stroke:none;" transform="matrix(0.7306104898452759, 0, 0, 0.7306104898452759, 97.1402445309559, 207.44700881050255)"/><path id="path123" d="  M 633.9953,1043.5923   C 633.9953,1045.7523 632.23532,1047.4322 630.07533,1047.4322   C 627.99535,1047.4322 626.23536,1045.7523 626.23536,1043.5923   C 626.23536,1041.4323 627.99535,1039.6723 630.07533,1039.6723   C 632.23532,1039.6723 633.9953,1041.4323 633.9953,1043.5923   z " style="fill:#ffffff;fill-rule:nonzero;fill-opacity:1;stroke:none;"/><path id="path125" d="  M 804.07404,1043.5923   C 804.07404,1045.7523 802.31406,1047.4322 800.15407,1047.4322   C 798.07409,1047.4322 796.3141,1045.7523 796.3141,1043.5923   C 796.3141,1041.4323 798.07409,1039.6723 800.15407,1039.6723   C 802.31406,1039.6723 804.07404,1041.4323 804.07404,1043.5923   z " style="fill:#ffffff;fill-rule:nonzero;fill-opacity:1;stroke:none;" transform="matrix(1, 0, 0, 1, 0, 4.578627223853335)"/><path id="path127" d="  M 974.15278,1043.5923   C 974.15278,1045.7523 972.3928,1047.4322 970.23281,1047.4322   C 968.15283,1047.4322 966.39284,1045.7523 966.39284,1043.5923   C 966.39284,1041.4323 968.15283,1039.6723 970.23281,1039.6723   C 972.3928,1039.6723 974.15278,1041.4323 974.15278,1043.5923   z " style="fill:#ffffff;fill-rule:nonzero;fill-opacity:1;stroke:none;" transform="matrix(1, 0, 0, 1, 0, 4.578627223853335)"/><path id="path129" d="  M 1144.2315,1043.5923   C 1144.2315,1045.7523 1142.4715,1047.4322 1140.3916,1047.4322   C 1138.2316,1047.4322 1136.4716,1045.7523 1136.4716,1043.5923   C 1136.4716,1041.4323 1138.2316,1039.6723 1140.3916,1039.6723   C 1142.4715,1039.6723 1144.2315,1041.4323 1144.2315,1043.5923   z " style="fill:#ffffff;fill-rule:nonzero;fill-opacity:1;stroke:none;"/><path id="path131" d="  M 1314.3103,1043.5923   C 1314.3103,1045.7523 1312.5503,1047.4322 1310.4703,1047.4322   C 1308.3103,1047.4322 1306.5503,1045.7523 1306.5503,1043.5923   C 1306.5503,1041.4323 1308.3103,1039.6723 1310.4703,1039.6723   C 1312.5503,1039.6723 1314.3103,1041.4323 1314.3103,1043.5923   z " style="fill:#ffffff;fill-rule:nonzero;fill-opacity:1;stroke:none;"/><path id="path133" d="  M 1484.389,1043.5923   C 1484.389,1045.7523 1482.629,1047.4322 1480.549,1047.4322   C 1478.389,1047.4322 1476.6291,1045.7523 1476.6291,1043.5923   C 1476.6291,1041.4323 1478.389,1039.6723 1480.549,1039.6723   C 1482.629,1039.6723 1484.389,1041.4323 1484.389,1043.5923   z " style="fill:#ffffff;fill-rule:nonzero;fill-opacity:1;stroke:none;"/><path id="path135" d="  M 161.8388,800.23407   L 119.83911,842.15376   L 77.919423,800.23407   L 46.559655,831.51384   L 88.559344,873.51353   L 46.559655,915.43322   L 77.919423,946.79299   L 119.83911,904.7933   L 161.8388,946.79299   L 193.11857,915.43322   L 151.19888,873.51353   L 193.11857,831.51384   z " style="fill:none;stroke:#ff0b53;stroke-width:5.3599601px;stroke-linecap:butt;stroke-linejoin:miter;stroke-miterlimit:10;stroke-dasharray:none;stroke-opacity:1;" transform="matrix(1, 0, 0, 1, 714.8719577099288, -640.6871319098418)"/><path id="path139" d="  M 1314.3103,138.87897   C 1229.9109,138.87897 1161.4314,70.399479 1161.4314,-13.999896   C 1161.4314,-98.399271 1229.9109,-166.87876 1314.3103,-166.87876   C 1398.7096,-166.87876 1467.1891,-98.399271 1467.1891,-13.999896   C 1467.1891,70.399479 1398.7096,138.87897 1314.3103,138.87897   z  M 1314.3103,-321.19762   C 1144.6315,-321.19762 1007.1125,-183.67864 1007.1125,-13.999896   C 1007.1125,155.67885 1144.6315,293.19783 1314.3103,293.19783   C 1483.989,293.19783 1621.508,155.67885 1621.508,-13.999896   C 1621.508,-183.67864 1483.989,-321.19762 1314.3103,-321.19762   z " style="fill:#ff0b53;fill-rule:nonzero;fill-opacity:1;stroke:none;"/><path id="path141" d="  M -57.119577,39.11971   C -57.119577,39.11971 10.719921,158.87882 178.31868,137.59898   C 366.23729,113.75916 447.03669,251.99813 400.47703,346.39743   C 353.91738,440.87673 147.11891,460.79659 175.9987,613.75545   C 204.95848,766.71432 -46.479656,835.91381 -46.479656,835.91381  " style="fill:none;stroke:#ffffff;stroke-width:1.3599899px;stroke-linecap:butt;stroke-linejoin:miter;stroke-miterlimit:10;stroke-dasharray:none;stroke-opacity:1;"/><path id="path143" d="  M -107.6792,177.51869   C -107.6792,177.51869 35.599736,229.3583 178.07868,210.71844   C 320.63762,192.15858 337.2775,275.83796 320.63762,309.19771   C 286.07788,378.3172 101.19925,391.6771 89.199339,503.35627   C 80.239406,587.35565 151.67888,700.23481 -10.559922,760.07437  " style="fill:none;stroke:#ffffff;stroke-width:1.3599899px;stroke-linecap:butt;stroke-linejoin:miter;stroke-miterlimit:10;stroke-dasharray:none;stroke-opacity:1;"/><path id="path145" d="  M -43.839675,233.35827   C -43.839675,233.35827 102.63924,214.63841 76.479433,297.1978   C 46.479656,391.8371 -23.839823,390.31711 42.639684,509.99622   C 66.319509,552.63591 73.279457,724.15464 -57.119577,689.59489  " style="fill:none;stroke:#ffffff;stroke-width:1.3599899px;stroke-linecap:butt;stroke-linejoin:miter;stroke-miterlimit:10;stroke-dasharray:none;stroke-opacity:1;"/><path id="path147" d="  M 270.078,293.19783   C 270.078,313.03768 240.63822,329.11756 204.23849,329.11756   C 167.91876,329.11756 138.39897,313.03768 138.39897,293.19783   C 138.39897,273.35798 167.91876,257.27809 204.23849,257.27809   C 240.63822,257.27809 270.078,273.35798 270.078,293.19783   z " style="fill:none;stroke:#ffffff;stroke-width:1.3599899px;stroke-linecap:butt;stroke-linejoin:miter;stroke-miterlimit:10;stroke-dasharray:none;stroke-opacity:1;"/><path id="path149" d="  M 1600.1481,409.35697   C 1600.1481,409.35697 1335.9901,347.27743 1256.1507,607.9955   C 1198.9511,795.11411 1194.0712,897.11335 1075.272,948.55297   C 956.47292,999.99259 887.27343,1010.9525 880.23348,1066.6321  " style="fill:none;stroke:#ffffff;stroke-width:1.3599899px;stroke-linecap:butt;stroke-linejoin:miter;stroke-miterlimit:10;stroke-dasharray:none;stroke-opacity:1;" transform="matrix(1, 0, 0, 1, 0, 4.578627223853335)"/><path id="path151" d="  M 1192.2312,1066.6321   C 1192.2312,1066.6321 1122.5517,893.59338 1306.5503,803.11405   C 1430.7894,742.0745 1372.5498,534.79604 1453.0292,468.79653   C 1516.8688,416.47691 1600.1481,529.43608 1600.1481,529.43608  " style="fill:none;stroke:#ffffff;stroke-width:1.3599899px;stroke-linecap:butt;stroke-linejoin:miter;stroke-miterlimit:10;stroke-dasharray:none;stroke-opacity:1;"/><path id="path153" d="  M 1246.8708,1113.4318   C 1246.8708,1113.4318 1248.9507,979.51274 1390.8697,891.75339   C 1532.7086,803.99404 1477.1891,652.31517 1558.7885,629.27534   C 1640.3878,606.23551 1721.9872,705.51477 1721.9872,705.51477  " style="fill:none;stroke:#ffffff;stroke-width:1.3599899px;stroke-linecap:butt;stroke-linejoin:miter;stroke-miterlimit:10;stroke-dasharray:none;stroke-opacity:1;"/><path id="path155" d="  M 1346.63,1065.5921   C 1346.63,1065.5921 1335.9901,955.59292 1444.1493,941.43303   C 1552.3885,927.27313 1644.6278,1047.4322 1644.6278,1047.4322  " style="fill:none;stroke:#ffffff;stroke-width:1.3599899px;stroke-linecap:butt;stroke-linejoin:miter;stroke-miterlimit:10;stroke-dasharray:none;stroke-opacity:1;"/><path id="path157" d="  M 1675.4276,405.75699   L 1600.1481,481.03644   L 1524.8687,405.75699   L 1468.7091,461.91658   L 1543.9886,537.19602   L 1468.7091,612.47546   L 1524.8687,668.71505   L 1600.1481,593.4356   L 1675.4276,668.71505   L 1731.6672,612.47546   L 1656.3877,537.19602   L 1731.6672,461.91658   L 1675.4276,405.75699  z " style="fill:#ff0b53;fill-rule:nonzero;fill-opacity:1;stroke:none;"/><path id="path273" d="  M 949.99296,986.23269   L 949.99296,986.23269   L 949.99296,986.23269   L 949.99296,986.23269  z " style="fill:#ffffff;fill-rule:nonzero;fill-opacity:1;stroke:none;"/><path id="path277" d="  M 949.99296,986.23269   C 949.99296,986.39269 949.99296,986.23269 949.99296,986.23269   L 949.99296,986.23269   z " style="fill:#ffffff;fill-rule:nonzero;fill-opacity:1;stroke:none;" transform="matrix(1, 0, 0, 1, 0, 4.578627223853335)"/></g><path id="path-2" d="  M 161.8388,800.23407   L 119.83911,842.15376   L 77.919423,800.23407   L 46.559655,831.51384   L 88.559344,873.51353   L 46.559655,915.43322   L 77.919423,946.79299   L 119.83911,904.7933   L 161.8388,946.79299   L 193.11857,915.43322   L 151.19888,873.51353   L 193.11857,831.51384   z " style="fill:none;stroke:#ff0b53;stroke-width:5.3599601px;stroke-linecap:butt;stroke-linejoin:miter;stroke-miterlimit:10;stroke-dasharray:none;stroke-opacity:1;" transform="matrix(0.873624324798584, 0, 0, 0.873624324798584, 38.33476257324219, -25.436307907104492)"/></g></g></svg>