<?xml version="1.0" encoding="utf-8"?>
<svg id="master-artboard" viewBox="0 0 1397.5517578125 926.1405639648438" version="1.1" xmlns="http://www.w3.org/2000/svg" x="0px" y="0px" style="enable-background:new 0 0 1400 980;" width="1397.5517578125px" height="926.1405639648438px"><defs><path id="text-path-0" d="M 778.8464965820312 213.4612274169922 A 100 18 0 0 1 988.3533935546875 213.4612274169922 A 100 18 0 0 1 778.8464965820312 213.4612274169922 Z" style="fill: none; stroke: red; stroke-width: 2;"/><path id="text-path-1" d="M 664.5464477539062 37.96122741699219 A 100 19 0 0 1 876.5812377929688 37.96122741699219 A 100 19 0 0 1 664.5464477539062 37.96122741699219" style="fill: none; stroke: red; stroke-width: 2;"/><path id="text-path-2" d="M 765.3650512695312 211.70851135253906 A 100 17 0 0 1 991.5017700195312 211.70851135253906 A 100 17 0 0 1 765.3650512695312 211.70851135253906" style="fill: none; stroke: red; stroke-width: 2;"/><path id="path-1" d="M 765.3650512695312 211.70851135253906 A 100 17 0 0 1 991.5017700195312 211.70851135253906 A 100 17 0 0 1 765.3650512695312 211.70851135253906" style="fill: none; stroke: red; stroke-width: 2;"/><pattern y="0" x="0" height="6" width="6" patternUnits="userSpaceOnUse" id="EMFhbasepattern"/><style id="ee-google-fonts">@import url(https://fonts.googleapis.com/css?family=Allerta:400);</style></defs><rect id="ee-background" x="0" y="0" width="1397.5517578125" height="926.1405639648438" style="fill: white; fill-opacity: 0; pointer-events: none;"/>


<g transform="matrix(1.0000001192092896, 0, 0, 1.0000001192092896, -0.00003735591599252075, -3.6014041900634766)"><rect id="rect-1" x="0" y="0" width="1400" height="928.4468994140625" style="fill: white; fill-opacity: 0; pointer-events: none;"/><path d="M 880.3870239257812 239.90606689453125" style="fill: rgb(63, 61, 61); fill-opacity: 1; stroke: rgb(0, 0, 0); stroke-opacity: 1; stroke-width: 0; paint-order: fill;" transform="matrix(1, 0, 0, 1, 0, -29.458940505981445)"/><path d="M 864.144775390625 229.48651123046875" style="fill: rgb(63, 61, 61); fill-opacity: 1; stroke: rgb(0, 0, 0); stroke-opacity: 1; stroke-width: 0; paint-order: fill;" transform="matrix(1, 0, 0, 1, 0, -29.458940505981445)"/><g transform="matrix(0.873624324798584, 0, 0, 0.873624324798584, -0.00003735591599252075, -6.67601203918457)"><metadata id="metadata321">
    
  </metadata><path id="path5" d="  M 1600.1481,1066.6321   L 0,1066.6321   L 0,0   L 1600.1481,0   L 1600.1481,1066.6321  z " style="fill:#1f2228;fill-rule:nonzero;fill-opacity:1;stroke:none;" transform="matrix(1, 0, 0, 1, 0, 4.578627223853335)"/><path id="path7" d="  M 216.4784,257.27809   C 216.4784,153.35886 300.71777,69.119488 404.637,69.119488   C 508.55623,69.119488 592.79561,153.35886 592.79561,257.27809   C 592.79561,361.19732 508.55623,445.5167 404.637,445.5167   C 300.71777,445.5167 216.4784,361.19732 216.4784,257.27809   z " style="fill:#ff0b53;fill-rule:nonzero;fill-opacity:1;stroke:none;"/><path id="path9" d="  M 123.75908,23.119829   C 123.75908,25.199813 121.9991,26.9598 119.83911,26.9598   C 117.75913,26.9598 115.99914,25.199813 115.99914,23.119829   C 115.99914,20.959845 117.75913,19.199858 119.83911,19.199858   C 121.9991,19.199858 123.75908,20.959845 123.75908,23.119829   z " style="fill:#ffffff;fill-rule:nonzero;fill-opacity:1;stroke:none;"/><path id="path11" d="  M 293.83782,23.119829   C 293.83782,25.199813 292.07784,26.9598 289.91785,26.9598   C 287.83787,26.9598 286.07788,25.199813 286.07788,23.119829   C 286.07788,20.959845 287.83787,19.199858 289.91785,19.199858   C 292.07784,19.199858 293.83782,20.959845 293.83782,23.119829   z " style="fill:#ffffff;fill-rule:nonzero;fill-opacity:1;stroke:none;"/><path id="path13" d="  M 463.91656,23.119829   C 463.91656,25.199813 462.15658,26.9598 459.99659,26.9598   C 457.91661,26.9598 456.15662,25.199813 456.15662,23.119829   C 456.15662,20.959845 457.91661,19.199858 459.99659,19.199858   C 462.15658,19.199858 463.91656,20.959845 463.91656,23.119829   z " style="fill:#ffffff;fill-rule:nonzero;fill-opacity:1;stroke:none;"/><path id="path15" d="  M 633.9953,23.119829   C 633.9953,25.199813 632.23532,26.9598 630.07533,26.9598   C 627.99535,26.9598 626.23536,25.199813 626.23536,23.119829   C 626.23536,20.959845 627.99535,19.199858 630.07533,19.199858   C 632.23532,19.199858 633.9953,20.959845 633.9953,23.119829   z " style="fill:#ffffff;fill-rule:nonzero;fill-opacity:1;stroke:none;"/><path id="path17" d="  M 804.07404,23.119829   C 804.07404,25.199813 802.31406,26.9598 800.15407,26.9598   C 798.07409,26.9598 796.3141,25.199813 796.3141,23.119829   C 796.3141,20.959845 798.07409,19.199858 800.15407,19.199858   C 802.31406,19.199858 804.07404,20.959845 804.07404,23.119829   z " style="fill:#ffffff;fill-rule:nonzero;fill-opacity:1;stroke:none;"/><path id="path19" d="  M 974.15278,23.119829   C 974.15278,25.199813 972.3928,26.9598 970.23281,26.9598   C 968.15283,26.9598 966.39284,25.199813 966.39284,23.119829   C 966.39284,20.959845 968.15283,19.199858 970.23281,19.199858   C 972.3928,19.199858 974.15278,20.959845 974.15278,23.119829   z " style="fill:#ffffff;fill-rule:nonzero;fill-opacity:1;stroke:none;"/><path id="path21" d="  M 1144.2315,23.119829   C 1144.2315,25.199813 1142.4715,26.9598 1140.3916,26.9598   C 1138.2316,26.9598 1136.4716,25.199813 1136.4716,23.119829   C 1136.4716,20.959845 1138.2316,19.199858 1140.3916,19.199858   C 1142.4715,19.199858 1144.2315,20.959845 1144.2315,23.119829   z " style="fill:#ffffff;fill-rule:nonzero;fill-opacity:1;stroke:none;"/><path id="path23" d="  M 1314.3103,23.119829   C 1314.3103,25.199813 1312.5503,26.9598 1310.4703,26.9598   C 1308.3103,26.9598 1306.5503,25.199813 1306.5503,23.119829   C 1306.5503,20.959845 1308.3103,19.199858 1310.4703,19.199858   C 1312.5503,19.199858 1314.3103,20.959845 1314.3103,23.119829   z " style="fill:#ffffff;fill-rule:nonzero;fill-opacity:1;stroke:none;"/><path id="path25" d="  M 1484.389,23.119829   C 1484.389,25.199813 1482.629,26.9598 1480.549,26.9598   C 1478.389,26.9598 1476.6291,25.199813 1476.6291,23.119829   C 1476.6291,20.959845 1478.389,19.199858 1480.549,19.199858   C 1482.629,19.199858 1484.389,20.959845 1484.389,23.119829   z " style="fill:#ffffff;fill-rule:nonzero;fill-opacity:1;stroke:none;"/><path id="path27" d="  M 123.75908,193.19857   C 123.75908,195.27855 121.9991,197.03854 119.83911,197.03854   C 117.75913,197.03854 115.99914,195.27855 115.99914,193.19857   C 115.99914,191.03858 117.75913,189.2786 119.83911,189.2786   C 121.9991,189.2786 123.75908,191.03858 123.75908,193.19857   z " style="fill:#ffffff;fill-rule:nonzero;fill-opacity:1;stroke:none;"/><path id="path29" d="  M 293.83782,193.19857   C 293.83782,195.27855 292.07784,197.03854 289.91785,197.03854   C 287.83787,197.03854 286.07788,195.27855 286.07788,193.19857   C 286.07788,191.03858 287.83787,189.2786 289.91785,189.2786   C 292.07784,189.2786 293.83782,191.03858 293.83782,193.19857   z " style="fill:#ffffff;fill-rule:nonzero;fill-opacity:1;stroke:none;"/><path id="path31" d="  M 463.91656,193.19857   C 463.91656,195.27855 462.15658,197.03854 459.99659,197.03854   C 457.91661,197.03854 456.15662,195.27855 456.15662,193.19857   C 456.15662,191.03858 457.91661,189.2786 459.99659,189.2786   C 462.15658,189.2786 463.91656,191.03858 463.91656,193.19857   z " style="fill:#ffffff;fill-rule:nonzero;fill-opacity:1;stroke:none;"/><path id="path33" d="  M 633.9953,193.19857   C 633.9953,195.27855 632.23532,197.03854 630.07533,197.03854   C 627.99535,197.03854 626.23536,195.27855 626.23536,193.19857   C 626.23536,191.03858 627.99535,189.2786 630.07533,189.2786   C 632.23532,189.2786 633.9953,191.03858 633.9953,193.19857   z " style="fill:#ffffff;fill-rule:nonzero;fill-opacity:1;stroke:none;"/><path id="path35" d="  M 804.07404,193.19857   C 804.07404,195.27855 802.31406,197.03854 800.15407,197.03854   C 798.07409,197.03854 796.3141,195.27855 796.3141,193.19857   C 796.3141,191.03858 798.07409,189.2786 800.15407,189.2786   C 802.31406,189.2786 804.07404,191.03858 804.07404,193.19857   z " style="fill:#ffffff;fill-rule:nonzero;fill-opacity:1;stroke:none;"/><path id="path37" d="  M 974.15278,193.19857   C 974.15278,195.27855 972.3928,197.03854 970.23281,197.03854   C 968.15283,197.03854 966.39284,195.27855 966.39284,193.19857   C 966.39284,191.03858 968.15283,189.2786 970.23281,189.2786   C 972.3928,189.2786 974.15278,191.03858 974.15278,193.19857   z " style="fill:#ffffff;fill-rule:nonzero;fill-opacity:1;stroke:none;"/><path id="path39" d="  M 1144.2315,193.19857   C 1144.2315,195.27855 1142.4715,197.03854 1140.3916,197.03854   C 1138.2316,197.03854 1136.4716,195.27855 1136.4716,193.19857   C 1136.4716,191.03858 1138.2316,189.2786 1140.3916,189.2786   C 1142.4715,189.2786 1144.2315,191.03858 1144.2315,193.19857   z " style="fill:#ffffff;fill-rule:nonzero;fill-opacity:1;stroke:none;"/><path id="path41" d="  M 1314.3103,193.19857   C 1314.3103,195.27855 1312.5503,197.03854 1310.4703,197.03854   C 1308.3103,197.03854 1306.5503,195.27855 1306.5503,193.19857   C 1306.5503,191.03858 1308.3103,189.2786 1310.4703,189.2786   C 1312.5503,189.2786 1314.3103,191.03858 1314.3103,193.19857   z " style="fill:#ffffff;fill-rule:nonzero;fill-opacity:1;stroke:none;"/><path id="path43" d="  M 1484.389,193.19857   C 1484.389,195.27855 1482.629,197.03854 1480.549,197.03854   C 1478.389,197.03854 1476.6291,195.27855 1476.6291,193.19857   C 1476.6291,191.03858 1478.389,189.2786 1480.549,189.2786   C 1482.629,189.2786 1484.389,191.03858 1484.389,193.19857   z " style="fill:#ffffff;fill-rule:nonzero;fill-opacity:1;stroke:none;"/><path id="path45" d="  M 123.75908,363.27731   C 123.75908,365.35729 121.9991,367.11728 119.83911,367.11728   C 117.75913,367.11728 115.99914,365.35729 115.99914,363.27731   C 115.99914,361.11733 117.75913,359.35734 119.83911,359.35734   C 121.9991,359.35734 123.75908,361.11733 123.75908,363.27731   z " style="fill:#ffffff;fill-rule:nonzero;fill-opacity:1;stroke:none;"/><path id="path47" d="  M 293.83782,363.27731   C 293.83782,365.35729 292.07784,367.11728 289.91785,367.11728   C 287.83787,367.11728 286.07788,365.35729 286.07788,363.27731   C 286.07788,361.11733 287.83787,359.35734 289.91785,359.35734   C 292.07784,359.35734 293.83782,361.11733 293.83782,363.27731   z " style="fill:#ffffff;fill-rule:nonzero;fill-opacity:1;stroke:none;"/><path id="path49" d="  M 463.91656,363.27731   C 463.91656,365.35729 462.15658,367.11728 459.99659,367.11728   C 457.91661,367.11728 456.15662,365.35729 456.15662,363.27731   C 456.15662,361.11733 457.91661,359.35734 459.99659,359.35734   C 462.15658,359.35734 463.91656,361.11733 463.91656,363.27731   z " style="fill:#ffffff;fill-rule:nonzero;fill-opacity:1;stroke:none;"/><path id="path51" d="  M 633.9953,363.27731   C 633.9953,365.35729 632.23532,367.11728 630.07533,367.11728   C 627.99535,367.11728 626.23536,365.35729 626.23536,363.27731   C 626.23536,361.11733 627.99535,359.35734 630.07533,359.35734   C 632.23532,359.35734 633.9953,361.11733 633.9953,363.27731   z " style="fill:#ffffff;fill-rule:nonzero;fill-opacity:1;stroke:none;"/><path id="path53" d="  M 804.07404,363.27731   C 804.07404,365.35729 802.31406,367.11728 800.15407,367.11728   C 798.07409,367.11728 796.3141,365.35729 796.3141,363.27731   C 796.3141,361.11733 798.07409,359.35734 800.15407,359.35734   C 802.31406,359.35734 804.07404,361.11733 804.07404,363.27731   z " style="fill:#ffffff;fill-rule:nonzero;fill-opacity:1;stroke:none;"/><path id="path55" d="  M 974.15278,363.27731   C 974.15278,365.35729 972.3928,367.11728 970.23281,367.11728   C 968.15283,367.11728 966.39284,365.35729 966.39284,363.27731   C 966.39284,361.11733 968.15283,359.35734 970.23281,359.35734   C 972.3928,359.35734 974.15278,361.11733 974.15278,363.27731   z " style="fill:#ffffff;fill-rule:nonzero;fill-opacity:1;stroke:none;"/><path id="path57" d="  M 1144.2315,363.27731   C 1144.2315,365.35729 1142.4715,367.11728 1140.3916,367.11728   C 1138.2316,367.11728 1136.4716,365.35729 1136.4716,363.27731   C 1136.4716,361.11733 1138.2316,359.35734 1140.3916,359.35734   C 1142.4715,359.35734 1144.2315,361.11733 1144.2315,363.27731   z " style="fill:#ffffff;fill-rule:nonzero;fill-opacity:1;stroke:none;"/><path id="path59" d="  M 1314.3103,363.27731   C 1314.3103,365.35729 1312.5503,367.11728 1310.4703,367.11728   C 1308.3103,367.11728 1306.5503,365.35729 1306.5503,363.27731   C 1306.5503,361.11733 1308.3103,359.35734 1310.4703,359.35734   C 1312.5503,359.35734 1314.3103,361.11733 1314.3103,363.27731   z " style="fill:#ffffff;fill-rule:nonzero;fill-opacity:1;stroke:none;"/><path id="path61" d="  M 1484.389,363.27731   C 1484.389,365.35729 1482.629,367.11728 1480.549,367.11728   C 1478.389,367.11728 1476.6291,365.35729 1476.6291,363.27731   C 1476.6291,361.11733 1478.389,359.35734 1480.549,359.35734   C 1482.629,359.35734 1484.389,361.11733 1484.389,363.27731   z " style="fill:#ffffff;fill-rule:nonzero;fill-opacity:1;stroke:none;"/><path id="path63" d="  M 123.75908,533.35605   C 123.75908,535.43603 121.9991,537.19602 119.83911,537.19602   C 117.75913,537.19602 115.99914,535.43603 115.99914,533.35605   C 115.99914,531.19607 117.75913,529.43608 119.83911,529.43608   C 121.9991,529.43608 123.75908,531.19607 123.75908,533.35605   z " style="fill:#ffffff;fill-rule:nonzero;fill-opacity:1;stroke:none;"/><path id="path65" d="  M 293.83782,533.35605   C 293.83782,535.43603 292.07784,537.19602 289.91785,537.19602   C 287.83787,537.19602 286.07788,535.43603 286.07788,533.35605   C 286.07788,531.19607 287.83787,529.43608 289.91785,529.43608   C 292.07784,529.43608 293.83782,531.19607 293.83782,533.35605   z " style="fill:#ffffff;fill-rule:nonzero;fill-opacity:1;stroke:none;"/><path id="path67" d="  M 463.91656,533.35605   C 463.91656,535.43603 462.15658,537.19602 459.99659,537.19602   C 457.91661,537.19602 456.15662,535.43603 456.15662,533.35605   C 456.15662,531.19607 457.91661,529.43608 459.99659,529.43608   C 462.15658,529.43608 463.91656,531.19607 463.91656,533.35605   z " style="fill:#ffffff;fill-rule:nonzero;fill-opacity:1;stroke:none;"/><path id="path69" d="  M 633.9953,533.35605   C 633.9953,535.43603 632.23532,537.19602 630.07533,537.19602   C 627.99535,537.19602 626.23536,535.43603 626.23536,533.35605   C 626.23536,531.19607 627.99535,529.43608 630.07533,529.43608   C 632.23532,529.43608 633.9953,531.19607 633.9953,533.35605   z " style="fill:#ffffff;fill-rule:nonzero;fill-opacity:1;stroke:none;"/><path id="path71" d="  M 804.07404,533.35605   C 804.07404,535.43603 802.31406,537.19602 800.15407,537.19602   C 798.07409,537.19602 796.3141,535.43603 796.3141,533.35605   C 796.3141,531.19607 798.07409,529.43608 800.15407,529.43608   C 802.31406,529.43608 804.07404,531.19607 804.07404,533.35605   z " style="fill:#ffffff;fill-rule:nonzero;fill-opacity:1;stroke:none;"/><path id="path73" d="  M 974.15278,533.35605   C 974.15278,535.43603 972.3928,537.19602 970.23281,537.19602   C 968.15283,537.19602 966.39284,535.43603 966.39284,533.35605   C 966.39284,531.19607 968.15283,529.43608 970.23281,529.43608   C 972.3928,529.43608 974.15278,531.19607 974.15278,533.35605   z " style="fill:#ffffff;fill-rule:nonzero;fill-opacity:1;stroke:none;"/><path id="path75" d="  M 1144.2315,533.35605   C 1144.2315,535.43603 1142.4715,537.19602 1140.3916,537.19602   C 1138.2316,537.19602 1136.4716,535.43603 1136.4716,533.35605   C 1136.4716,531.19607 1138.2316,529.43608 1140.3916,529.43608   C 1142.4715,529.43608 1144.2315,531.19607 1144.2315,533.35605   z " style="fill:#ffffff;fill-rule:nonzero;fill-opacity:1;stroke:none;"/><path id="path77" d="  M 1314.3103,533.35605   C 1314.3103,535.43603 1312.5503,537.19602 1310.4703,537.19602   C 1308.3103,537.19602 1306.5503,535.43603 1306.5503,533.35605   C 1306.5503,531.19607 1308.3103,529.43608 1310.4703,529.43608   C 1312.5503,529.43608 1314.3103,531.19607 1314.3103,533.35605   z " style="fill:#ffffff;fill-rule:nonzero;fill-opacity:1;stroke:none;"/><path id="path79" d="  M 1484.389,533.35605   C 1484.389,535.43603 1482.629,537.19602 1480.549,537.19602   C 1478.389,537.19602 1476.6291,535.43603 1476.6291,533.35605   C 1476.6291,531.19607 1478.389,529.43608 1480.549,529.43608   C 1482.629,529.43608 1484.389,531.19607 1484.389,533.35605   z " style="fill:#ffffff;fill-rule:nonzero;fill-opacity:1;stroke:none;"/><path id="path81" d="  M 123.75908,703.43479   C 123.75908,705.51477 121.9991,707.27476 119.83911,707.27476   C 117.75913,707.27476 115.99914,705.51477 115.99914,703.43479   C 115.99914,701.27481 117.75913,699.51482 119.83911,699.51482   C 121.9991,699.51482 123.75908,701.27481 123.75908,703.43479   z " style="fill:#ffffff;fill-rule:nonzero;fill-opacity:1;stroke:none;"/><path id="path83" d="  M 293.83782,703.43479   C 293.83782,705.51477 292.07784,707.27476 289.91785,707.27476   C 287.83787,707.27476 286.07788,705.51477 286.07788,703.43479   C 286.07788,701.27481 287.83787,699.51482 289.91785,699.51482   C 292.07784,699.51482 293.83782,701.27481 293.83782,703.43479   z " style="fill:#ffffff;fill-rule:nonzero;fill-opacity:1;stroke:none;"/><path id="path85" d="  M 463.91656,703.43479   C 463.91656,705.51477 462.15658,707.27476 459.99659,707.27476   C 457.91661,707.27476 456.15662,705.51477 456.15662,703.43479   C 456.15662,701.27481 457.91661,699.51482 459.99659,699.51482   C 462.15658,699.51482 463.91656,701.27481 463.91656,703.43479   z " style="fill:#ffffff;fill-rule:nonzero;fill-opacity:1;stroke:none;"/><path id="path87" d="  M 633.9953,703.43479   C 633.9953,705.51477 632.23532,707.27476 630.07533,707.27476   C 627.99535,707.27476 626.23536,705.51477 626.23536,703.43479   C 626.23536,701.27481 627.99535,699.51482 630.07533,699.51482   C 632.23532,699.51482 633.9953,701.27481 633.9953,703.43479   z " style="fill:#ffffff;fill-rule:nonzero;fill-opacity:1;stroke:none;"/><path id="path89" d="  M 804.07404,703.43479   C 804.07404,705.51477 802.31406,707.27476 800.15407,707.27476   C 798.07409,707.27476 796.3141,705.51477 796.3141,703.43479   C 796.3141,701.27481 798.07409,699.51482 800.15407,699.51482   C 802.31406,699.51482 804.07404,701.27481 804.07404,703.43479   z " style="fill:#ffffff;fill-rule:nonzero;fill-opacity:1;stroke:none;"/><path id="path91" d="  M 974.15278,703.43479   C 974.15278,705.51477 972.3928,707.27476 970.23281,707.27476   C 968.15283,707.27476 966.39284,705.51477 966.39284,703.43479   C 966.39284,701.27481 968.15283,699.51482 970.23281,699.51482   C 972.3928,699.51482 974.15278,701.27481 974.15278,703.43479   z " style="fill:#ffffff;fill-rule:nonzero;fill-opacity:1;stroke:none;"/><path id="path93" d="  M 1144.2315,703.43479   C 1144.2315,705.51477 1142.4715,707.27476 1140.3916,707.27476   C 1138.2316,707.27476 1136.4716,705.51477 1136.4716,703.43479   C 1136.4716,701.27481 1138.2316,699.51482 1140.3916,699.51482   C 1142.4715,699.51482 1144.2315,701.27481 1144.2315,703.43479   z " style="fill:#ffffff;fill-rule:nonzero;fill-opacity:1;stroke:none;"/><path id="path95" d="  M 1314.3103,703.43479   C 1314.3103,705.51477 1312.5503,707.27476 1310.4703,707.27476   C 1308.3103,707.27476 1306.5503,705.51477 1306.5503,703.43479   C 1306.5503,701.27481 1308.3103,699.51482 1310.4703,699.51482   C 1312.5503,699.51482 1314.3103,701.27481 1314.3103,703.43479   z " style="fill:#ffffff;fill-rule:nonzero;fill-opacity:1;stroke:none;"/><path id="path97" d="  M 1484.389,703.43479   C 1484.389,705.51477 1482.629,707.27476 1480.549,707.27476   C 1478.389,707.27476 1476.6291,705.51477 1476.6291,703.43479   C 1476.6291,701.27481 1478.389,699.51482 1480.549,699.51482   C 1482.629,699.51482 1484.389,701.27481 1484.389,703.43479   z " style="fill:#ffffff;fill-rule:nonzero;fill-opacity:1;stroke:none;"/><path id="path99" d="  M 123.75908,873.51353   C 123.75908,875.67351 121.9991,877.3535 119.83911,877.3535   C 117.75913,877.3535 115.99914,875.67351 115.99914,873.51353   C 115.99914,871.35355 117.75913,869.59356 119.83911,869.59356   C 121.9991,869.59356 123.75908,871.35355 123.75908,873.51353   z " style="fill:#ffffff;fill-rule:nonzero;fill-opacity:1;stroke:none;"/><path id="path101" d="  M 293.83782,873.51353   C 293.83782,875.67351 292.07784,877.3535 289.91785,877.3535   C 287.83787,877.3535 286.07788,875.67351 286.07788,873.51353   C 286.07788,871.35355 287.83787,869.59356 289.91785,869.59356   C 292.07784,869.59356 293.83782,871.35355 293.83782,873.51353   z " style="fill:#ffffff;fill-rule:nonzero;fill-opacity:1;stroke:none;"/><path id="path103" d="  M 463.91656,873.51353   C 463.91656,875.67351 462.15658,877.3535 459.99659,877.3535   C 457.91661,877.3535 456.15662,875.67351 456.15662,873.51353   C 456.15662,871.35355 457.91661,869.59356 459.99659,869.59356   C 462.15658,869.59356 463.91656,871.35355 463.91656,873.51353   z " style="fill:#ffffff;fill-rule:nonzero;fill-opacity:1;stroke:none;"/><path id="path105" d="  M 633.9953,873.51353   C 633.9953,875.67351 632.23532,877.3535 630.07533,877.3535   C 627.99535,877.3535 626.23536,875.67351 626.23536,873.51353   C 626.23536,871.35355 627.99535,869.59356 630.07533,869.59356   C 632.23532,869.59356 633.9953,871.35355 633.9953,873.51353   z " style="fill:#ffffff;fill-rule:nonzero;fill-opacity:1;stroke:none;"/><path id="path107" d="  M 804.07404,873.51353   C 804.07404,875.67351 802.31406,877.3535 800.15407,877.3535   C 798.07409,877.3535 796.3141,875.67351 796.3141,873.51353   C 796.3141,871.35355 798.07409,869.59356 800.15407,869.59356   C 802.31406,869.59356 804.07404,871.35355 804.07404,873.51353   z " style="fill:#ffffff;fill-rule:nonzero;fill-opacity:1;stroke:none;"/><path id="path109" d="  M 974.15278,873.51353   C 974.15278,875.67351 972.3928,877.3535 970.23281,877.3535   C 968.15283,877.3535 966.39284,875.67351 966.39284,873.51353   C 966.39284,871.35355 968.15283,869.59356 970.23281,869.59356   C 972.3928,869.59356 974.15278,871.35355 974.15278,873.51353   z " style="fill:#ffffff;fill-rule:nonzero;fill-opacity:1;stroke:none;"/><path id="path111" d="  M 1144.2315,873.51353   C 1144.2315,875.67351 1142.4715,877.3535 1140.3916,877.3535   C 1138.2316,877.3535 1136.4716,875.67351 1136.4716,873.51353   C 1136.4716,871.35355 1138.2316,869.59356 1140.3916,869.59356   C 1142.4715,869.59356 1144.2315,871.35355 1144.2315,873.51353   z " style="fill:#ffffff;fill-rule:nonzero;fill-opacity:1;stroke:none;"/><path id="path113" d="  M 1314.3103,873.51353   C 1314.3103,875.67351 1312.5503,877.3535 1310.4703,877.3535   C 1308.3103,877.3535 1306.5503,875.67351 1306.5503,873.51353   C 1306.5503,871.35355 1308.3103,869.59356 1310.4703,869.59356   C 1312.5503,869.59356 1314.3103,871.35355 1314.3103,873.51353   z " style="fill:#ffffff;fill-rule:nonzero;fill-opacity:1;stroke:none;"/><path id="path115" d="  M 1484.389,873.51353   C 1484.389,875.67351 1482.629,877.3535 1480.549,877.3535   C 1478.389,877.3535 1476.6291,875.67351 1476.6291,873.51353   C 1476.6291,871.35355 1478.389,869.59356 1480.549,869.59356   C 1482.629,869.59356 1484.389,871.35355 1484.389,873.51353   z " style="fill:#ffffff;fill-rule:nonzero;fill-opacity:1;stroke:none;"/><path id="path117" d="  M 123.75908,1043.5923   C 123.75908,1045.7523 121.9991,1047.4322 119.83911,1047.4322   C 117.75913,1047.4322 115.99914,1045.7523 115.99914,1043.5923   C 115.99914,1041.4323 117.75913,1039.6723 119.83911,1039.6723   C 121.9991,1039.6723 123.75908,1041.4323 123.75908,1043.5923   z " style="fill:#ffffff;fill-rule:nonzero;fill-opacity:1;stroke:none;"/><path id="path119" d="  M 293.83782,1043.5923   C 293.83782,1045.7523 292.07784,1047.4322 289.91785,1047.4322   C 287.83787,1047.4322 286.07788,1045.7523 286.07788,1043.5923   C 286.07788,1041.4323 287.83787,1039.6723 289.91785,1039.6723   C 292.07784,1039.6723 293.83782,1041.4323 293.83782,1043.5923   z " style="fill:#ffffff;fill-rule:nonzero;fill-opacity:1;stroke:none;"/><path id="path121" d="  M 463.91656,1043.5923   C 463.91656,1045.7523 462.15658,1047.4322 459.99659,1047.4322   C 457.91661,1047.4322 456.15662,1045.7523 456.15662,1043.5923   C 456.15662,1041.4323 457.91661,1039.6723 459.99659,1039.6723   C 462.15658,1039.6723 463.91656,1041.4323 463.91656,1043.5923   z " style="fill:#ffffff;fill-rule:nonzero;fill-opacity:1;stroke:none;"/><path id="path137" d="  M 829.99385,1591.7482   C 597.27558,1591.7482 408.55697,1403.1096 408.55697,1170.3113   C 408.55697,937.59305 597.27558,748.95445 829.99385,748.95445   C 1062.7121,748.95445 1251.4307,937.59305 1251.4307,1170.3113   C 1251.4307,1403.1096 1062.7121,1591.7482 829.99385,1591.7482   z  M 829.99385,554.87589   C 490.07637,554.87589 214.55841,830.39385 214.55841,1170.3113   C 214.55841,1510.2288 490.07637,1785.7468 829.99385,1785.7468   C 1169.9113,1785.7468 1445.4293,1510.2288 1445.4293,1170.3113   C 1445.4293,830.39385 1169.9113,554.87589 829.99385,554.87589  " style="fill:#ff0b53;fill-rule:nonzero;fill-opacity:1;stroke:none;" transform="matrix(0.7306104898452759, 0, 0, 0.7306104898452759, 97.1402445309559, 207.44700881050255)"/><path id="path123" d="  M 633.9953,1043.5923   C 633.9953,1045.7523 632.23532,1047.4322 630.07533,1047.4322   C 627.99535,1047.4322 626.23536,1045.7523 626.23536,1043.5923   C 626.23536,1041.4323 627.99535,1039.6723 630.07533,1039.6723   C 632.23532,1039.6723 633.9953,1041.4323 633.9953,1043.5923   z " style="fill:#ffffff;fill-rule:nonzero;fill-opacity:1;stroke:none;"/><path id="path125" d="  M 804.07404,1043.5923   C 804.07404,1045.7523 802.31406,1047.4322 800.15407,1047.4322   C 798.07409,1047.4322 796.3141,1045.7523 796.3141,1043.5923   C 796.3141,1041.4323 798.07409,1039.6723 800.15407,1039.6723   C 802.31406,1039.6723 804.07404,1041.4323 804.07404,1043.5923   z " style="fill:#ffffff;fill-rule:nonzero;fill-opacity:1;stroke:none;" transform="matrix(1, 0, 0, 1, 0, 4.578627223853335)"/><path id="path127" d="  M 974.15278,1043.5923   C 974.15278,1045.7523 972.3928,1047.4322 970.23281,1047.4322   C 968.15283,1047.4322 966.39284,1045.7523 966.39284,1043.5923   C 966.39284,1041.4323 968.15283,1039.6723 970.23281,1039.6723   C 972.3928,1039.6723 974.15278,1041.4323 974.15278,1043.5923   z " style="fill:#ffffff;fill-rule:nonzero;fill-opacity:1;stroke:none;" transform="matrix(1, 0, 0, 1, 0, 4.578627223853335)"/><path id="path129" d="  M 1144.2315,1043.5923   C 1144.2315,1045.7523 1142.4715,1047.4322 1140.3916,1047.4322   C 1138.2316,1047.4322 1136.4716,1045.7523 1136.4716,1043.5923   C 1136.4716,1041.4323 1138.2316,1039.6723 1140.3916,1039.6723   C 1142.4715,1039.6723 1144.2315,1041.4323 1144.2315,1043.5923   z " style="fill:#ffffff;fill-rule:nonzero;fill-opacity:1;stroke:none;"/><path id="path131" d="  M 1314.3103,1043.5923   C 1314.3103,1045.7523 1312.5503,1047.4322 1310.4703,1047.4322   C 1308.3103,1047.4322 1306.5503,1045.7523 1306.5503,1043.5923   C 1306.5503,1041.4323 1308.3103,1039.6723 1310.4703,1039.6723   C 1312.5503,1039.6723 1314.3103,1041.4323 1314.3103,1043.5923   z " style="fill:#ffffff;fill-rule:nonzero;fill-opacity:1;stroke:none;"/><path id="path133" d="  M 1484.389,1043.5923   C 1484.389,1045.7523 1482.629,1047.4322 1480.549,1047.4322   C 1478.389,1047.4322 1476.6291,1045.7523 1476.6291,1043.5923   C 1476.6291,1041.4323 1478.389,1039.6723 1480.549,1039.6723   C 1482.629,1039.6723 1484.389,1041.4323 1484.389,1043.5923   z " style="fill:#ffffff;fill-rule:nonzero;fill-opacity:1;stroke:none;"/><path id="path135" d="  M 161.8388,800.23407   L 119.83911,842.15376   L 77.919423,800.23407   L 46.559655,831.51384   L 88.559344,873.51353   L 46.559655,915.43322   L 77.919423,946.79299   L 119.83911,904.7933   L 161.8388,946.79299   L 193.11857,915.43322   L 151.19888,873.51353   L 193.11857,831.51384   z " style="fill:none;stroke:#ff0b53;stroke-width:5.3599601px;stroke-linecap:butt;stroke-linejoin:miter;stroke-miterlimit:10;stroke-dasharray:none;stroke-opacity:1;" transform="matrix(1, 0, 0, 1, 714.8719577099288, -640.6871319098418)"/><path id="path139" d="  M 1314.3103,138.87897   C 1229.9109,138.87897 1161.4314,70.399479 1161.4314,-13.999896   C 1161.4314,-98.399271 1229.9109,-166.87876 1314.3103,-166.87876   C 1398.7096,-166.87876 1467.1891,-98.399271 1467.1891,-13.999896   C 1467.1891,70.399479 1398.7096,138.87897 1314.3103,138.87897   z  M 1314.3103,-321.19762   C 1144.6315,-321.19762 1007.1125,-183.67864 1007.1125,-13.999896   C 1007.1125,155.67885 1144.6315,293.19783 1314.3103,293.19783   C 1483.989,293.19783 1621.508,155.67885 1621.508,-13.999896   C 1621.508,-183.67864 1483.989,-321.19762 1314.3103,-321.19762   z " style="fill:#ff0b53;fill-rule:nonzero;fill-opacity:1;stroke:none;"/><path id="path141" d="  M -57.119577,39.11971   C -57.119577,39.11971 10.719921,158.87882 178.31868,137.59898   C 366.23729,113.75916 447.03669,251.99813 400.47703,346.39743   C 353.91738,440.87673 147.11891,460.79659 175.9987,613.75545   C 204.95848,766.71432 -46.479656,835.91381 -46.479656,835.91381  " style="fill:none;stroke:#ffffff;stroke-width:1.3599899px;stroke-linecap:butt;stroke-linejoin:miter;stroke-miterlimit:10;stroke-dasharray:none;stroke-opacity:1;"/><path id="path143" d="  M -107.6792,177.51869   C -107.6792,177.51869 35.599736,229.3583 178.07868,210.71844   C 320.63762,192.15858 337.2775,275.83796 320.63762,309.19771   C 286.07788,378.3172 101.19925,391.6771 89.199339,503.35627   C 80.239406,587.35565 151.67888,700.23481 -10.559922,760.07437  " style="fill:none;stroke:#ffffff;stroke-width:1.3599899px;stroke-linecap:butt;stroke-linejoin:miter;stroke-miterlimit:10;stroke-dasharray:none;stroke-opacity:1;"/><path id="path145" d="  M -43.839675,233.35827   C -43.839675,233.35827 102.63924,214.63841 76.479433,297.1978   C 46.479656,391.8371 -23.839823,390.31711 42.639684,509.99622   C 66.319509,552.63591 73.279457,724.15464 -57.119577,689.59489  " style="fill:none;stroke:#ffffff;stroke-width:1.3599899px;stroke-linecap:butt;stroke-linejoin:miter;stroke-miterlimit:10;stroke-dasharray:none;stroke-opacity:1;"/><path id="path147" d="  M 270.078,293.19783   C 270.078,313.03768 240.63822,329.11756 204.23849,329.11756   C 167.91876,329.11756 138.39897,313.03768 138.39897,293.19783   C 138.39897,273.35798 167.91876,257.27809 204.23849,257.27809   C 240.63822,257.27809 270.078,273.35798 270.078,293.19783   z " style="fill:none;stroke:#ffffff;stroke-width:1.3599899px;stroke-linecap:butt;stroke-linejoin:miter;stroke-miterlimit:10;stroke-dasharray:none;stroke-opacity:1;"/><path id="path149" d="  M 1600.1481,409.35697   C 1600.1481,409.35697 1335.9901,347.27743 1256.1507,607.9955   C 1198.9511,795.11411 1194.0712,897.11335 1075.272,948.55297   C 956.47292,999.99259 887.27343,1010.9525 880.23348,1066.6321  " style="fill:none;stroke:#ffffff;stroke-width:1.3599899px;stroke-linecap:butt;stroke-linejoin:miter;stroke-miterlimit:10;stroke-dasharray:none;stroke-opacity:1;" transform="matrix(1, 0, 0, 1, 0, 4.578627223853335)"/><path id="path151" d="  M 1192.2312,1066.6321   C 1192.2312,1066.6321 1122.5517,893.59338 1306.5503,803.11405   C 1430.7894,742.0745 1372.5498,534.79604 1453.0292,468.79653   C 1516.8688,416.47691 1600.1481,529.43608 1600.1481,529.43608  " style="fill:none;stroke:#ffffff;stroke-width:1.3599899px;stroke-linecap:butt;stroke-linejoin:miter;stroke-miterlimit:10;stroke-dasharray:none;stroke-opacity:1;"/><path id="path153" d="  M 1246.8708,1113.4318   C 1246.8708,1113.4318 1248.9507,979.51274 1390.8697,891.75339   C 1532.7086,803.99404 1477.1891,652.31517 1558.7885,629.27534   C 1640.3878,606.23551 1721.9872,705.51477 1721.9872,705.51477  " style="fill:none;stroke:#ffffff;stroke-width:1.3599899px;stroke-linecap:butt;stroke-linejoin:miter;stroke-miterlimit:10;stroke-dasharray:none;stroke-opacity:1;"/><path id="path155" d="  M 1346.63,1065.5921   C 1346.63,1065.5921 1335.9901,955.59292 1444.1493,941.43303   C 1552.3885,927.27313 1644.6278,1047.4322 1644.6278,1047.4322  " style="fill:none;stroke:#ffffff;stroke-width:1.3599899px;stroke-linecap:butt;stroke-linejoin:miter;stroke-miterlimit:10;stroke-dasharray:none;stroke-opacity:1;"/><path id="path157" d="  M 1675.4276,405.75699   L 1600.1481,481.03644   L 1524.8687,405.75699   L 1468.7091,461.91658   L 1543.9886,537.19602   L 1468.7091,612.47546   L 1524.8687,668.71505   L 1600.1481,593.4356   L 1675.4276,668.71505   L 1731.6672,612.47546   L 1656.3877,537.19602   L 1731.6672,461.91658   L 1675.4276,405.75699  z " style="fill:#ff0b53;fill-rule:nonzero;fill-opacity:1;stroke:none;"/><path id="path273" d="  M 949.99296,986.23269   L 949.99296,986.23269   L 949.99296,986.23269   L 949.99296,986.23269  z " style="fill:#ffffff;fill-rule:nonzero;fill-opacity:1;stroke:none;"/><path id="path277" d="  M 949.99296,986.23269   C 949.99296,986.39269 949.99296,986.23269 949.99296,986.23269   L 949.99296,986.23269   z " style="fill:#ffffff;fill-rule:nonzero;fill-opacity:1;stroke:none;" transform="matrix(1, 0, 0, 1, 0, 4.578627223853335)"/></g><path id="path-2" d="  M 161.8388,800.23407   L 119.83911,842.15376   L 77.919423,800.23407   L 46.559655,831.51384   L 88.559344,873.51353   L 46.559655,915.43322   L 77.919423,946.79299   L 119.83911,904.7933   L 161.8388,946.79299   L 193.11857,915.43322   L 151.19888,873.51353   L 193.11857,831.51384   z " style="fill:none;stroke:#ff0b53;stroke-width:5.3599601px;stroke-linecap:butt;stroke-linejoin:miter;stroke-miterlimit:10;stroke-dasharray:none;stroke-opacity:1;" transform="matrix(0.873624324798584, 0, 0, 0.873624324798584, 38.33476257324219, -25.436307907104492)"/></g><path d="M 590.3757934570312 411.5757751464844 L 586.8057861328125 411.5757751464844 L 586.8057861328125 394.4457702636719 L 596.6257934570312 394.4457702636719 L 596.6257934570312 397.415771484375 L 590.3757934570312 397.415771484375 L 590.3757934570312 401.8357849121094 L 596.185791015625 401.8357849121094 L 596.185791015625 404.8057861328125 L 590.3757934570312 404.8057861328125 L 590.3757934570312 411.5757751464844 ZM 609.8353881835938 411.5757751464844 L 599.975341796875 411.5757751464844 L 599.975341796875 394.4457702636719 L 609.8353881835938 394.4457702636719 L 609.8353881835938 397.415771484375 L 603.6053466796875 397.415771484375 L 603.6053466796875 401.1857604980469 L 609.4053955078125 401.1857604980469 L 609.4053955078125 404.15576171875 L 603.6053466796875 404.15576171875 L 603.6053466796875 408.5757751464844 L 609.8353881835938 408.5757751464844 L 609.8353881835938 411.5757751464844 ZM 623.8944091796875 411.5757751464844 L 622.6544189453125 407.49578857421875 L 616.4143676757812 407.49578857421875 L 615.1643676757812 411.5757751464844 L 611.25439453125 411.5757751464844 L 617.3043823242188 394.3757629394531 L 621.744384765625 394.3757629394531 L 627.8143920898438 411.5757751464844 L 623.8944091796875 411.5757751464844 M 621.7943725585938 404.4457702636719 C 620.6410522460938 400.75244140625 619.994384765625 398.665771484375 619.8543701171875 398.1857604980469 C 619.7077026367188 397.6990966796875 619.6043701171875 397.3157653808594 619.5443725585938 397.0357666015625 C 619.284423828125 398.0357666015625 618.5443725585938 400.5057678222656 617.3244018554688 404.4457702636719 L 621.7943725585938 404.4457702636719 ZM 636.580078125 411.5757751464844 L 632.9400634765625 411.5757751464844 L 632.9400634765625 397.4657897949219 L 628.2900390625 397.4657897949219 L 628.2900390625 394.4457702636719 L 641.2300415039062 394.4457702636719 L 641.2300415039062 397.4657897949219 L 636.580078125 397.4657897949219 L 636.580078125 411.5757751464844 ZM 657.8060302734375 394.4457702636719 L 657.8060302734375 405.5257873535156 C 657.8060302734375 406.7924499511719 657.522705078125 407.9024353027344 656.9560546875 408.85577392578125 C 656.389404296875 409.8091125488281 655.5726928710938 410.53912353515625 654.5060424804688 411.0457763671875 C 653.4327392578125 411.55242919921875 652.1660766601562 411.8057861328125 650.7060546875 411.8057861328125 C 648.5060424804688 411.8057861328125 646.7960815429688 411.242431640625 645.5760498046875 410.11578369140625 C 644.3560791015625 408.9891052246094 643.7460327148438 407.4457702636719 643.7460327148438 405.48577880859375 L 643.7460327148438 394.4457702636719 L 647.3660278320312 394.4457702636719 L 647.3660278320312 404.9357604980469 C 647.3660278320312 406.2557678222656 647.6327514648438 407.2224426269531 648.1660766601562 407.8357849121094 C 648.6927490234375 408.4557800292969 649.5693969726562 408.7657775878906 650.7960815429688 408.7657775878906 C 651.9893798828125 408.7657775878906 652.8527221679688 408.4557800292969 653.3860473632812 407.8357849121094 C 653.9193725585938 407.2091064453125 654.18603515625 406.2324523925781 654.18603515625 404.90576171875 L 654.18603515625 394.4457702636719 L 657.8060302734375 394.4457702636719 ZM 665.6334838867188 402.0457763671875 L 666.8035278320312 402.0457763671875 C 667.9501953125 402.0457763671875 668.7968139648438 401.85577392578125 669.343505859375 401.47576904296875 C 669.8901977539062 401.089111328125 670.1635131835938 400.48577880859375 670.1635131835938 399.665771484375 C 670.1635131835938 398.8524475097656 669.8868408203125 398.2757873535156 669.33349609375 397.9357604980469 C 668.7734985351562 397.589111328125 667.9068603515625 397.415771484375 666.7335205078125 397.415771484375 L 665.6334838867188 397.415771484375 L 665.6334838867188 402.0457763671875 M 665.6334838867188 405.0057678222656 L 665.6334838867188 411.5757751464844 L 662.0034790039062 411.5757751464844 L 662.0034790039062 394.4457702636719 L 666.9935302734375 394.4457702636719 C 669.3201904296875 394.4457702636719 671.0435180664062 394.8691101074219 672.1635131835938 395.7157897949219 C 673.27685546875 396.56243896484375 673.83349609375 397.84912109375 673.83349609375 399.5757751464844 C 673.83349609375 400.5824279785156 673.5568237304688 401.4790954589844 673.0034790039062 402.2657775878906 C 672.4501953125 403.05242919921875 671.6635131835938 403.6690979003906 670.6434936523438 404.11578369140625 C 673.2235107421875 407.9624328613281 674.9035034179688 410.4490966796875 675.6835327148438 411.5757751464844 L 671.6535034179688 411.5757751464844 L 667.5634765625 405.0057678222656 L 665.6334838867188 405.0057678222656 ZM 687.7044677734375 411.5757751464844 L 677.8444213867188 411.5757751464844 L 677.8444213867188 394.4457702636719 L 687.7044677734375 394.4457702636719 L 687.7044677734375 397.415771484375 L 681.4744262695312 397.415771484375 L 681.4744262695312 401.1857604980469 L 687.2744750976562 401.1857604980469 L 687.2744750976562 404.15576171875 L 681.4744262695312 404.15576171875 L 681.4744262695312 408.5757751464844 L 687.7044677734375 408.5757751464844 L 687.7044677734375 411.5757751464844 ZM 701.3934936523438 406.8157653808594 C 701.3934936523438 408.3624267578125 700.8367919921875 409.5824279785156 699.7234497070312 410.47576904296875 C 698.6101684570312 411.3624267578125 697.0601196289062 411.8057861328125 695.073486328125 411.8057861328125 C 693.246826171875 411.8057861328125 691.630126953125 411.4624328613281 690.2234497070312 410.7757873535156 L 690.2234497070312 407.40576171875 C 691.3834838867188 407.9190979003906 692.3634643554688 408.2824401855469 693.1634521484375 408.49578857421875 C 693.9635009765625 408.70245361328125 694.6934814453125 408.8057861328125 695.3534545898438 408.8057861328125 C 696.1535034179688 408.8057861328125 696.7667846679688 408.65576171875 697.1934814453125 408.35577392578125 C 697.6201171875 408.0491027832031 697.83349609375 407.59576416015625 697.83349609375 406.99578857421875 C 697.83349609375 406.65576171875 697.7401123046875 406.35577392578125 697.553466796875 406.09576416015625 C 697.3601684570312 405.8357849121094 697.08349609375 405.5857849121094 696.7234497070312 405.34576416015625 C 696.3568115234375 405.09912109375 695.6168212890625 404.7124328613281 694.5034790039062 404.1857604980469 C 693.456787109375 403.69244384765625 692.670166015625 403.2191162109375 692.1434936523438 402.7657775878906 C 691.6234741210938 402.31243896484375 691.206787109375 401.7857666015625 690.8934936523438 401.1857604980469 C 690.5801391601562 400.5791015625 690.4234619140625 399.8757629394531 690.4234619140625 399.0757751464844 C 690.4234619140625 397.5557861328125 690.9368286132812 396.3624267578125 691.9635009765625 395.49578857421875 C 692.9901123046875 394.6291198730469 694.41015625 394.1957702636719 696.2234497070312 394.1957702636719 C 697.1168212890625 394.1957702636719 697.966796875 394.30242919921875 698.7734985351562 394.5157775878906 C 699.5801391601562 394.7224426269531 700.4268188476562 395.01910400390625 701.3134765625 395.40576171875 L 700.1434936523438 398.22576904296875 C 699.2234497070312 397.8524475097656 698.466796875 397.5924377441406 697.8734741210938 397.4457702636719 C 697.2734985351562 397.2924499511719 696.6834716796875 397.2157897949219 696.1034545898438 397.2157897949219 C 695.4168090820312 397.2157897949219 694.89013671875 397.3757629394531 694.5234985351562 397.6957702636719 C 694.1567993164062 398.0224304199219 693.9734497070312 398.44244384765625 693.9734497070312 398.9557800292969 C 693.9734497070312 399.2757873535156 694.0468139648438 399.5557861328125 694.1934814453125 399.7957763671875 C 694.3468017578125 400.02911376953125 694.58349609375 400.25909423828125 694.9035034179688 400.48577880859375 C 695.2301635742188 400.7057800292969 696.0001220703125 401.10577392578125 697.2135009765625 401.6857604980469 C 698.8134765625 402.45245361328125 699.91015625 403.2191162109375 700.5034790039062 403.98577880859375 C 701.0968017578125 404.75909423828125 701.3934936523438 405.70245361328125 701.3934936523438 406.8157653808594 Z" transform="matrix(4.307475566864014, 0, 0, 4.307475566864014, -2007.9132080078125, -1350.1304931640625)" style="fill: rgb(255, 255, 255); white-space: pre; color: rgb(51, 51, 51);"/><path d="M 376.98614501953125 532.4111328125 L 379.55615234375 532.4111328125 L 379.55615234375 556.0211181640625 L 376.98614501953125 556.0211181640625 L 376.98614501953125 532.4111328125 Z" transform="matrix(8.999476432800293, 0, 0, 8.999476432800293, -2945.075439453125, -4473.9189453125)" style="fill: rgb(255, 255, 255); white-space: pre; color: rgb(51, 51, 51);"/><path d="M 514.6329345703125 710.2278442382812 L 514.6329345703125 727.8878784179688 L 523.9029541015625 727.8878784179688 L 523.9029541015625 730.3778686523438 L 511.29296875 730.3778686523438 L 511.29296875 710.2278442382812 L 514.6329345703125 710.2278442382812 ZM 533.461669921875 714.787841796875 C 534.70166015625 714.787841796875 535.79833984375 715.0411987304688 536.751708984375 715.5478515625 C 537.6983642578125 716.0478515625 538.4750366210938 716.711181640625 539.0816650390625 717.537841796875 C 539.6950073242188 718.3712158203125 540.135009765625 719.327880859375 540.4016723632812 720.4078979492188 C 540.6616821289062 721.4945068359375 540.711669921875 722.6212158203125 540.5516967773438 723.787841796875 L 529.8316650390625 723.787841796875 C 529.8316650390625 724.37451171875 529.9417114257812 724.9111938476562 530.1616821289062 725.3978881835938 C 530.375 725.8911743164062 530.6683349609375 726.3145141601562 531.0416870117188 726.6678466796875 C 531.4216918945312 727.0278930664062 531.8683471679688 727.307861328125 532.3816528320312 727.5078735351562 C 532.9016723632812 727.7078857421875 533.4650268554688 727.807861328125 534.0716552734375 727.807861328125 C 534.2716674804688 727.807861328125 534.5216674804688 727.7845458984375 534.8216552734375 727.7378540039062 C 535.1217041015625 727.6912231445312 535.4417114257812 727.6112060546875 535.7816772460938 727.4978637695312 C 536.114990234375 727.3778686523438 536.45166015625 727.2245483398438 536.7916870117188 727.037841796875 C 537.125 726.8578491210938 537.4216918945312 726.6411743164062 537.6817016601562 726.3878784179688 L 538.8816528320312 728.2178955078125 C 538.2816772460938 728.9645385742188 537.578369140625 729.5311889648438 536.7716674804688 729.9178466796875 C 535.9716796875 730.2978515625 534.95166015625 730.4878540039062 533.711669921875 730.4878540039062 C 532.711669921875 730.4878540039062 531.7716674804688 730.2811889648438 530.8916625976562 729.8678588867188 C 530.0183715820312 729.461181640625 529.2716674804688 728.9011840820312 528.6516723632812 728.1878662109375 C 528.0316772460938 727.481201171875 527.5416870117188 726.6511840820312 527.1817016601562 725.6978759765625 C 526.8150024414062 724.751220703125 526.6316528320312 723.731201171875 526.6316528320312 722.6378784179688 C 526.6316528320312 721.5645141601562 526.8150024414062 720.5478515625 527.1817016601562 719.587890625 C 527.5416870117188 718.634521484375 528.0283203125 717.8012084960938 528.6416625976562 717.087890625 C 529.2483520507812 716.37451171875 529.9716796875 715.8145141601562 530.8117065429688 715.4078979492188 C 531.6516723632812 714.9945068359375 532.5350341796875 714.787841796875 533.461669921875 714.787841796875 M 537.481689453125 721.3778686523438 C 537.481689453125 720.8911743164062 537.3916625976562 720.4078979492188 537.211669921875 719.9278564453125 C 537.0316772460938 719.4545288085938 536.7816772460938 719.0278930664062 536.461669921875 718.6478881835938 C 536.1416625976562 718.2678833007812 535.7550048828125 717.961181640625 535.3016967773438 717.7278442382812 C 534.8416748046875 717.501220703125 534.3483276367188 717.3778686523438 533.8216552734375 717.3578491210938 C 533.2550048828125 717.3578491210938 532.7349853515625 717.4678955078125 532.2616577148438 717.6878662109375 C 531.788330078125 717.9078979492188 531.3783569335938 718.201171875 531.0316772460938 718.56787109375 C 530.6849975585938 718.9278564453125 530.4150390625 719.3612060546875 530.2216796875 719.8678588867188 C 530.0350341796875 720.3678588867188 529.9417114257812 720.8712158203125 529.9417114257812 721.3778686523438 L 537.481689453125 721.3778686523438 ZM 556.2965087890625 725.587890625 L 556.2965087890625 725.807861328125 C 556.2965087890625 725.9545288085938 556.30322265625 726.1712036132812 556.3165283203125 726.4578857421875 C 556.3365478515625 726.7378540039062 556.3731689453125 727.0245361328125 556.426513671875 727.31787109375 C 556.4798583984375 727.6045532226562 556.5665283203125 727.8678588867188 556.6865234375 728.1078491210938 C 556.8065185546875 728.3478393554688 556.966552734375 728.5045166015625 557.16650390625 728.577880859375 L 556.2965087890625 730.4078979492188 C 556.0565185546875 730.4078979492188 555.80322265625 730.3511962890625 555.5365600585938 730.2378540039062 C 555.2765502929688 730.1312255859375 555.023193359375 729.9778442382812 554.7765502929688 729.7778930664062 C 554.5298461914062 729.577880859375 554.3198852539062 729.3545532226562 554.1465454101562 729.1078491210938 C 553.9732055664062 728.8612060546875 553.83984375 728.5911865234375 553.7465209960938 728.2978515625 C 553.619873046875 728.6112060546875 553.3965454101562 728.8978881835938 553.0765380859375 729.1578979492188 C 552.7565307617188 729.424560546875 552.3965454101562 729.6611938476562 551.9965209960938 729.8678588867188 C 551.5965576171875 730.0811767578125 551.1632080078125 730.2412109375 550.696533203125 730.3478393554688 C 550.2365112304688 730.461181640625 549.80322265625 730.5178833007812 549.3965454101562 730.5178833007812 C 548.7765502929688 730.5178833007812 548.1798706054688 730.4345092773438 547.6065063476562 730.2678833007812 C 547.033203125 730.1011962890625 546.5298461914062 729.837890625 546.0965576171875 729.4778442382812 C 545.6565551757812 729.1112060546875 545.3131713867188 728.6278686523438 545.0665283203125 728.0278930664062 C 544.8198852539062 727.4278564453125 544.696533203125 726.6878662109375 544.696533203125 725.807861328125 C 544.696533203125 724.9745483398438 544.8731689453125 724.251220703125 545.2265014648438 723.6378784179688 C 545.5865478515625 723.0245361328125 546.043212890625 722.5245361328125 546.5965576171875 722.1378784179688 C 547.1565551757812 721.7445068359375 547.7898559570312 721.451171875 548.4965209960938 721.2578735351562 C 549.2098388671875 721.0645141601562 549.9298706054688 720.9678955078125 550.6565551757812 720.9678955078125 L 552.9865112304688 720.9678955078125 C 552.9865112304688 720.0745239257812 552.9398803710938 719.3645629882812 552.8465576171875 718.837890625 C 552.753173828125 718.3112182617188 552.599853515625 717.924560546875 552.3865356445312 717.6778564453125 C 552.16650390625 717.4312133789062 551.8965454101562 717.2745361328125 551.5765380859375 717.2078857421875 C 551.2565307617188 717.1478881835938 550.8765258789062 717.1178588867188 550.4365234375 717.1178588867188 C 550.0365600585938 717.1178588867188 549.6598510742188 717.1678466796875 549.3065185546875 717.2678833007812 C 548.9531860351562 717.3678588867188 548.6231689453125 717.4845581054688 548.3165283203125 717.6178588867188 C 548.0165405273438 717.7578735351562 547.753173828125 717.9111938476562 547.5265502929688 718.077880859375 C 547.2998657226562 718.2378540039062 547.1331787109375 718.3645629882812 547.0265502929688 718.4578857421875 L 545.7965087890625 716.56787109375 C 545.9765014648438 716.3678588867188 546.2498779296875 716.16455078125 546.6165161132812 715.9578857421875 C 546.9765014648438 715.7445068359375 547.3931884765625 715.557861328125 547.8665161132812 715.3978881835938 C 548.33984375 715.231201171875 548.8565063476562 715.0978393554688 549.41650390625 714.9978637695312 C 549.9698486328125 714.8978881835938 550.5465087890625 714.8478393554688 551.1465454101562 714.8478393554688 C 551.6931762695312 714.8478393554688 552.2265014648438 714.9011840820312 552.7465209960938 715.0078735351562 C 553.2665405273438 715.1212158203125 553.7432250976562 715.3045654296875 554.176513671875 715.557861328125 C 554.6032104492188 715.8112182617188 554.9765014648438 716.154541015625 555.2965087890625 716.587890625 C 555.6165161132812 717.0145263671875 555.83984375 717.5445556640625 555.966552734375 718.1778564453125 C 556.0932006835938 718.81787109375 556.1798706054688 719.461181640625 556.2265014648438 720.1078491210938 C 556.273193359375 720.7545166015625 556.2965087890625 721.3978881835938 556.2965087890625 722.037841796875 L 556.2965087890625 725.587890625 M 553.0065307617188 722.9178466796875 L 551.2565307617188 722.9178466796875 C 550.8965454101562 722.9178466796875 550.5165405273438 722.951171875 550.1165161132812 723.0178833007812 C 549.7098388671875 723.0911865234375 549.3331909179688 723.2278442382812 548.9865112304688 723.4278564453125 C 548.639892578125 723.634521484375 548.3532104492188 723.924560546875 548.1265258789062 724.2978515625 C 547.8998413085938 724.6712036132812 547.7865600585938 725.1478881835938 547.7865600585938 725.7278442382812 C 547.7865600585938 726.6411743164062 547.9932250976562 727.2978515625 548.4065551757812 727.6978759765625 C 548.8131713867188 728.0978393554688 549.4098510742188 728.2978515625 550.196533203125 728.2978515625 C 550.7432250976562 728.2978515625 551.2665405273438 728.1511840820312 551.7665405273438 727.8578491210938 C 552.2665405273438 727.5712280273438 552.6798706054688 727.1812133789062 553.0065307617188 726.6878662109375 L 553.0065307617188 722.9178466796875 ZM 570.1224975585938 718.287841796875 C 569.609130859375 718.1478881835938 568.9891357421875 718.06787109375 568.262451171875 718.0478515625 C 567.609130859375 718.0478515625 566.9591674804688 718.12451171875 566.3125 718.2778930664062 C 565.6591186523438 718.4312133789062 565.1424560546875 718.6912231445312 564.762451171875 719.057861328125 L 564.762451171875 724.9078979492188 L 564.762451171875 724.9678955078125 L 564.762451171875 730.3778686523438 L 561.4524536132812 730.3778686523438 L 561.4524536132812 714.9578857421875 L 564.4024658203125 714.9578857421875 L 564.762451171875 716.537841796875 C 565.0358276367188 716.2645263671875 565.3224487304688 716.0211791992188 565.6224975585938 715.807861328125 C 565.9224853515625 715.587890625 566.2724609375 715.4078979492188 566.6724853515625 715.2678833007812 C 567.0791625976562 715.134521484375 567.5557861328125 715.0311889648438 568.1024780273438 714.9578857421875 C 568.649169921875 714.884521484375 569.3224487304688 714.8478393554688 570.1224975585938 714.8478393554688 L 570.1224975585938 718.287841796875 ZM 586.360107421875 730.3778686523438 L 583.0300903320312 730.3778686523438 L 583.0300903320312 721.9878540039062 C 583.0300903320312 721.3678588867188 583.0001220703125 720.7745361328125 582.9401245117188 720.2078857421875 C 582.8867797851562 719.6411743164062 582.7601318359375 719.1378784179688 582.5601196289062 718.6978759765625 C 582.360107421875 718.2645263671875 582.0867919921875 717.924560546875 581.7401123046875 717.6778564453125 C 581.3934326171875 717.4312133789062 580.9100952148438 717.307861328125 580.2901000976562 717.307861328125 C 580.090087890625 717.307861328125 579.8301391601562 717.3345336914062 579.5101318359375 717.3878784179688 C 579.1901245117188 717.4412231445312 578.8634643554688 717.5245361328125 578.5300903320312 717.6378784179688 C 578.1901245117188 717.7445068359375 577.8701171875 717.8812255859375 577.5701293945312 718.0478515625 C 577.2701416015625 718.2078857421875 577.0467529296875 718.3978881835938 576.9000854492188 718.6178588867188 L 576.9000854492188 718.787841796875 L 576.9000854492188 718.837890625 L 576.9000854492188 724.9078979492188 L 576.9000854492188 724.9678955078125 L 576.9000854492188 730.3778686523438 L 573.590087890625 730.3778686523438 L 573.590087890625 714.9578857421875 L 576.5401000976562 714.9578857421875 L 576.9000854492188 716.5178833007812 C 577.1201171875 716.31787109375 577.3967895507812 716.1112060546875 577.7301025390625 715.8978881835938 C 578.0701293945312 715.6912231445312 578.4401245117188 715.5045166015625 578.840087890625 715.337890625 C 579.2401123046875 715.1712036132812 579.6500854492188 715.037841796875 580.0701293945312 714.9378662109375 C 580.4901123046875 714.837890625 580.9000854492188 714.787841796875 581.3001098632812 714.787841796875 C 582.1201171875 714.787841796875 582.8134765625 714.961181640625 583.380126953125 715.307861328125 C 583.94677734375 715.654541015625 584.513427734375 716.1011962890625 585.0801391601562 716.6478881835938 C 585.3867797851562 716.961181640625 585.6267700195312 717.3212280273438 585.8001098632812 717.7278442382812 C 585.9734497070312 718.1411743164062 586.10009765625 718.5712280273438 586.1801147460938 719.0178833007812 C 586.2667846679688 719.4645385742188 586.3167724609375 719.91455078125 586.3301391601562 720.3678588867188 C 586.35009765625 720.827880859375 586.360107421875 721.2745361328125 586.360107421875 721.7078857421875 L 586.360107421875 729.827880859375 L 586.360107421875 730.3778686523438 ZM 619.5225830078125 714.9578857421875 L 615.1725463867188 730.4878540039062 L 610.91259765625 730.4878540039062 L 608.642578125 721.577880859375 L 606.1825561523438 730.4878540039062 L 601.882568359375 730.4878540039062 L 597.9225463867188 714.9578857421875 L 601.4725952148438 714.9578857421875 L 604.0225830078125 727.807861328125 L 606.892578125 714.9578857421875 L 610.4725952148438 714.9578857421875 L 613.0725708007812 727.807861328125 L 615.9425659179688 714.9578857421875 L 619.5225830078125 714.9578857421875 ZM 636.4909057617188 730.3778686523438 L 633.160888671875 730.3778686523438 L 633.160888671875 721.9878540039062 C 633.160888671875 721.3678588867188 633.1309204101562 720.7745361328125 633.0709228515625 720.2078857421875 C 633.017578125 719.6411743164062 632.8909301757812 719.1378784179688 632.69091796875 718.6978759765625 C 632.4909057617188 718.2645263671875 632.2175903320312 717.924560546875 631.8709106445312 717.6778564453125 C 631.5242309570312 717.4312133789062 631.0408935546875 717.307861328125 630.4208984375 717.307861328125 C 630.2208862304688 717.307861328125 629.9609375 717.3345336914062 629.6409301757812 717.3878784179688 C 629.3209228515625 717.4412231445312 628.9942626953125 717.5245361328125 628.660888671875 717.6378784179688 C 628.3209228515625 717.7445068359375 628.0009155273438 717.8812255859375 627.700927734375 718.0478515625 C 627.4009399414062 718.2078857421875 627.1775512695312 718.3978881835938 627.0308837890625 718.6178588867188 L 627.0308837890625 718.787841796875 L 627.0308837890625 718.837890625 L 627.0308837890625 724.9078979492188 L 627.0308837890625 724.9678955078125 L 627.0308837890625 730.3778686523438 L 623.7208862304688 730.3778686523438 L 623.7208862304688 709.1278686523438 L 627.0308837890625 709.1278686523438 L 627.0308837890625 716.5178833007812 C 627.2509155273438 716.31787109375 627.527587890625 716.1112060546875 627.8609008789062 715.8978881835938 C 628.200927734375 715.6912231445312 628.5709228515625 715.5045166015625 628.9708862304688 715.337890625 C 629.3709106445312 715.1712036132812 629.7808837890625 715.037841796875 630.200927734375 714.9378662109375 C 630.6209106445312 714.837890625 631.0308837890625 714.787841796875 631.430908203125 714.787841796875 C 632.2509155273438 714.787841796875 632.9442138671875 714.961181640625 633.5109252929688 715.307861328125 C 634.0775756835938 715.654541015625 634.6442260742188 716.1011962890625 635.2109375 716.6478881835938 C 635.517578125 716.961181640625 635.757568359375 717.3212280273438 635.930908203125 717.7278442382812 C 636.104248046875 718.1411743164062 636.2308959960938 718.5712280273438 636.3109130859375 719.0178833007812 C 636.3975830078125 719.4645385742188 636.4475708007812 719.91455078125 636.4609375 720.3678588867188 C 636.4808959960938 720.827880859375 636.4909057617188 721.2745361328125 636.4909057617188 721.7078857421875 L 636.4909057617188 729.827880859375 L 636.4909057617188 730.3778686523438 ZM 651.5027465820312 725.587890625 L 651.5027465820312 725.807861328125 C 651.5027465820312 725.9545288085938 651.5094604492188 726.1712036132812 651.5227661132812 726.4578857421875 C 651.5427856445312 726.7378540039062 651.5794067382812 727.0245361328125 651.6327514648438 727.31787109375 C 651.6860961914062 727.6045532226562 651.7727661132812 727.8678588867188 651.8927612304688 728.1078491210938 C 652.0127563476562 728.3478393554688 652.1727905273438 728.5045166015625 652.3727416992188 728.577880859375 L 651.5027465820312 730.4078979492188 C 651.2627563476562 730.4078979492188 651.0094604492188 730.3511962890625 650.7427978515625 730.2378540039062 C 650.4827880859375 730.1312255859375 650.2294311523438 729.9778442382812 649.9827880859375 729.7778930664062 C 649.736083984375 729.577880859375 649.526123046875 729.3545532226562 649.352783203125 729.1078491210938 C 649.179443359375 728.8612060546875 649.0460815429688 728.5911865234375 648.9527587890625 728.2978515625 C 648.8261108398438 728.6112060546875 648.602783203125 728.8978881835938 648.2827758789062 729.1578979492188 C 647.9627685546875 729.424560546875 647.602783203125 729.6611938476562 647.2027587890625 729.8678588867188 C 646.8027954101562 730.0811767578125 646.3694458007812 730.2412109375 645.9027709960938 730.3478393554688 C 645.4427490234375 730.461181640625 645.0094604492188 730.5178833007812 644.602783203125 730.5178833007812 C 643.9827880859375 730.5178833007812 643.3861083984375 730.4345092773438 642.812744140625 730.2678833007812 C 642.2394409179688 730.1011962890625 641.736083984375 729.837890625 641.3027954101562 729.4778442382812 C 640.86279296875 729.1112060546875 640.5194091796875 728.6278686523438 640.2727661132812 728.0278930664062 C 640.026123046875 727.4278564453125 639.9027709960938 726.6878662109375 639.9027709960938 725.807861328125 C 639.9027709960938 724.9745483398438 640.0794067382812 724.251220703125 640.4327392578125 723.6378784179688 C 640.7927856445312 723.0245361328125 641.2494506835938 722.5245361328125 641.8027954101562 722.1378784179688 C 642.36279296875 721.7445068359375 642.99609375 721.451171875 643.7027587890625 721.2578735351562 C 644.4160766601562 721.0645141601562 645.1361083984375 720.9678955078125 645.86279296875 720.9678955078125 L 648.1927490234375 720.9678955078125 C 648.1927490234375 720.0745239257812 648.1461181640625 719.3645629882812 648.0527954101562 718.837890625 C 647.9594116210938 718.3112182617188 647.8060913085938 717.924560546875 647.5927734375 717.6778564453125 C 647.3727416992188 717.4312133789062 647.102783203125 717.2745361328125 646.7827758789062 717.2078857421875 C 646.4627685546875 717.1478881835938 646.082763671875 717.1178588867188 645.6427612304688 717.1178588867188 C 645.2427978515625 717.1178588867188 644.8660888671875 717.1678466796875 644.5127563476562 717.2678833007812 C 644.159423828125 717.3678588867188 643.8294067382812 717.4845581054688 643.5227661132812 717.6178588867188 C 643.2227783203125 717.7578735351562 642.9594116210938 717.9111938476562 642.7327880859375 718.077880859375 C 642.506103515625 718.2378540039062 642.3394165039062 718.3645629882812 642.2327880859375 718.4578857421875 L 641.0027465820312 716.56787109375 C 641.1827392578125 716.3678588867188 641.4561157226562 716.16455078125 641.82275390625 715.9578857421875 C 642.1827392578125 715.7445068359375 642.5994262695312 715.557861328125 643.07275390625 715.3978881835938 C 643.5460815429688 715.231201171875 644.062744140625 715.0978393554688 644.6227416992188 714.9978637695312 C 645.1760864257812 714.8978881835938 645.7527465820312 714.8478393554688 646.352783203125 714.8478393554688 C 646.8994140625 714.8478393554688 647.4327392578125 714.9011840820312 647.9527587890625 715.0078735351562 C 648.4727783203125 715.1212158203125 648.949462890625 715.3045654296875 649.3827514648438 715.557861328125 C 649.8094482421875 715.8112182617188 650.1827392578125 716.154541015625 650.5027465820312 716.587890625 C 650.82275390625 717.0145263671875 651.0460815429688 717.5445556640625 651.1727905273438 718.1778564453125 C 651.2994384765625 718.81787109375 651.3861083984375 719.461181640625 651.4327392578125 720.1078491210938 C 651.4794311523438 720.7545166015625 651.5027465820312 721.3978881835938 651.5027465820312 722.037841796875 L 651.5027465820312 725.587890625 M 648.2127685546875 722.9178466796875 L 646.4627685546875 722.9178466796875 C 646.102783203125 722.9178466796875 645.7227783203125 722.951171875 645.32275390625 723.0178833007812 C 644.9160766601562 723.0911865234375 644.5394287109375 723.2278442382812 644.1927490234375 723.4278564453125 C 643.8461303710938 723.634521484375 643.5594482421875 723.924560546875 643.332763671875 724.2978515625 C 643.1060791015625 724.6712036132812 642.9927978515625 725.1478881835938 642.9927978515625 725.7278442382812 C 642.9927978515625 726.6411743164062 643.199462890625 727.2978515625 643.61279296875 727.6978759765625 C 644.0194091796875 728.0978393554688 644.6160888671875 728.2978515625 645.4027709960938 728.2978515625 C 645.949462890625 728.2978515625 646.4727783203125 728.1511840820312 646.9727783203125 727.8578491210938 C 647.4727783203125 727.5712280273438 647.8861083984375 727.1812133789062 648.2127685546875 726.6878662109375 L 648.2127685546875 722.9178466796875 ZM 661.0587158203125 725.6978759765625 C 661.0587158203125 726.31787109375 661.1420288085938 726.8012084960938 661.3087158203125 727.1478881835938 C 661.4754028320312 727.4945068359375 661.708740234375 727.76123046875 662.0087280273438 727.9478759765625 C 662.3087158203125 728.1278686523438 662.6453857421875 728.2412109375 663.0187377929688 728.287841796875 C 663.3920288085938 728.3345336914062 663.7886962890625 728.3578491210938 664.208740234375 728.3578491210938 L 664.208740234375 730.3778686523438 C 663.9686889648438 730.4111938476562 663.7320556640625 730.4378662109375 663.4987182617188 730.4578857421875 C 663.2987060546875 730.4778442382812 663.0553588867188 730.4912109375 662.7687377929688 730.4978637695312 C 662.4887084960938 730.51123046875 662.2120361328125 730.5178833007812 661.938720703125 730.5178833007812 C 661.6654052734375 730.5178833007812 661.3853759765625 730.5078735351562 661.0986938476562 730.4878540039062 C 660.8187255859375 730.4678955078125 660.5787353515625 730.4412231445312 660.3787231445312 730.4078979492188 C 659.7587280273438 730.2945556640625 659.275390625 730.0245361328125 658.9287109375 729.5978393554688 C 658.58203125 729.1712036132812 658.322021484375 728.6978759765625 658.1487426757812 728.1778564453125 C 657.9754028320312 727.6578979492188 657.8653564453125 727.1511840820312 657.8187255859375 726.6578979492188 C 657.7786865234375 726.16455078125 657.7587280273438 725.7811889648438 657.7587280273438 725.5078735351562 L 657.7587280273438 717.1978759765625 L 655.7286987304688 717.1978759765625 L 655.7286987304688 714.9578857421875 L 657.7587280273438 714.9578857421875 L 657.7587280273438 710.577880859375 L 661.0587158203125 710.577880859375 L 661.0587158203125 714.9578857421875 L 663.5187377929688 714.9578857421875 L 663.5187377929688 717.1978759765625 L 661.0587158203125 717.1978759765625 L 661.0587158203125 725.6978759765625 ZM 682.3286743164062 714.8778686523438 C 683.388671875 714.8778686523438 684.3486328125 715.0811767578125 685.2086791992188 715.4878540039062 C 686.06201171875 715.9011840820312 686.7886352539062 716.461181640625 687.388671875 717.1678466796875 C 687.9953002929688 717.8812255859375 688.4619750976562 718.711181640625 688.7886352539062 719.6578979492188 C 689.1152954101562 720.6045532226562 689.2786254882812 721.62451171875 689.2786254882812 722.7178955078125 C 689.2786254882812 723.8112182617188 689.1053466796875 724.837890625 688.7586669921875 725.7978515625 C 688.4119873046875 726.7578735351562 687.92529296875 727.587890625 687.2986450195312 728.287841796875 C 686.6653442382812 728.9878540039062 685.9186401367188 729.5345458984375 685.0586547851562 729.9278564453125 C 684.1920166015625 730.3212280273438 683.2286376953125 730.5178833007812 682.1686401367188 730.5178833007812 C 681.0953369140625 730.5178833007812 680.1152954101562 730.31787109375 679.2286376953125 729.9178466796875 C 678.3486328125 729.51123046875 677.6019897460938 728.9545288085938 676.9886474609375 728.2478637695312 C 676.3753051757812 727.5345458984375 675.9053344726562 726.7045288085938 675.5786743164062 725.7578735351562 C 675.2520141601562 724.8112182617188 675.088623046875 723.7811889648438 675.088623046875 722.6678466796875 C 675.088623046875 721.5545654296875 675.2653198242188 720.5145263671875 675.61865234375 719.5478515625 C 675.9786376953125 718.5811767578125 676.4719848632812 717.7578735351562 677.0986328125 717.077880859375 C 677.725341796875 716.3911743164062 678.4852905273438 715.8511962890625 679.378662109375 715.4578857421875 C 680.27197265625 715.0712280273438 681.2553100585938 714.8778686523438 682.3286743164062 714.8778686523438 M 682.11865234375 727.9178466796875 C 682.6653442382812 727.9178466796875 683.1619873046875 727.7845458984375 683.608642578125 727.5178833007812 C 684.0552978515625 727.2578735351562 684.435302734375 726.89453125 684.7486572265625 726.4278564453125 C 685.0686645507812 725.961181640625 685.3253173828125 725.4078979492188 685.5186767578125 724.7678833007812 C 685.7119750976562 724.134521484375 685.8086547851562 723.451171875 685.8086547851562 722.7178955078125 C 685.8086547851562 721.9912109375 685.7219848632812 721.307861328125 685.5486450195312 720.6678466796875 C 685.3753051757812 720.0345458984375 685.138671875 719.4745483398438 684.838623046875 718.9878540039062 C 684.5386352539062 718.5078735351562 684.1686401367188 718.1212158203125 683.7286376953125 717.827880859375 C 683.2886352539062 717.5345458984375 682.7952880859375 717.3878784179688 682.2486572265625 717.3878784179688 C 681.7019653320312 717.3878784179688 681.2019653320312 717.5245361328125 680.7486572265625 717.7978515625 C 680.2953491210938 718.0712280273438 679.9086303710938 718.4412231445312 679.588623046875 718.9078979492188 C 679.2686767578125 719.37451171875 679.02197265625 719.9212036132812 678.8486328125 720.5478515625 C 678.67529296875 721.174560546875 678.588623046875 721.8545532226562 678.588623046875 722.587890625 C 678.588623046875 723.3145141601562 678.6653442382812 724.001220703125 678.8186645507812 724.6478881835938 C 678.9719848632812 725.2945556640625 679.205322265625 725.8545532226562 679.5186767578125 726.327880859375 C 679.8253173828125 726.8012084960938 680.1953125 727.1845092773438 680.628662109375 727.4778442382812 C 681.0552978515625 727.7711791992188 681.552001953125 727.9178466796875 682.11865234375 727.9178466796875 ZM 693.5088500976562 714.9578857421875 L 705.2388916015625 714.9578857421875 L 705.2388916015625 717.6078491210938 L 697.3088989257812 727.287841796875 L 696.7688598632812 727.7278442382812 L 705.2388916015625 727.7278442382812 L 705.2388916015625 730.3778686523438 L 693.5088500976562 730.3778686523438 L 693.5088500976562 727.7278442382812 L 701.4389038085938 718.0478515625 L 701.9888916015625 717.6078491210938 L 693.5088500976562 717.6078491210938 L 693.5088500976562 714.9578857421875 ZM 709.8821411132812 714.9578857421875 L 721.6121826171875 714.9578857421875 L 721.6121826171875 717.6078491210938 L 713.6821899414062 727.287841796875 L 713.1421508789062 727.7278442382812 L 721.6121826171875 727.7278442382812 L 721.6121826171875 730.3778686523438 L 709.8821411132812 730.3778686523438 L 709.8821411132812 727.7278442382812 L 717.8121948242188 718.0478515625 L 718.3621826171875 717.6078491210938 L 709.8821411132812 717.6078491210938 L 709.8821411132812 714.9578857421875 ZM 729.5654296875 730.3778686523438 L 726.2254638671875 730.3778686523438 L 726.2254638671875 714.9578857421875 L 729.5654296875 714.9578857421875 L 729.5654296875 730.3778686523438 M 729.865478515625 710.037841796875 C 729.865478515625 710.5845336914062 729.6754760742188 711.0445556640625 729.2954711914062 711.4178466796875 C 728.9088134765625 711.7911987304688 728.442138671875 711.9778442382812 727.8954467773438 711.9778442382812 C 727.3488159179688 711.9778442382812 726.8887939453125 711.7845458984375 726.5154418945312 711.3978881835938 C 726.1421508789062 711.0178833007812 725.9554443359375 710.5645141601562 725.9554443359375 710.037841796875 C 725.9554443359375 709.4912109375 726.1488037109375 709.0245361328125 726.5354614257812 708.6378784179688 C 726.9154663085938 708.2578735351562 727.3687744140625 708.06787109375 727.8954467773438 708.06787109375 C 728.442138671875 708.06787109375 728.9088134765625 708.2578735351562 729.2954711914062 708.6378784179688 C 729.6754760742188 709.0245361328125 729.865478515625 709.4912109375 729.865478515625 710.037841796875 ZM 753.0249633789062 728.2178955078125 C 752.4049072265625 729.0045166015625 751.7316284179688 729.5845336914062 751.0049438476562 729.9578857421875 C 750.2716064453125 730.3311767578125 749.3416137695312 730.5178833007812 748.2149047851562 730.5178833007812 C 747.1416015625 730.5178833007812 746.1649169921875 730.3112182617188 745.284912109375 729.8978881835938 C 744.41162109375 729.4912109375 743.6649169921875 728.9345092773438 743.044921875 728.2278442382812 C 742.4249267578125 727.5278930664062 741.9549560546875 726.7045288085938 741.6349487304688 725.7578735351562 C 741.31494140625 724.8112182617188 741.1549072265625 723.7811889648438 741.1549072265625 722.6678466796875 C 741.1549072265625 721.5745239257812 741.3282470703125 720.5545654296875 741.6749267578125 719.6078491210938 C 742.0216064453125 718.654541015625 742.5049438476562 717.827880859375 743.1249389648438 717.1278686523438 C 743.7449340820312 716.4278564453125 744.4949340820312 715.8778686523438 745.3749389648438 715.4778442382812 C 746.248291015625 715.077880859375 747.2216186523438 714.8778686523438 748.294921875 714.8778686523438 C 749.4282836914062 714.8778686523438 750.3949584960938 715.0645141601562 751.1949462890625 715.4378662109375 C 751.9949340820312 715.8112182617188 752.7049560546875 716.3878784179688 753.324951171875 717.1678466796875 L 751.8549194335938 718.9478759765625 C 751.5416259765625 718.5811767578125 751.111572265625 718.2478637695312 750.56494140625 717.9478759765625 C 750.0182495117188 717.6478881835938 749.2716064453125 717.4978637695312 748.324951171875 717.4978637695312 C 747.7782592773438 717.4978637695312 747.2749633789062 717.62451171875 746.81494140625 717.8778686523438 C 746.361572265625 718.1378784179688 745.9749145507812 718.4945068359375 745.6549072265625 718.9478759765625 C 745.3349609375 719.4011840820312 745.0882568359375 719.9378662109375 744.9149169921875 720.557861328125 C 744.7415771484375 721.1778564453125 744.6549072265625 721.8545532226562 744.6549072265625 722.587890625 C 744.6549072265625 723.3145141601562 744.7349243164062 723.9912109375 744.8949584960938 724.6178588867188 C 745.0482788085938 725.251220703125 745.2782592773438 725.8045654296875 745.5849609375 726.2778930664062 C 745.8982543945312 726.751220703125 746.2682495117188 727.12451171875 746.6949462890625 727.3978881835938 C 747.12158203125 727.6712036132812 747.6182861328125 727.807861328125 748.1849365234375 727.807861328125 C 749.0049438476562 727.807861328125 749.6949462890625 727.674560546875 750.2549438476562 727.4078979492188 C 750.8082885742188 727.1478881835938 751.3215942382812 726.8245239257812 751.794921875 726.4378662109375 L 753.0249633789062 728.2178955078125 ZM 768.5842895507812 725.587890625 L 768.5842895507812 725.807861328125 C 768.5842895507812 725.9545288085938 768.5910034179688 726.1712036132812 768.6043090820312 726.4578857421875 C 768.6243286132812 726.7378540039062 768.6609497070312 727.0245361328125 768.7142944335938 727.31787109375 C 768.7676391601562 727.6045532226562 768.8543090820312 727.8678588867188 768.9743041992188 728.1078491210938 C 769.0942993164062 728.3478393554688 769.2543334960938 728.5045166015625 769.4542846679688 728.577880859375 L 768.5842895507812 730.4078979492188 C 768.3442993164062 730.4078979492188 768.0910034179688 730.3511962890625 767.8243408203125 730.2378540039062 C 767.5643310546875 730.1312255859375 767.3109741210938 729.9778442382812 767.0643310546875 729.7778930664062 C 766.817626953125 729.577880859375 766.607666015625 729.3545532226562 766.434326171875 729.1078491210938 C 766.260986328125 728.8612060546875 766.1276245117188 728.5911865234375 766.0343017578125 728.2978515625 C 765.9076538085938 728.6112060546875 765.684326171875 728.8978881835938 765.3643188476562 729.1578979492188 C 765.0443115234375 729.424560546875 764.684326171875 729.6611938476562 764.2843017578125 729.8678588867188 C 763.8843383789062 730.0811767578125 763.4509887695312 730.2412109375 762.9843139648438 730.3478393554688 C 762.5242919921875 730.461181640625 762.0910034179688 730.5178833007812 761.684326171875 730.5178833007812 C 761.0643310546875 730.5178833007812 760.4676513671875 730.4345092773438 759.894287109375 730.2678833007812 C 759.3209838867188 730.1011962890625 758.817626953125 729.837890625 758.3843383789062 729.4778442382812 C 757.9443359375 729.1112060546875 757.6009521484375 728.6278686523438 757.3543090820312 728.0278930664062 C 757.107666015625 727.4278564453125 756.9843139648438 726.6878662109375 756.9843139648438 725.807861328125 C 756.9843139648438 724.9745483398438 757.1609497070312 724.251220703125 757.5142822265625 723.6378784179688 C 757.8743286132812 723.0245361328125 758.3309936523438 722.5245361328125 758.8843383789062 722.1378784179688 C 759.4443359375 721.7445068359375 760.07763671875 721.451171875 760.7843017578125 721.2578735351562 C 761.4976196289062 721.0645141601562 762.2176513671875 720.9678955078125 762.9443359375 720.9678955078125 L 765.2742919921875 720.9678955078125 C 765.2742919921875 720.0745239257812 765.2276611328125 719.3645629882812 765.1343383789062 718.837890625 C 765.0409545898438 718.3112182617188 764.8876342773438 717.924560546875 764.67431640625 717.6778564453125 C 764.4542846679688 717.4312133789062 764.184326171875 717.2745361328125 763.8643188476562 717.2078857421875 C 763.5443115234375 717.1478881835938 763.164306640625 717.1178588867188 762.7243041992188 717.1178588867188 C 762.3243408203125 717.1178588867188 761.9476318359375 717.1678466796875 761.5942993164062 717.2678833007812 C 761.240966796875 717.3678588867188 760.9109497070312 717.4845581054688 760.6043090820312 717.6178588867188 C 760.3043212890625 717.7578735351562 760.0409545898438 717.9111938476562 759.8143310546875 718.077880859375 C 759.587646484375 718.2378540039062 759.4209594726562 718.3645629882812 759.3143310546875 718.4578857421875 L 758.0842895507812 716.56787109375 C 758.2642822265625 716.3678588867188 758.5376586914062 716.16455078125 758.904296875 715.9578857421875 C 759.2642822265625 715.7445068359375 759.6809692382812 715.557861328125 760.154296875 715.3978881835938 C 760.6276245117188 715.231201171875 761.144287109375 715.0978393554688 761.7042846679688 714.9978637695312 C 762.2576293945312 714.8978881835938 762.8342895507812 714.8478393554688 763.434326171875 714.8478393554688 C 763.98095703125 714.8478393554688 764.5142822265625 714.9011840820312 765.0343017578125 715.0078735351562 C 765.5543212890625 715.1212158203125 766.031005859375 715.3045654296875 766.4642944335938 715.557861328125 C 766.8909912109375 715.8112182617188 767.2642822265625 716.154541015625 767.5842895507812 716.587890625 C 767.904296875 717.0145263671875 768.1276245117188 717.5445556640625 768.2543334960938 718.1778564453125 C 768.3809814453125 718.81787109375 768.4676513671875 719.461181640625 768.5142822265625 720.1078491210938 C 768.5609741210938 720.7545166015625 768.5842895507812 721.3978881835938 768.5842895507812 722.037841796875 L 768.5842895507812 725.587890625 M 765.2943115234375 722.9178466796875 L 763.5443115234375 722.9178466796875 C 763.184326171875 722.9178466796875 762.8043212890625 722.951171875 762.404296875 723.0178833007812 C 761.9976196289062 723.0911865234375 761.6209716796875 723.2278442382812 761.2742919921875 723.4278564453125 C 760.9276733398438 723.634521484375 760.6409912109375 723.924560546875 760.414306640625 724.2978515625 C 760.1876220703125 724.6712036132812 760.0743408203125 725.1478881835938 760.0743408203125 725.7278442382812 C 760.0743408203125 726.6411743164062 760.281005859375 727.2978515625 760.6943359375 727.6978759765625 C 761.1009521484375 728.0978393554688 761.6976318359375 728.2978515625 762.4843139648438 728.2978515625 C 763.031005859375 728.2978515625 763.5543212890625 728.1511840820312 764.0543212890625 727.8578491210938 C 764.5543212890625 727.5712280273438 764.9676513671875 727.1812133789062 765.2943115234375 726.6878662109375 L 765.2943115234375 722.9178466796875 ZM 786.51025390625 730.3778686523438 L 783.1802368164062 730.3778686523438 L 783.1802368164062 721.9878540039062 C 783.1802368164062 721.3678588867188 783.1502685546875 720.7745361328125 783.0902709960938 720.2078857421875 C 783.0369262695312 719.6411743164062 782.9102783203125 719.1378784179688 782.7102661132812 718.6978759765625 C 782.51025390625 718.2645263671875 782.2369384765625 717.924560546875 781.8902587890625 717.6778564453125 C 781.5435791015625 717.4312133789062 781.0602416992188 717.307861328125 780.4402465820312 717.307861328125 C 780.240234375 717.307861328125 779.9802856445312 717.3345336914062 779.6602783203125 717.3878784179688 C 779.3402709960938 717.4412231445312 779.0136108398438 717.5245361328125 778.6802368164062 717.6378784179688 C 778.3402709960938 717.7445068359375 778.020263671875 717.8812255859375 777.7202758789062 718.0478515625 C 777.4202880859375 718.2078857421875 777.1968994140625 718.3978881835938 777.0502319335938 718.6178588867188 L 777.0502319335938 718.787841796875 L 777.0502319335938 718.837890625 L 777.0502319335938 724.9078979492188 L 777.0502319335938 724.9678955078125 L 777.0502319335938 730.3778686523438 L 773.740234375 730.3778686523438 L 773.740234375 714.9578857421875 L 776.6902465820312 714.9578857421875 L 777.0502319335938 716.5178833007812 C 777.270263671875 716.31787109375 777.5469360351562 716.1112060546875 777.8802490234375 715.8978881835938 C 778.2202758789062 715.6912231445312 778.5902709960938 715.5045166015625 778.990234375 715.337890625 C 779.3902587890625 715.1712036132812 779.8002319335938 715.037841796875 780.2202758789062 714.9378662109375 C 780.6402587890625 714.837890625 781.0502319335938 714.787841796875 781.4502563476562 714.787841796875 C 782.270263671875 714.787841796875 782.963623046875 714.961181640625 783.5302734375 715.307861328125 C 784.096923828125 715.654541015625 784.66357421875 716.1011962890625 785.2302856445312 716.6478881835938 C 785.5369262695312 716.961181640625 785.7769165039062 717.3212280273438 785.9502563476562 717.7278442382812 C 786.1235961914062 718.1411743164062 786.250244140625 718.5712280273438 786.3302612304688 719.0178833007812 C 786.4169311523438 719.4645385742188 786.4669189453125 719.91455078125 786.4802856445312 720.3678588867188 C 786.500244140625 720.827880859375 786.51025390625 721.2745361328125 786.51025390625 721.7078857421875 L 786.51025390625 729.827880859375 L 786.51025390625 730.3778686523438 ZM 799.4927368164062 728.81787109375 C 798.7993774414062 728.037841796875 798.2893676757812 727.0712280273438 797.9627075195312 725.9178466796875 C 797.6360473632812 724.7711791992188 797.4727172851562 723.6145629882812 797.4727172851562 722.4478759765625 C 797.4727172851562 721.0278930664062 797.6693725585938 719.8345336914062 798.062744140625 718.8678588867188 C 798.4494018554688 717.9011840820312 798.9526977539062 717.1178588867188 799.5726928710938 716.5178833007812 C 800.1927490234375 715.9111938476562 800.8827514648438 715.4778442382812 801.6427001953125 715.2178955078125 C 802.3960571289062 714.951171875 803.139404296875 714.81787109375 803.8727416992188 714.81787109375 C 804.7660522460938 714.81787109375 805.5794067382812 714.9745483398438 806.312744140625 715.287841796875 C 807.052734375 715.5945434570312 807.6060791015625 716.0045166015625 807.9727172851562 716.5178833007812 L 807.9727172851562 709.1278686523438 L 811.302734375 709.1278686523438 L 811.302734375 730.3778686523438 L 808.1627197265625 730.3778686523438 C 808.1227416992188 730.0712280273438 808.0894165039062 729.7578735351562 808.062744140625 729.4378662109375 C 808.0360717773438 729.1178588867188 808.0060424804688 728.8212280273438 807.9727172851562 728.5478515625 C 807.9193725585938 728.7811889648438 807.7593994140625 729.0178833007812 807.4927368164062 729.2578735351562 C 807.22607421875 729.4912109375 806.889404296875 729.7045288085938 806.4827270507812 729.8978881835938 C 806.0693969726562 730.0911865234375 805.609375 730.2412109375 805.1027221679688 730.3478393554688 C 804.5894165039062 730.461181640625 804.0593872070312 730.5178833007812 803.5126953125 730.5178833007812 C 802.7860717773438 730.5178833007812 802.0693969726562 730.3878784179688 801.3627319335938 730.1278686523438 C 800.6627197265625 729.87451171875 800.0393676757812 729.4378662109375 799.4927368164062 728.81787109375 M 800.9727172851562 722.6978759765625 C 800.9727172851562 723.424560546875 801.062744140625 724.1011962890625 801.2427368164062 724.7278442382812 C 801.4227294921875 725.3612060546875 801.6693725585938 725.91455078125 801.9827270507812 726.3878784179688 C 802.2893676757812 726.8612060546875 802.6660766601562 727.2345581054688 803.1127319335938 727.5078735351562 C 803.5593872070312 727.7811889648438 804.0493774414062 727.9178466796875 804.5827026367188 727.9178466796875 C 805.1427001953125 727.9178466796875 805.6460571289062 727.7778930664062 806.0927124023438 727.4978637695312 C 806.5393676757812 727.211181640625 806.9193725585938 726.8311767578125 807.2327270507812 726.3578491210938 C 807.5393676757812 725.884521484375 807.7760620117188 725.327880859375 807.9427490234375 724.6878662109375 C 808.109375 724.0545654296875 808.1927490234375 723.3712158203125 808.1927490234375 722.6378784179688 C 808.1927490234375 721.9111938476562 808.1060791015625 721.2278442382812 807.9327392578125 720.587890625 C 807.7593994140625 719.9478759765625 807.5126953125 719.3911743164062 807.1927490234375 718.9178466796875 C 806.8727416992188 718.4445190429688 806.4893798828125 718.06787109375 806.042724609375 717.787841796875 C 805.5960693359375 717.501220703125 805.0894165039062 717.3578491210938 804.522705078125 717.3578491210938 C 803.9560546875 717.3578491210938 803.4560546875 717.501220703125 803.022705078125 717.787841796875 C 802.5827026367188 718.06787109375 802.2127075195312 718.4545288085938 801.9127197265625 718.9478759765625 C 801.6127319335938 719.4412231445312 801.37939453125 720.0078735351562 801.2127075195312 720.6478881835938 C 801.052734375 721.2811889648438 800.9727172851562 721.9645385742188 800.9727172851562 722.6978759765625 ZM 822.779052734375 714.8778686523438 C 823.8390502929688 714.8778686523438 824.7990112304688 715.0811767578125 825.6590576171875 715.4878540039062 C 826.5123901367188 715.9011840820312 827.239013671875 716.461181640625 827.8390502929688 717.1678466796875 C 828.4456787109375 717.8812255859375 828.912353515625 718.711181640625 829.239013671875 719.6578979492188 C 829.565673828125 720.6045532226562 829.72900390625 721.62451171875 829.72900390625 722.7178955078125 C 829.72900390625 723.8112182617188 829.5557250976562 724.837890625 829.2090454101562 725.7978515625 C 828.8623657226562 726.7578735351562 828.3756713867188 727.587890625 827.7490234375 728.287841796875 C 827.11572265625 728.9878540039062 826.3690185546875 729.5345458984375 825.509033203125 729.9278564453125 C 824.642333984375 730.3212280273438 823.6790161132812 730.5178833007812 822.6190185546875 730.5178833007812 C 821.5457153320312 730.5178833007812 820.565673828125 730.31787109375 819.6790161132812 729.9178466796875 C 818.7990112304688 729.51123046875 818.0523681640625 728.9545288085938 817.4390258789062 728.2478637695312 C 816.82568359375 727.5345458984375 816.355712890625 726.7045288085938 816.029052734375 725.7578735351562 C 815.702392578125 724.8112182617188 815.5390014648438 723.7811889648438 815.5390014648438 722.6678466796875 C 815.5390014648438 721.5545654296875 815.7156982421875 720.5145263671875 816.0690307617188 719.5478515625 C 816.4290161132812 718.5811767578125 816.92236328125 717.7578735351562 817.5490112304688 717.077880859375 C 818.1757202148438 716.3911743164062 818.9356689453125 715.8511962890625 819.8290405273438 715.4578857421875 C 820.7223510742188 715.0712280273438 821.7056884765625 714.8778686523438 822.779052734375 714.8778686523438 M 822.5690307617188 727.9178466796875 C 823.11572265625 727.9178466796875 823.6123657226562 727.7845458984375 824.0590209960938 727.5178833007812 C 824.5056762695312 727.2578735351562 824.8856811523438 726.89453125 825.1990356445312 726.4278564453125 C 825.51904296875 725.961181640625 825.7756958007812 725.4078979492188 825.9690551757812 724.7678833007812 C 826.162353515625 724.134521484375 826.259033203125 723.451171875 826.259033203125 722.7178955078125 C 826.259033203125 721.9912109375 826.17236328125 721.307861328125 825.9990234375 720.6678466796875 C 825.82568359375 720.0345458984375 825.5890502929688 719.4745483398438 825.2890014648438 718.9878540039062 C 824.989013671875 718.5078735351562 824.6190185546875 718.1212158203125 824.1790161132812 717.827880859375 C 823.739013671875 717.5345458984375 823.2457275390625 717.3878784179688 822.6990356445312 717.3878784179688 C 822.15234375 717.3878784179688 821.65234375 717.5245361328125 821.1990356445312 717.7978515625 C 820.7457275390625 718.0712280273438 820.3590087890625 718.4412231445312 820.0390014648438 718.9078979492188 C 819.7190551757812 719.37451171875 819.4723510742188 719.9212036132812 819.2990112304688 720.5478515625 C 819.1256713867188 721.174560546875 819.0390014648438 721.8545532226562 819.0390014648438 722.587890625 C 819.0390014648438 723.3145141601562 819.11572265625 724.001220703125 819.26904296875 724.6478881835938 C 819.42236328125 725.2945556640625 819.6557006835938 725.8545532226562 819.9690551757812 726.327880859375 C 820.2756958007812 726.8012084960938 820.6456909179688 727.1845092773438 821.0790405273438 727.4778442382812 C 821.5056762695312 727.7711791992188 822.0023803710938 727.9178466796875 822.5690307617188 727.9178466796875 ZM 836.4192504882812 728.5178833007812 C 836.4192504882812 729.0645141601562 836.229248046875 729.5311889648438 835.8492431640625 729.9178466796875 C 835.4625854492188 730.2978515625 834.9959106445312 730.4878540039062 834.4492797851562 730.4878540039062 C 833.902587890625 730.4878540039062 833.4425659179688 730.2978515625 833.0692749023438 729.9178466796875 C 832.6959228515625 729.5311889648438 832.50927734375 729.0645141601562 832.50927734375 728.5178833007812 C 832.50927734375 727.97119140625 832.7025756835938 727.51123046875 833.0892333984375 727.1378784179688 C 833.46923828125 726.7645263671875 833.922607421875 726.577880859375 834.4492797851562 726.577880859375 C 834.9959106445312 726.577880859375 835.4625854492188 726.7645263671875 835.8492431640625 727.1378784179688 C 836.229248046875 727.51123046875 836.4192504882812 727.97119140625 836.4192504882812 728.5178833007812 ZM 842.0258178710938 728.5178833007812 C 842.0258178710938 729.0645141601562 841.8358154296875 729.5311889648438 841.455810546875 729.9178466796875 C 841.0691528320312 730.2978515625 840.6024780273438 730.4878540039062 840.0558471679688 730.4878540039062 C 839.5091552734375 730.4878540039062 839.0491333007812 730.2978515625 838.6758422851562 729.9178466796875 C 838.302490234375 729.5311889648438 838.1158447265625 729.0645141601562 838.1158447265625 728.5178833007812 C 838.1158447265625 727.97119140625 838.3091430664062 727.51123046875 838.69580078125 727.1378784179688 C 839.0758056640625 726.7645263671875 839.5291748046875 726.577880859375 840.0558471679688 726.577880859375 C 840.6024780273438 726.577880859375 841.0691528320312 726.7645263671875 841.455810546875 727.1378784179688 C 841.8358154296875 727.51123046875 842.0258178710938 727.97119140625 842.0258178710938 728.5178833007812 ZM 847.6323852539062 728.5178833007812 C 847.6323852539062 729.0645141601562 847.4423828125 729.5311889648438 847.0623779296875 729.9178466796875 C 846.6757202148438 730.2978515625 846.2090454101562 730.4878540039062 845.6624145507812 730.4878540039062 C 845.11572265625 730.4878540039062 844.6557006835938 730.2978515625 844.2824096679688 729.9178466796875 C 843.9090576171875 729.5311889648438 843.722412109375 729.0645141601562 843.722412109375 728.5178833007812 C 843.722412109375 727.97119140625 843.9157104492188 727.51123046875 844.3023681640625 727.1378784179688 C 844.682373046875 726.7645263671875 845.1357421875 726.577880859375 845.6624145507812 726.577880859375 C 846.2090454101562 726.577880859375 846.6757202148438 726.7645263671875 847.0623779296875 727.1378784179688 C 847.4423828125 727.51123046875 847.6323852539062 727.97119140625 847.6323852539062 728.5178833007812 Z" transform="matrix(1, 0, 0, 1, 19.585254669189453, -247.26385498046875)" style="fill: rgb(255, 255, 255); white-space: pre; color: rgb(255, 255, 255);"/></svg>